<svg width="139" height="84" viewBox="0 0 139 84" fill="none" xmlns="http://www.w3.org/2000/svg">
<path d="M40.0279 53.0701C33.4476 52.5307 28.7964 51.6776 26.0743 50.5109C26.0743 50.869 25.8793 51.835 25.4893 53.4283C25.1434 54.8801 24.6871 56.3038 24.1244 57.6872C21.6402 63.4845 18.8902 66.8652 15.8743 67.8293C14.495 68.2784 12.822 68.503 10.8552 68.503C8.35689 68.4855 5.86835 68.1914 3.43576 67.626C1.1524 67.1111 0 66.7065 0 66.4374C0 66.2573 0.836515 66.1683 2.48615 66.1896C5.38178 66.2128 6.62583 66.2128 6.24169 66.2128C6.87347 66.1896 7.37264 66.1683 7.75678 66.1218C10.6273 65.7775 13.3528 64.6766 15.65 62.9334C18.4989 60.7478 20.7374 58.3686 22.3383 55.8268C23.7169 53.6722 24.3954 51.8525 24.3954 50.3715C24.4013 50.136 24.371 49.901 24.3057 49.6746C23.3438 49.0162 22.4566 48.2561 21.6597 47.4077C20.868 46.5772 20.3922 46.039 20.2792 45.7467C20.8446 43.3443 21.4335 41.7936 22.0204 41.1006C22.4514 41.9988 23.4224 42.9416 24.9453 43.9521C26.8952 45.255 29.2663 46.2636 32.0703 46.9605C34.0202 47.4541 36.6604 47.8355 40.0299 48.122L40.0279 53.0701Z" fill="white"/>
<path d="M44.1443 53.0703H39.4177V48.1299H44.1443V53.0703Z" fill="white"/>
<path d="M48.4847 53.0703H43.7581V48.1299H48.4847V53.0703Z" fill="white"/>
<path d="M52.8272 53.0703H48.1006V48.1299H52.8272V53.0703Z" fill="white"/>
<path d="M57.1697 53.0703H52.4431V48.1299H57.1697V53.0703Z" fill="white"/>
<path d="M61.512 53.0703H56.7854V48.1299H61.512V53.0703Z" fill="white"/>
<path d="M65.8545 53.0703H61.1279V48.1299H65.8545V53.0703Z" fill="white"/>
<path d="M70.1951 53.0703H65.4685V48.1299H70.1951V53.0703Z" fill="white"/>
<path d="M83.2441 1.27173C83.2261 2.18355 83.0898 3.08925 82.8385 3.96647C81.2786 4.75244 78.9036 5.91978 75.7369 7.51494C73.1806 8.88361 70.5131 10.2755 67.7306 11.7352C67.6623 11.7584 67.6409 11.6674 67.6409 11.4661C67.6568 10.9666 67.7221 10.4699 67.8359 9.98319C67.9724 9.33273 68.0854 8.99588 68.1751 8.92813C68.8771 8.479 71.0259 7.3349 74.5748 5.51517C80.2373 2.6191 83.133 1.20591 83.2441 1.27173Z" fill="white"/>
<path d="M76.1657 25.296C78.1332 22.6244 79.1959 21.2771 79.3558 21.2771C79.6262 21.2771 80.3724 21.7288 81.5943 22.6322C82.8384 23.5072 83.4487 24.0899 83.4487 24.3609C83.4487 24.8546 82.9281 25.6851 81.9102 26.8292C80.9352 27.9307 80.3269 28.4689 80.0792 28.4689C79.9876 28.4689 78.6538 27.5261 76.0526 25.6173C75.805 26.2232 75.2395 27.0092 74.3562 27.9307C73.5431 28.8057 73.0225 29.2548 72.8197 29.2548C72.7514 29.2548 71.3943 28.2869 68.7249 26.351C68.951 26.0142 69.5399 25.2282 70.4661 24.0163C71.484 22.7128 72.0274 22.0617 72.0963 22.063C72.3673 22.063 73.1141 22.5122 74.3562 23.3872C75.5983 24.2622 76.1891 24.8681 76.1891 25.1392C76.1899 25.1923 76.182 25.2453 76.1657 25.296ZM82.6336 42.5834C82.6261 44.2036 82.4212 45.8169 82.0233 47.3882C81.6333 48.9156 81.2765 49.8584 80.8923 50.1952C79.8745 51.1167 78.0656 51.8575 75.4657 52.4176C73.4515 52.8455 71.7102 53.07 70.2867 53.07H69.9163V48.1297H70.1658C72.004 48.1126 73.8364 47.9246 75.6393 47.5683C78.3964 47.0514 79.8901 46.3777 80.0929 45.5472C80.1384 45.3945 80.1614 45.236 80.1611 45.0768C80.1611 44.0662 79.506 42.7421 78.1703 41.1256C77.4262 40.2141 76.6042 39.3682 75.7134 38.5974C76.2788 36.0594 76.7761 34.3094 77.1836 33.3434C78.3907 34.0034 79.4459 34.906 80.282 35.9936C81.818 37.8496 82.6501 40.1813 82.6336 42.5834ZM79.1959 18.7391C79.1959 19.2115 78.6987 19.9975 77.7276 21.097C76.7995 22.1289 76.234 22.6457 75.9844 22.6457C75.9629 22.6457 74.6507 21.7262 72.0963 19.9065C73.9721 17.1962 75.0348 15.8198 75.3078 15.8198C75.5808 15.8198 76.2827 16.2477 77.4332 17.0994C78.5836 17.9512 79.1959 18.4933 79.1959 18.7391Z" fill="white"/>
<path d="M103.938 1.24864C103.123 2.8651 101.879 4.28023 100.183 5.50758C97.7182 7.32537 94.8245 8.21781 91.4999 8.21781C89.16 8.21781 87.0892 7.61188 85.3031 6.37679C84.8507 6.37679 84.2404 6.98272 83.4487 8.17328C82.7253 9.31739 82.2944 9.83427 82.1598 9.76651C82.1177 9.73159 82.0853 9.68662 82.0655 9.63583C82.0457 9.58503 82.0392 9.53008 82.0467 9.47613C82.0467 8.73469 82.5654 7.47637 83.6067 5.68181C84.6694 3.81756 85.5059 2.89607 86.0947 2.89607C86.2897 2.89607 86.6368 3.05482 87.0697 3.39166C87.5656 3.78618 88.1236 4.09686 88.7213 4.31121C89.6495 4.64805 90.8019 4.80485 92.2038 4.80485C96.8628 4.80485 100.602 3.40521 103.422 0.605931C103.829 0.203268 104.1 0 104.235 0C104.303 0 104.348 0.0445248 104.348 0.156806C104.344 0.373624 104.209 0.731765 103.938 1.24864ZM94.0777 49.7018C93.7384 51.1169 93.1028 52.2397 92.2233 53.0702C92.2233 51.3421 91.6273 44.6511 90.4353 32.9971C89.2822 21.7264 88.7395 15.8884 88.8071 15.4832C88.8753 15.034 89.1971 14.2036 89.7586 12.9665C90.3222 11.6869 90.7336 11.0306 90.9559 11.0306C91.0241 11.0306 91.069 11.1197 91.0924 11.2997C93.2412 30.1823 94.3189 42.1125 94.3254 47.0903C94.3362 47.967 94.2532 48.8424 94.0777 49.7018Z" fill="white"/>
<path d="M75.984 83.08C75.7173 83.08 75.4027 83.0373 75.04 82.952C74.688 82.856 74.3413 82.6587 74 82.36C73.6693 82.0613 73.3867 81.608 73.152 81L72.752 79.992H68.336L67.04 83H66.288L70.832 72.44H71.376L74.912 81C75.1573 81.5653 75.4027 81.9707 75.648 82.216C75.8933 82.4613 76.2293 82.6053 76.656 82.648V83C76.5707 83.0213 76.464 83.0373 76.336 83.048C76.2187 83.0693 76.1013 83.08 75.984 83.08ZM68.592 79.336H72.432L70.56 74.808L68.592 79.336ZM79.6119 83.16C79.0039 83.16 78.5132 82.9893 78.1399 82.648C77.7665 82.296 77.5799 81.752 77.5799 81.016V76.136H76.5079V75.48H77.5799V74.04L78.3799 73.08H79.1959V75.48H81.0679V76.136H79.1959V81.032C79.1959 81.544 79.2812 81.9173 79.4519 82.152C79.6332 82.3867 79.8945 82.504 80.2359 82.504C80.5132 82.504 80.7479 82.4667 80.9399 82.392C81.1319 82.3173 81.3025 82.2373 81.4519 82.152L81.6279 82.504C81.4465 82.6533 81.2012 82.8027 80.8919 82.952C80.5825 83.0907 80.1559 83.16 79.6119 83.16ZM82.7446 83V74.408C82.7446 73.928 82.6753 73.544 82.5366 73.256C82.4086 72.9573 82.1046 72.808 81.6246 72.808H81.3366V72.44H82.9046C83.278 72.44 83.566 72.4933 83.7686 72.6C83.982 72.7067 84.1313 72.904 84.2166 73.192C84.302 73.4693 84.3446 73.8747 84.3446 74.408V76.072C84.5473 75.88 84.8193 75.7093 85.1606 75.56C85.502 75.4 85.8966 75.32 86.3446 75.32C86.6966 75.32 87.038 75.3627 87.3686 75.448C87.6993 75.5333 87.998 75.6827 88.2646 75.896C88.5313 76.1093 88.7446 76.408 88.9046 76.792C89.0646 77.1653 89.1446 77.64 89.1446 78.216V83H87.5446V78.232C87.5446 77.6987 87.4646 77.272 87.3046 76.952C87.1446 76.632 86.9366 76.4027 86.6806 76.264C86.4246 76.1253 86.1526 76.056 85.8646 76.056C85.5553 76.056 85.2673 76.1413 85.0006 76.312C84.7446 76.472 84.526 76.648 84.3446 76.84V83H82.7446ZM93.1799 83.16C92.8919 83.16 92.6092 83.1173 92.3319 83.032C92.0545 82.9573 91.7932 82.8347 91.5479 82.664C91.3132 82.4827 91.1212 82.2533 90.9719 81.976C90.8225 81.688 90.7479 81.3413 90.7479 80.936C90.7479 80.3707 90.9185 79.9227 91.2599 79.592C91.6119 79.2613 92.0972 79.0267 92.7159 78.888C93.3452 78.7387 94.0705 78.664 94.8919 78.664H95.3079C95.3079 77.9387 95.2385 77.384 95.0999 77C94.9612 76.616 94.7692 76.3493 94.5239 76.2C94.2785 76.0507 93.9959 75.976 93.6759 75.976C93.2492 75.976 92.8865 76.072 92.5879 76.264C92.2892 76.456 92.0812 76.824 91.9639 77.368H91.1959C91.1959 77.0907 91.2119 76.824 91.2439 76.568C91.2759 76.312 91.3932 76.0827 91.5959 75.88C91.7985 75.6773 92.1239 75.5333 92.5719 75.448C93.0305 75.3627 93.5052 75.32 93.9959 75.32C94.4012 75.32 94.7799 75.3733 95.1319 75.48C95.4839 75.576 95.7932 75.7467 96.0599 75.992C96.3265 76.2267 96.5345 76.5627 96.6839 77C96.8439 77.4373 96.9239 77.9973 96.9239 78.68V83H95.9799L95.4199 82.28H95.3399C95.1799 82.4933 94.9239 82.696 94.5719 82.888C94.2199 83.0693 93.7559 83.16 93.1799 83.16ZM93.8359 82.424C94.2199 82.424 94.5239 82.3227 94.7479 82.12C94.9825 81.9067 95.1692 81.6773 95.3079 81.432V79.32H94.8919C94.1025 79.32 93.4945 79.464 93.0679 79.752C92.6519 80.04 92.4439 80.4347 92.4439 80.936C92.4439 81.4373 92.5825 81.8107 92.8599 82.056C93.1372 82.3013 93.4625 82.424 93.8359 82.424ZM99.2175 83V77.448C99.2175 76.968 99.1482 76.584 99.0095 76.296C98.8815 75.9973 98.5775 75.848 98.0975 75.848H97.9375V75.48H99.2975C99.6922 75.48 99.9908 75.5387 100.194 75.656C100.407 75.7627 100.562 75.9333 100.658 76.168C100.839 75.9867 101.1 75.8 101.442 75.608C101.794 75.416 102.199 75.32 102.658 75.32C102.839 75.32 103.02 75.3413 103.202 75.384C103.394 75.4267 103.548 75.4907 103.666 75.576C103.804 75.672 103.916 75.7893 104.002 75.928C104.087 76.056 104.162 76.1787 104.226 76.296L103.538 76.824C103.42 76.664 103.255 76.536 103.042 76.44C102.828 76.344 102.583 76.296 102.306 76.296C101.975 76.296 101.682 76.3653 101.426 76.504C101.17 76.632 100.962 76.8027 100.802 77.016C100.812 77.112 100.818 77.2133 100.818 77.32C100.818 77.4267 100.818 77.512 100.818 77.576V83H99.2175ZM111.815 83.16C111.207 83.16 110.716 82.9893 110.343 82.648C109.97 82.296 109.783 81.752 109.783 81.016V76.136H108.711V75.48H109.783V74.04L110.583 73.08H111.399V75.48H113.271V76.136H111.399V81.032C111.399 81.544 111.484 81.9173 111.655 82.152C111.836 82.3867 112.098 82.504 112.439 82.504C112.716 82.504 112.951 82.4667 113.143 82.392C113.335 82.3173 113.506 82.2373 113.655 82.152L113.831 82.504C113.65 82.6533 113.404 82.8027 113.095 82.952C112.786 83.0907 112.359 83.16 111.815 83.16ZM117.972 83.16C117.225 83.16 116.596 82.9893 116.084 82.648C115.572 82.296 115.182 81.8213 114.916 81.224C114.66 80.6267 114.532 79.9653 114.532 79.24C114.532 78.4827 114.665 77.8107 114.932 77.224C115.209 76.6267 115.593 76.1627 116.084 75.832C116.574 75.4907 117.15 75.32 117.812 75.32C118.526 75.32 119.124 75.4587 119.604 75.736C120.094 76.0027 120.462 76.392 120.708 76.904C120.964 77.416 121.092 78.0347 121.092 78.76L121.06 79.496H116.212C116.212 80.4133 116.393 81.144 116.756 81.688C117.129 82.232 117.636 82.504 118.276 82.504C118.809 82.504 119.246 82.3867 119.588 82.152C119.94 81.9173 120.254 81.6027 120.532 81.208L120.884 81.48C120.681 81.8427 120.436 82.152 120.148 82.408C119.87 82.6533 119.55 82.84 119.188 82.968C118.836 83.096 118.43 83.16 117.972 83.16ZM116.212 78.824H119.412C119.412 77.864 119.273 77.1493 118.996 76.68C118.729 76.2107 118.334 75.976 117.812 75.976C117.513 75.976 117.241 76.0933 116.996 76.328C116.761 76.552 116.569 76.8773 116.42 77.304C116.281 77.7307 116.212 78.2373 116.212 78.824ZM126.022 83.16C125.212 83.16 124.54 82.984 124.006 82.632C123.473 82.28 123.073 81.8053 122.806 81.208C122.55 80.6107 122.422 79.9547 122.422 79.24C122.422 78.5147 122.55 77.8587 122.806 77.272C123.073 76.6747 123.473 76.2 124.006 75.848C124.54 75.496 125.212 75.32 126.022 75.32C126.598 75.32 127.084 75.3627 127.478 75.448C127.873 75.5333 128.172 75.6773 128.374 75.88C128.577 76.0827 128.694 76.3387 128.726 76.648C128.758 76.9467 128.774 77.4 128.774 78.008H128.422C128.38 77.3253 128.161 76.8187 127.766 76.488C127.382 76.1467 126.902 75.976 126.326 75.976C125.825 75.976 125.409 76.1147 125.078 76.392C124.758 76.6693 124.513 77.0533 124.342 77.544C124.182 78.024 124.102 78.5893 124.102 79.24C124.102 79.8693 124.182 80.4293 124.342 80.92C124.502 81.4107 124.748 81.8 125.078 82.088C125.409 82.3653 125.83 82.504 126.342 82.504C126.908 82.504 127.361 82.3867 127.702 82.152C128.054 81.9173 128.369 81.6027 128.646 81.208L129.014 81.48C128.801 81.8427 128.55 82.152 128.262 82.408C127.985 82.6533 127.66 82.84 127.286 82.968C126.924 83.096 126.502 83.16 126.022 83.16ZM130.62 83V74.408C130.62 73.928 130.55 73.544 130.412 73.256C130.284 72.9573 129.98 72.808 129.5 72.808H129.212V72.44H130.78C131.153 72.44 131.441 72.4933 131.644 72.6C131.857 72.7067 132.006 72.904 132.092 73.192C132.177 73.4693 132.22 73.8747 132.22 74.408V76.072C132.422 75.88 132.694 75.7093 133.036 75.56C133.377 75.4 133.772 75.32 134.22 75.32C134.572 75.32 134.913 75.3627 135.244 75.448C135.574 75.5333 135.873 75.6827 136.14 75.896C136.406 76.1093 136.62 76.408 136.78 76.792C136.94 77.1653 137.02 77.64 137.02 78.216V83H135.42V78.232C135.42 77.6987 135.34 77.272 135.18 76.952C135.02 76.632 134.812 76.4027 134.556 76.264C134.3 76.1253 134.028 76.056 133.74 76.056C133.43 76.056 133.142 76.1413 132.876 76.312C132.62 76.472 132.401 76.648 132.22 76.84V83H130.62Z" fill="white"/>
</svg>
