<svg width="111" height="44" viewBox="0 0 111 44" fill="none" xmlns="http://www.w3.org/2000/svg">
<g clip-path="url(#clip0_4212_10477)">
<mask id="mask0_4212_10477" style="mask-type:luminance" maskUnits="userSpaceOnUse" x="21" y="25" width="12" height="19">
<path d="M32.1066 25.9453H21.0661V43.295H32.1066V25.9453Z" fill="white"/>
</mask>
<g mask="url(#mask0_4212_10477)">
<path d="M23.6817 32.7059L24.6175 33.8668C24.0212 34.295 23.5351 34.8585 23.1989 35.511C22.8627 36.1636 22.6861 36.8866 22.6836 37.6206C22.64 38.7126 23.0018 39.7822 23.6993 40.6235C24.0485 41.0238 24.4825 41.3413 24.9697 41.5529C25.457 41.7646 25.9852 41.8651 26.5161 41.8472C27.0591 41.8604 27.5982 41.7529 28.0947 41.5325C28.5911 41.3121 29.0324 40.9844 29.3869 40.5729C30.126 39.7371 30.5175 38.6504 30.4813 37.5353V30.9966H30.4906V25.9492H32.109V37.5325C32.1268 38.2832 31.995 39.03 31.7215 39.7293C31.4481 40.4286 31.0382 41.0666 30.5159 41.6061C30.0093 42.1526 29.3925 42.5853 28.7062 42.8756C28.0199 43.166 27.2798 43.3075 26.5348 43.2906C25.8016 43.3121 25.0723 43.1757 24.3964 42.8908C23.7205 42.6059 23.1136 42.179 22.617 41.6391C22.1037 41.1052 21.7023 40.4741 21.4363 39.7829C21.1703 39.0917 21.0451 38.3543 21.068 37.614C21.068 35.7339 21.9396 34.0957 23.6828 32.6993" fill="#3F3A39"/>
</g>
<mask id="mask1_4212_10477" style="mask-type:luminance" maskUnits="userSpaceOnUse" x="1" y="21" width="9" height="9">
<path d="M9.79222 21.041H1.43311V29.4001H9.79222V21.041Z" fill="white"/>
</mask>
<g mask="url(#mask1_4212_10477)">
<path d="M5.57298 21.04C6.12993 21.0278 6.68348 21.1299 7.19947 21.3399C7.71547 21.5499 8.18296 21.8634 8.57312 22.261C8.96519 22.6381 9.27581 23.0915 9.48581 23.5933C9.69581 24.0951 9.80073 24.6347 9.7941 25.1786C9.80126 25.7349 9.69691 26.2869 9.48721 26.8022C9.2775 27.3175 8.96669 27.7855 8.57312 28.1787C8.18315 28.5768 7.71574 28.8907 7.19974 29.101C6.68373 29.3114 6.13009 29.4138 5.57298 29.4019C5.02833 29.4137 4.48726 29.3111 3.98471 29.1008C3.48217 28.8905 3.02932 28.5771 2.65541 28.1809C2.2581 27.7905 1.94484 27.323 1.73487 26.807C1.5249 26.2911 1.42266 25.7377 1.43443 25.1808C1.42233 24.6361 1.52477 24.0949 1.73509 23.5923C1.94542 23.0898 2.25896 22.6369 2.65541 22.2632C3.03229 21.8707 3.48564 21.5597 3.98746 21.3493C4.48927 21.139 5.02889 21.0337 5.57298 21.04Z" fill="#AA7C4D"/>
</g>
<mask id="mask2_4212_10477" style="mask-type:luminance" maskUnits="userSpaceOnUse" x="0" y="0" width="31" height="9">
<path d="M30.0821 0.25H0.903076V8.76711H30.0821V0.25Z" fill="white"/>
</mask>
<g mask="url(#mask2_4212_10477)">
<path d="M5.15833 0.25H25.9969C27.0955 0.334529 28.12 0.836893 28.8595 1.65374C29.2482 2.04186 29.5561 2.50321 29.7654 3.01108C29.9747 3.51896 30.0812 4.06329 30.0788 4.61259C30.0815 5.15323 29.9706 5.6884 29.7532 6.18342C29.5359 6.67844 29.2169 7.12226 28.8171 7.48613C28.0145 8.29574 26.9249 8.75605 25.785 8.76711H5.15833C4.37501 8.74104 3.61235 8.50923 2.94703 8.09496C2.2842 7.70071 1.7386 7.13668 1.36658 6.46112C1.06166 5.86329 0.902816 5.20168 0.903076 4.53057C0.904048 3.99407 0.997148 3.46172 1.17832 2.95673C1.34753 2.45962 1.62807 2.00774 1.99854 1.63557C2.38471 1.20071 2.86734 0.8623 3.40778 0.64745C3.96295 0.415294 4.55406 0.280832 5.15502 0.25" fill="#AA7C4D"/>
</g>
<mask id="mask3_4212_10477" style="mask-type:luminance" maskUnits="userSpaceOnUse" x="0" y="10" width="31" height="10">
<path d="M30.0821 10.5215H0.903076V19.0386H30.0821V10.5215Z" fill="white"/>
</mask>
<g mask="url(#mask3_4212_10477)">
<path d="M5.15833 10.5215H25.9969C27.0955 10.606 28.12 11.1084 28.8595 11.9252C29.2482 12.3133 29.5561 12.7747 29.7654 13.2826C29.9747 13.7904 30.0812 14.3348 30.0788 14.8841C30.0815 15.4247 29.9706 15.9599 29.7532 16.4549C29.5359 16.9499 29.2169 17.3937 28.8171 17.7576C28.0145 18.5672 26.9249 19.0275 25.785 19.0386H5.15833C4.37501 19.0125 3.61235 18.7807 2.94703 18.3664C2.2842 17.9722 1.7386 17.4082 1.36658 16.7326C1.06196 16.1335 0.903149 15.4709 0.903076 14.7988C0.904578 14.2623 0.997663 13.73 1.17832 13.2249C1.34676 12.7274 1.62741 12.2754 1.99854 11.9038C2.38407 11.469 2.86696 11.1315 3.40778 10.9189C3.96312 10.6867 4.55443 10.5523 5.15557 10.5215" fill="#AA7C4D"/>
</g>
<mask id="mask4_4212_10477" style="mask-type:luminance" maskUnits="userSpaceOnUse" x="38" y="3" width="13" height="21">
<path d="M50.7406 3.37695H38.5958V23.8809H50.7406V3.37695Z" fill="white"/>
</mask>
<g mask="url(#mask4_4212_10477)">
<path d="M38.5958 23.8809V3.37695H50.7406V5.41815H41.0119V12.2188H49.207V14.26H41.0119V23.8776L38.5958 23.8809Z" fill="#3F3A39"/>
</g>
<mask id="mask5_4212_10477" style="mask-type:luminance" maskUnits="userSpaceOnUse" x="54" y="3" width="4" height="21">
<path d="M57.0272 3.37695H54.6613V23.8809H57.0272V3.37695Z" fill="white"/>
</mask>
<g mask="url(#mask5_4212_10477)">
<path d="M57.0271 3.38086H54.6611V23.8787H57.0271V3.38086Z" fill="#3F3A39"/>
</g>
<mask id="mask6_4212_10477" style="mask-type:luminance" maskUnits="userSpaceOnUse" x="29" y="25" width="40" height="19">
<path d="M68.9734 25.4531H29.7001V43.749H68.9734V25.4531Z" fill="white"/>
</mask>
<g mask="url(#mask6_4212_10477)">
<path d="M32.1135 26.2438V37.3917C32.098 37.498 32.1075 37.6065 32.1414 37.7085C32.1752 37.8105 32.2323 37.9031 32.3083 37.9791C32.3843 38.0551 32.477 38.1123 32.579 38.1461C32.681 38.1799 32.7895 38.1894 32.8958 38.1739H51.9976L52.0136 39.6184H32.8424C32.2197 39.6458 31.6113 39.4271 31.1485 39.0095C30.9294 38.8019 30.7571 38.5499 30.6431 38.2703C30.5292 37.9907 30.4763 37.69 30.488 37.3884V26.2383H32.1124L32.1135 26.2438Z" fill="#3F3A39"/>
</g>
<mask id="mask7_4212_10477" style="mask-type:luminance" maskUnits="userSpaceOnUse" x="29" y="25" width="40" height="19">
<path d="M68.9734 25.4531H29.7001V43.749H68.9734V25.4531Z" fill="white"/>
</mask>
<g mask="url(#mask7_4212_10477)">
<path d="M51.5733 39.6227V38.1782H53.9172V31.2801H55.5224V34.6177C55.4832 35.4417 55.6537 36.2621 56.0179 37.0024C56.2198 37.378 56.5247 37.6882 56.8968 37.8966C57.2689 38.105 57.6927 38.2029 58.1185 38.1787H58.604V39.6227H58.0833C57.5747 39.6401 57.0704 39.5237 56.6209 39.2851C56.1714 39.0465 55.7924 38.694 55.5219 38.263V39.6227H51.5694H51.5733ZM53.7339 27.828C53.8266 27.7344 53.9388 27.6625 54.0625 27.6172C54.1862 27.5719 54.3183 27.5544 54.4495 27.5659C54.5804 27.558 54.7115 27.5772 54.8347 27.6223C54.9578 27.6674 55.0703 27.7374 55.1652 27.828C55.3105 28.0183 55.3892 28.251 55.3892 28.4905C55.3892 28.7299 55.3105 28.9627 55.1652 29.153C55.0722 29.2467 54.9602 29.3194 54.8367 29.3662C54.7133 29.413 54.5813 29.4328 54.4495 29.4244C54.3175 29.4359 54.1846 29.4175 54.0607 29.3705C53.9368 29.3235 53.8251 29.2491 53.7339 29.153C53.5667 28.9742 53.4762 28.7371 53.4818 28.4924C53.4749 28.2475 53.5656 28.0099 53.7339 27.8318" fill="#3F3A39"/>
</g>
<mask id="mask8_4212_10477" style="mask-type:luminance" maskUnits="userSpaceOnUse" x="29" y="25" width="40" height="19">
<path d="M68.9734 25.4531H29.7001V43.749H68.9734V25.4531Z" fill="white"/>
</mask>
<g mask="url(#mask8_4212_10477)">
<path d="M63.6257 42.0511C63.6173 41.811 63.697 41.576 63.8498 41.3906C63.94 41.2922 64.0511 41.2154 64.175 41.1658C64.2988 41.1161 64.4323 41.0949 64.5654 41.1038C64.6988 41.0924 64.833 41.1125 64.9572 41.1623C65.0815 41.2121 65.1924 41.2902 65.281 41.3906C65.3647 41.4785 65.43 41.5822 65.4733 41.6956C65.5166 41.809 65.5369 41.9298 65.5332 42.0511C65.5384 42.1687 65.5186 42.286 65.4752 42.3953C65.4317 42.5046 65.3655 42.6035 65.281 42.6853C65.1898 42.7815 65.0781 42.8558 64.9542 42.9028C64.8303 42.9498 64.6974 42.9682 64.5654 42.9567C64.4337 42.9649 64.3017 42.9449 64.1783 42.8981C64.0549 42.8513 63.9429 42.7788 63.8498 42.6853C63.6969 42.5102 63.6167 42.2834 63.6257 42.0511ZM66.5593 38.1741V31.2754H68.1837V39.6218H58.3422V38.1741H66.5593ZM66.284 42.0511C66.2756 41.811 66.3553 41.576 66.5081 41.3906C66.5983 41.2922 66.7094 41.2154 66.8333 41.1658C66.9571 41.1161 67.0905 41.0949 67.2237 41.1038C67.3571 41.0924 67.4913 41.1125 67.6155 41.1623C67.7398 41.2121 67.8507 41.2902 67.9393 41.3906C68.023 41.4785 68.0883 41.5822 68.1316 41.6956C68.1749 41.809 68.1952 41.9298 68.1914 42.0511C68.1974 42.1687 68.178 42.2863 68.1345 42.3957C68.091 42.5051 68.0244 42.6039 67.9393 42.6853C67.8484 42.7817 67.7367 42.8563 67.6127 42.9033C67.4888 42.9503 67.3557 42.9686 67.2237 42.9567C67.092 42.9649 66.96 42.9449 66.8366 42.8981C66.7132 42.8513 66.6012 42.7788 66.5081 42.6853C66.3539 42.511 66.2735 42.2836 66.284 42.0511Z" fill="#3F3A39"/>
</g>
<mask id="mask9_4212_10477" style="mask-type:luminance" maskUnits="userSpaceOnUse" x="62" y="3" width="16" height="21">
<path d="M77.0174 3.37695H62.1912V23.8809H77.0174V3.37695Z" fill="white"/>
</mask>
<g mask="url(#mask9_4212_10477)">
<path d="M64.5852 23.8809H62.1912V3.37695H64.3584C66.3237 6.33599 69.7442 11.9067 74.62 20.0891V3.37695H77.0141V23.8809H74.7808C73.6137 22.1333 71.2395 18.3542 67.658 12.5436C66.1471 10.0848 65.1219 8.40031 64.5825 7.49018V23.8809H64.5852Z" fill="#3F3A39"/>
</g>
<mask id="mask10_4212_10477" style="mask-type:luminance" maskUnits="userSpaceOnUse" x="79" y="3" width="18" height="21">
<path d="M96.9373 3.37695H79.7457V23.8809H96.9373V3.37695Z" fill="white"/>
</mask>
<g mask="url(#mask10_4212_10477)">
<path d="M87.095 3.37695H89.5871L96.9338 23.8809H94.4732L92.8217 19.0861H83.9187L82.2342 23.8809H79.7422L87.0923 3.37695H87.095ZM88.3254 6.06442L84.5683 17.0741H92.1099L88.3215 6.06442H88.3254Z" fill="#3F3A39"/>
</g>
<mask id="mask11_4212_10477" style="mask-type:luminance" maskUnits="userSpaceOnUse" x="71" y="25" width="40" height="16">
<path d="M111 25.4531H71.8845V40.4368H111V25.4531Z" fill="white"/>
</mask>
<g mask="url(#mask11_4212_10477)">
<path d="M74.3004 26.2441V37.4135C74.285 37.5199 74.2946 37.6285 74.3284 37.7306C74.3623 37.8327 74.4194 37.9255 74.4953 38.0017C74.5712 38.0779 74.6637 38.1354 74.7657 38.1697C74.8676 38.2039 74.9762 38.214 75.0827 38.199H77.0094L77.0281 39.6468H75.0342C74.4099 39.6748 73.7998 39.4547 73.3371 39.0347C73.1173 38.8275 72.9447 38.5755 72.8307 38.2958C72.7167 38.0161 72.6641 37.7152 72.6765 37.4135V26.2441H74.3043H74.3004Z" fill="#3F3A39"/>
</g>
<mask id="mask12_4212_10477" style="mask-type:luminance" maskUnits="userSpaceOnUse" x="71" y="25" width="40" height="16">
<path d="M111 25.4531H71.8845V40.4368H111V25.4531Z" fill="white"/>
</mask>
<g mask="url(#mask12_4212_10477)">
<path d="M76.5814 39.6439V38.1961H102.483C101.898 37.5604 101.511 36.7683 101.368 35.9163C101.226 35.0644 101.334 34.1894 101.68 33.3979C102.026 32.6064 102.595 31.9328 103.317 31.4589C104.039 30.9851 104.884 30.7316 105.748 30.7293C106.332 30.7202 106.912 30.8317 107.451 31.057C107.989 31.2822 108.476 31.6163 108.88 32.0384C109.302 32.4471 109.636 32.9383 109.861 33.4815C110.086 34.0247 110.196 34.6083 110.186 35.196L110.205 39.6472H76.5814V39.6439ZM102.877 35.1927C102.858 35.974 103.146 36.7316 103.678 37.3032C103.935 37.5927 104.252 37.8224 104.606 37.9761C104.961 38.1298 105.345 38.2038 105.732 38.1928H108.58V35.1927C108.596 34.4063 108.309 33.6438 107.779 33.0634C107.525 32.7775 107.212 32.5499 106.862 32.3964C106.512 32.2428 106.132 32.1669 105.75 32.1738C105.364 32.1684 104.982 32.2449 104.628 32.3982C104.274 32.5516 103.956 32.7783 103.697 33.0634C103.156 33.6387 102.863 34.4033 102.88 35.1927M105.038 27.2624C105.13 27.1672 105.241 27.0935 105.365 27.0466C105.489 26.9997 105.621 26.9807 105.753 26.991C105.885 26.9816 106.017 27.001 106.141 27.0479C106.265 27.0948 106.376 27.168 106.469 27.2624C106.618 27.4498 106.699 27.6832 106.696 27.923C106.702 28.161 106.621 28.3931 106.469 28.5758C106.375 28.669 106.263 28.7413 106.14 28.788C106.017 28.8348 105.885 28.855 105.753 28.8472C105.628 28.8582 105.502 28.8421 105.383 28.7999C105.265 28.7577 105.157 28.6904 105.067 28.6027C104.977 28.515 104.906 28.4088 104.861 28.2915C104.816 28.1742 104.796 28.0485 104.804 27.923C104.795 27.6805 104.879 27.4439 105.04 27.2624" fill="#3F3A39"/>
</g>
<mask id="mask13_4212_10477" style="mask-type:luminance" maskUnits="userSpaceOnUse" x="99" y="3" width="12" height="21">
<path d="M110.082 3.37695H99.6723V23.8809H110.082V3.37695Z" fill="white"/>
</mask>
<g mask="url(#mask13_4212_10477)">
<path d="M99.6723 23.8809V3.37695H102.054V21.8402H110.082V23.877L99.6723 23.8809Z" fill="#3F3A39"/>
</g>
</g>
<defs>
<clipPath id="clip0_4212_10477">
<rect width="110.097" height="43.4999" fill="white" transform="translate(0.903076 0.25)"/>
</clipPath>
</defs>
</svg>
