<svg width="221" height="80" viewBox="0 0 221 80" fill="none" xmlns="http://www.w3.org/2000/svg">
<path d="M4.79364 78.3101H4.89364V78.2101V64.565H19.4503V78.2101V78.3101H19.5503H22.9523H23.0523V78.2101V49.0084V48.9084H22.9523H19.5503H19.4503V49.0084V61.4571H4.89364V49.0084V48.9084H4.79364H1.3916H1.2916V49.0084V78.2101V78.3101H1.3916H4.79364Z" fill="#02205F" stroke="#02205F" stroke-width="0.2"/>
<path d="M38.2136 48.9084H38.1431L38.1194 48.9747L27.6871 78.1765L27.6393 78.3101H27.7812H31.3225H31.3934L31.4169 78.2432L33.7861 71.4812H46.2861L48.6035 78.2425L48.6266 78.3101H48.6981H52.1871H52.329L52.2813 78.1765L41.849 48.9747L41.8253 48.9084H41.7548H38.2136ZM45.1909 68.4257H34.7597L39.9541 53.1514L45.1909 68.4257Z" fill="#02205F" stroke="#02205F" stroke-width="0.2"/>
<path d="M56.6045 73.6726L55.1639 75.7087H54.8596L55.1439 75.8926C58.1934 77.8658 61.2399 78.8603 64.2993 78.8603C66.7366 78.8603 68.8118 78.2176 70.5193 76.9455L70.5195 76.9454C72.5994 75.3886 73.6396 73.245 73.6396 70.5429C73.6396 68.1887 72.9008 66.2583 71.4266 64.7787C69.9582 63.2962 67.4099 61.8667 63.7868 60.4856L63.7863 60.4855C60.6124 59.2931 59.0744 57.6843 59.0744 55.6888C59.0744 54.4012 59.582 53.3835 60.5998 52.6344C61.6214 51.8825 63.0078 51.5011 64.7692 51.5011C66.9282 51.5011 68.9567 52.0037 70.8388 53.0088L70.9155 53.0498L70.9667 52.9795L72.4807 50.9011L72.5416 50.8175L72.4559 50.7595C70.0813 49.1501 67.4428 48.3408 64.543 48.3408C61.8904 48.3408 59.7441 48.9824 58.0954 50.2566L58.0949 50.257C56.2955 51.6646 55.3941 53.5189 55.3941 55.8285C55.3941 57.769 56.1105 59.4108 57.5401 60.7482C58.9647 62.0809 61.2598 63.2916 64.4234 64.3675C66.2668 65.0103 67.6399 65.8411 68.5515 66.8548C69.4612 67.8665 69.9158 69.0651 69.9158 70.4556C69.9158 72.0905 69.377 73.3435 68.2991 74.2294C67.2174 75.1185 65.7286 75.569 63.8121 75.569C61.3156 75.569 58.9575 74.9276 56.7361 73.6438L56.6571 73.5981L56.6045 73.6726Z" fill="#02205F" stroke="#02205F" stroke-width="0.2"/>
<path d="M83.7667 49.0084V48.9084H83.6667H80.2646H80.1646V49.0084V78.2101V78.3101H80.2646H83.6667H83.7667V78.2101V49.0084Z" fill="#02205F" stroke="#02205F" stroke-width="0.2"/>
<path d="M91.8414 78.2101V78.3101H91.9414H106.785H106.885V78.2101V75.3021V75.2021H106.785H95.4434V49.0084V48.9084H95.3434H91.9414H91.8414V49.0084V78.2101Z" fill="#02205F" stroke="#02205F" stroke-width="0.2"/>
<path d="M121.125 48.9084H121.054L121.031 48.9747L110.598 78.1765L110.55 78.3101H110.692H114.234H114.305L114.328 78.2432L116.697 71.4812H129.197L131.515 78.2425L131.538 78.3101H131.609H135.098H135.24L135.192 78.1765L124.76 48.9747L124.736 48.9084H124.666H121.125ZM128.111 68.4257H117.68L122.874 53.1514L128.111 68.4257Z" fill="#02205F" stroke="#02205F" stroke-width="0.2"/>
<path d="M22.7087 27.636H22.4677L22.4733 27.6416C20.9119 27.6012 19.748 27.1687 18.9641 26.3598C18.1393 25.5087 17.7187 24.2239 17.7187 22.4877V8.09641V7.93104L17.5722 8.00785L14.4921 9.62339L14.4386 9.65147V9.71194V11.9858C13.0993 10.8911 11.4601 10.3455 9.52689 10.3455C7.29921 10.3455 5.41082 11.1332 3.8948 12.7254C2.15962 14.5289 1.2916 16.922 1.2916 19.8941C1.2916 22.4355 1.94031 24.5625 3.24358 26.277L3.2438 26.2773C4.79511 28.3031 6.90468 29.3118 9.5704 29.3118C11.8815 29.3118 13.8328 28.5049 15.4263 26.8928C16.073 28.139 16.9568 29.0821 18.0795 29.718C19.2387 30.3746 20.6466 30.7003 22.2997 30.7003H24.2748H24.3748V30.6003V27.736V27.636H24.2748H22.7087ZM14.4386 15.7403V22.5663C14.4386 22.9042 14.4722 23.3408 14.5305 23.8738C13.2288 25.5857 11.6118 26.4309 9.66611 26.4309C8.12984 26.4309 6.89694 25.8417 5.95035 24.6692C5.00295 23.4956 4.5282 21.8871 4.5282 19.9378C4.5282 17.9894 5.00252 16.4058 5.95164 15.1786L5.95191 15.1782C6.89043 13.9537 8.11423 13.3486 9.6139 13.3486C11.5059 13.3486 13.1097 14.1393 14.4386 15.7403ZM6.56431 2.59489C6.56431 3.25609 6.7268 3.77026 7.06696 4.11872C7.40754 4.46762 7.90973 4.63353 8.5524 4.63353C9.16599 4.63353 9.64496 4.46684 9.96898 4.1168C10.2917 3.76821 10.4448 3.25477 10.4448 2.59489C10.4448 1.96737 10.3099 1.47643 9.99432 1.14312C9.6777 0.808683 9.19777 0.652319 8.5524 0.652319C7.90946 0.652319 7.40714 0.792196 7.06632 1.1165C6.72448 1.44178 6.56431 1.93411 6.56431 2.59489ZM11.8022 2.59489C11.8022 3.25609 11.9647 3.77026 12.3049 4.11872C12.6455 4.46762 13.1476 4.63353 13.7903 4.63353C14.4039 4.63353 14.8829 4.46684 15.2069 4.1168C15.5296 3.76821 15.6827 3.25477 15.6827 2.59489C15.6827 1.96737 15.5478 1.47643 15.2322 1.14312C14.9156 0.808683 14.4357 0.652319 13.7903 0.652319C13.1474 0.652319 12.645 0.792196 12.3042 1.1165C11.9624 1.44178 11.8022 1.93411 11.8022 2.59489Z" fill="#02205F" stroke="#02205F" stroke-width="0.2"/>
<path d="M23.2535 30.5914V30.6914H23.3535H29.6007H29.7007V30.5914V27.7271V27.6271H29.6007H23.3535H23.2535V27.7271V30.5914Z" fill="#02205F" stroke="#02205F" stroke-width="0.2"/>
<path d="M28.5865 30.5914V30.6914H28.6865H34.9337H35.0337V30.5914V27.7271V27.6271H34.9337H28.6865H28.5865V27.7271V30.5914Z" fill="#02205F" stroke="#02205F" stroke-width="0.2"/>
<path d="M50.3813 27.7353V27.6353H50.2813H48.6717C47.0045 27.6353 45.7712 27.201 44.9534 26.3506C44.135 25.4995 43.7165 24.2146 43.7165 22.4782V0.847656V0.682285L43.57 0.759098L40.4899 2.37462L40.4364 2.40271V2.46318V22.2949C40.4364 24.0923 40.0026 25.4231 39.1538 26.3047C38.3056 27.1857 37.0265 27.6353 35.2985 27.6353H34.0107H33.9107V27.7353V30.5995V30.6995H34.0107H35.6204C38.4127 30.6995 40.5408 29.7555 42.0051 27.8593C43.4112 29.756 45.5148 30.6995 48.3062 30.6995H50.2813H50.3813V30.5995V27.7353Z" fill="#02205F" stroke="#02205F" stroke-width="0.2"/>
<path d="M65.8781 27.7359V27.6359H65.7781H64.1771C62.51 27.6359 61.2766 27.2016 60.4589 26.3512C59.6405 25.5002 59.2219 24.2153 59.2219 22.4789V10.8558V10.6905L59.0755 10.7673L55.9954 12.3828L55.9418 12.4109V12.4714V22.4789C55.9418 24.2153 55.5233 25.5002 54.7048 26.3512C53.8871 27.2016 52.6537 27.6359 50.9866 27.6359H49.377H49.277V27.7359V30.6002V30.7002H49.377H51.352C54.0508 30.7002 56.1347 29.7896 57.5974 27.953C58.9945 29.7905 61.0716 30.7002 63.803 30.7002H65.7781H65.8781V30.6002V27.7359ZM55.672 37.333C55.672 36.6854 55.5163 36.1821 55.1859 35.8411C54.855 35.4995 54.3655 35.338 53.7361 35.338C53.1066 35.338 52.6172 35.4995 52.2863 35.8411C51.9559 36.1821 51.8002 36.6854 51.8002 37.333C51.8002 37.9806 51.9559 38.4839 52.2863 38.8249C52.6172 39.1665 53.1066 39.328 53.7361 39.328C54.3655 39.328 54.855 39.1665 55.1859 38.8249C55.5163 38.4839 55.672 37.9806 55.672 37.333ZM60.9099 37.333C60.9099 36.6854 60.7542 36.1821 60.4238 35.8411C60.0929 35.4995 59.6035 35.338 58.974 35.338C58.3445 35.338 57.8551 35.4995 57.5242 35.8411C57.1938 36.1821 57.0381 36.6854 57.0381 37.333C57.0381 37.9809 57.1962 38.4842 57.5276 38.825C57.8595 39.1664 58.3487 39.328 58.974 39.328C59.5993 39.328 60.0885 39.1664 60.4204 38.825C60.7518 38.4842 60.9099 37.9809 60.9099 37.333Z" fill="#02205F" stroke="#02205F" stroke-width="0.2"/>
<path d="M112.524 27.7359V27.6359H112.424H110.823C109.156 27.6359 107.922 27.2079 107.104 26.3714C106.286 25.5344 105.868 24.2716 105.868 22.5662V21.3698C105.868 18.3715 105 15.8327 103.269 13.7865L103.269 13.7862C101.229 11.395 98.4677 10.1969 95.0137 10.1969C90.7266 10.1969 86.9939 12.0023 83.8192 15.5837L83.8189 15.584C81.0068 18.7809 79.0327 22.7287 77.8946 27.433C76.8464 27.1837 76.0623 26.6584 75.5343 25.861C74.9887 25.037 74.7102 23.9124 74.7102 22.4789V14.2179V14.0525L74.5637 14.1293L71.4836 15.7448L71.4301 15.7729V15.8334V22.4789C71.4301 24.2152 71.0115 25.5001 70.1931 26.3512C69.3754 27.2016 68.142 27.6359 66.4749 27.6359H64.8652H64.7652V27.7359V30.6002V30.7002H64.8652H66.8403C69.5391 30.7002 71.623 29.7896 73.0856 27.9529C74.4827 29.7905 76.5599 30.7002 79.2912 30.7002H97.9981C100.753 30.7002 102.847 29.7916 104.245 27.9554C105.642 29.7914 107.719 30.7002 110.449 30.7002H112.424H112.524V30.6002V27.7359ZM100.173 15.2148L100.173 15.2154C101.778 16.7657 102.579 18.8079 102.579 21.3698V22.2955C102.579 24.0945 102.173 25.4261 101.377 26.3077C100.583 27.1873 99.3851 27.6359 97.7631 27.6359H80.842C81.9086 23.9217 83.483 20.7983 85.5634 18.2548C88.3421 14.8926 91.5003 13.2176 95.0485 13.2176C97.1043 13.2176 98.8185 13.8814 100.173 15.2148Z" fill="#02205F" stroke="#02205F" stroke-width="0.2"/>
<path d="M111.401 30.5915V30.6915H111.501H111.51H116.608C124.511 30.6915 130.719 27.8065 135.211 22.0251L135.232 21.998V21.9637V20.0688V20.0435L135.22 20.0212C131.689 13.4846 127.495 10.1883 122.629 10.1883H122.534C119.777 10.1883 117.134 11.4533 114.606 13.9547L114.577 13.9841V14.0258V17.0735V17.3269L114.75 17.1418C117.244 14.4731 119.795 13.1565 122.394 13.1565C126.189 13.1565 129.449 15.7085 132.159 20.8858C128.443 25.3753 123.284 27.6272 116.652 27.6272H111.501H111.401V27.7272V30.5915Z" fill="#02205F" stroke="#02205F" stroke-width="0.2"/>
<path d="M157.417 1.37933L189.492 39.9452L157.417 78.5022V1.37933Z" fill="#007B8D"/>
<path d="M157.417 1.37933L173.744 21.0095L157.417 40.6397V1.37933Z" fill="#00B3B5"/>
<path d="M157.417 39.2419L173.744 58.8721L157.417 78.5023V39.2419Z" fill="#00B3B5"/>
<path d="M173.744 58.7842L158.065 39.9452L173.744 21.0975V58.7842Z" fill="#0099B0"/>
<path d="M220.224 78.5022L188.14 39.9451L220.224 1.37933V78.5022Z" fill="#007B8D"/>
<path d="M220.224 78.5023L203.889 58.8721L220.224 39.2508V78.5023Z" fill="#00B3B5"/>
<path d="M203.889 21.1061L219.567 39.9451L203.889 58.7841V21.1061Z" fill="#0099B0"/>
<path d="M220.224 40.6396L203.889 21.0095L220.224 1.37933V40.6396Z" fill="#00B3B5"/>
</svg>
