<svg xmlns="http://www.w3.org/2000/svg" xmlns:xlink="http://www.w3.org/1999/xlink" viewBox="0 0 100.06 32.33"><defs><linearGradient id="linear-gradient" x1="-363.39" y1="304.94" x2="-362.9" y2="304.94" gradientTransform="matrix(44.33, 0, 0, -28.28, 16116.16, 8634.39)" gradientUnits="userSpaceOnUse"><stop offset="0" stop-color="#8490be"></stop><stop offset="0.27" stop-color="#3e5399"></stop><stop offset="1" stop-color="#293780"></stop></linearGradient><linearGradient id="linear-gradient-2" x1="-361.66" y1="310.35" x2="-361.66" y2="310.01" gradientTransform="matrix(34.41, 0, 0, -65.62, 12473.28, 20359.51)" gradientUnits="userSpaceOnUse"><stop offset="0" stop-color="#8490be"></stop><stop offset="0.49" stop-color="#3e5399"></stop><stop offset="1" stop-color="#293780"></stop></linearGradient><linearGradient id="linear-gradient-3" x1="-364.53" y1="306.02" x2="-365.11" y2="306.02" gradientTransform="matrix(62.44, 0, 0, -25.57, 22789.24, 7851.71)" gradientUnits="userSpaceOnUse"><stop offset="0" stop-color="#49b4ac"></stop><stop offset="0.18" stop-color="#52b8b2"></stop><stop offset="0.51" stop-color="#74c5bf"></stop><stop offset="0.94" stop-color="#a7dbd7"></stop><stop offset="1" stop-color="#afdeda"></stop></linearGradient><linearGradient id="linear-gradient-4" x1="-363.45" y1="309.58" x2="-362.91" y2="309.58" gradientTransform="matrix(52.19, 0, 0, -57.7, 18947.43, 17877.21)" gradientUnits="userSpaceOnUse"><stop offset="0" stop-color="#c4cce8"></stop><stop offset="0.31" stop-color="#7081bf"></stop><stop offset="1" stop-color="#4e66af"></stop></linearGradient><linearGradient id="linear-gradient-5" x1="-364.81" y1="310.85" x2="-365.22" y2="310.85" gradientTransform="matrix(74.87, 0, 0, -87.71, 27333.92, 27273.64)" gradientUnits="userSpaceOnUse"><stop offset="0" stop-color="#c4cce8"></stop><stop offset="0.49" stop-color="#7081bf"></stop><stop offset="1" stop-color="#4e66af"></stop></linearGradient><linearGradient id="linear-gradient-6" x1="-365.74" y1="311.31" x2="-365.74" y2="311.54" gradientTransform="matrix(82.57, 0, 0, -93.74, 30218.08, 29217.17)" gradientUnits="userSpaceOnUse"><stop offset="0" stop-color="#49b4ac"></stop><stop offset="1" stop-color="#afdeda"></stop></linearGradient><linearGradient id="linear-gradient-7" x1="-365.56" y1="311.3" x2="-365.96" y2="311.3" gradientTransform="matrix(75.44, 0, 0, -95.05, 27618.43, 29606.59)" xlink:href="#linear-gradient-6"></linearGradient><linearGradient id="linear-gradient-8" x1="-361.78" y1="311.52" x2="-361.78" y2="311.82" gradientTransform="matrix(42.93, 0, 0, -100.57, 15543.06, 31353.52)" xlink:href="#linear-gradient-6"></linearGradient><linearGradient id="linear-gradient-9" x1="-363.93" y1="311.83" x2="-363.93" y2="311.53" gradientTransform="matrix(60.66, 0, 0, -102.85, 22083.59, 32069.46)" xlink:href="#linear-gradient-5"></linearGradient><linearGradient id="linear-gradient-10" x1="-365.16" y1="307.74" x2="-364.83" y2="307.74" gradientTransform="matrix(67.96, 0, 0, -40.03, 24829.42, 12330.79)" xlink:href="#linear-gradient-2"></linearGradient><linearGradient id="linear-gradient-11" x1="-364.46" y1="309.12" x2="-365.02" y2="309.12" gradientTransform="matrix(59.13, 0, 0, -54.29, 21592.58, 16793.34)" xlink:href="#linear-gradient-2"></linearGradient></defs><g id="Layer_2" data-name="Layer 2"><g id="Layer_1-2" data-name="Layer 1"><path d="M77.48,13.74h-.26a6,6,0,0,1-.78,0,2.07,2.07,0,0,1-.71-.32,2,2,0,0,1-.86-1.73,2,2,0,0,1,.64-1.49,2.42,2.42,0,0,1,1.7-.55h1.23v.93h-.93a6.08,6.08,0,0,0-.91.05,1.06,1.06,0,0,0-.46.28,1,1,0,0,0-.33.8,1,1,0,0,0,.45.94,1,1,0,0,0,.49.18h1.69v.7A3.21,3.21,0,0,1,78,15.25a2.39,2.39,0,0,1-1,.9,2.84,2.84,0,0,1-1.37.34,2.66,2.66,0,0,1-2-.84,2.43,2.43,0,0,1-.56-.93A4.3,4.3,0,0,1,73,13.39V12.16h.92V13.3a2.7,2.7,0,0,0,.38,1.51,1.62,1.62,0,0,0,1.42.81,1.73,1.73,0,0,0,1.48-.81A2.15,2.15,0,0,0,77.48,13.74Zm-.72,3.56A2.14,2.14,0,0,1,74.7,17l-.14-.12a.48.48,0,0,1-.2-.25s.18,0,.45.12a2.84,2.84,0,0,0,1.5.06c.54-.29.86-.39,1-.3l0,0a.41.41,0,0,1-.07.38l-.05.06A1.15,1.15,0,0,1,76.76,17.3Z" style="fill:#49b4ac"></path><path d="M82.53,9.59H81.32l-.41,0h-.12l-.17,0-.07,0a1.93,1.93,0,0,0-1.53,2,2,2,0,0,0,.85,1.73,1.74,1.74,0,0,0,.47.24h0a1.34,1.34,0,0,0,.26.09,6.19,6.19,0,0,0,.81,0h.23a3.12,3.12,0,0,1,.06.49,2.74,2.74,0,0,1-1,2.11h.1a2.43,2.43,0,0,0,1.75-2.5V9.59Zm-1.45,3.15Q80,12.65,80,11.69v-.06a1.35,1.35,0,0,1,.07-.4.92.92,0,0,1,.41-.48l.1-.06a2,2,0,0,1,.29-.11h0a1.91,1.91,0,0,1,.43,0h.35v2.2Z" style="fill:#49b4ac"></path><path d="M83.18,7.62h.92v6.12h-.92Z" style="fill:#49b4ac"></path><path d="M84.7,12.8h1.67a1.49,1.49,0,0,0,.84-.19,1.12,1.12,0,0,0,.46-.94,1,1,0,0,0-.34-.81,1.27,1.27,0,0,0-.88-.32H85.31V9.61h1a2.41,2.41,0,0,1,1.69.55,2,2,0,0,1,.63,1.49,2,2,0,0,1-.84,1.73,1.8,1.8,0,0,1-.74.32,5.93,5.93,0,0,1-.79,0H84.7Z" style="fill:#49b4ac"></path><path d="M92.59,9.59H91.38l-.41,0h-.12l-.17,0s0,0-.06,0a2.08,2.08,0,0,0-.69,3.68,1.74,1.74,0,0,0,.47.24h0a1.34,1.34,0,0,0,.26.09,6.31,6.31,0,0,0,.81,0h.23a3.12,3.12,0,0,1,.06.49,2.74,2.74,0,0,1-1,2.11h.1a2.43,2.43,0,0,0,1.75-2.5V9.59Zm-1.45,3.15q-1.08-.09-1.08-1.05v-.06a1.35,1.35,0,0,1,.07-.4.92.92,0,0,1,.41-.48l.1-.06a2,2,0,0,1,.29-.11h0a1.91,1.91,0,0,1,.43,0h.35v2.2Z" style="fill:#49b4ac"></path><path d="M93.24,7.62h.92v6.12h-.92Z" style="fill:#49b4ac"></path><path d="M55.22,10.57a4.22,4.22,0,0,0-2.6.82,3.22,3.22,0,0,0-1.46,2c0,.18.08.28.23.28a1,1,0,0,0,.49-.2,2.92,2.92,0,0,1,1.45-.38c1.05,0,2,.61,2,2.63,0,3.75-1.88,8.06-4.38,8.06-1.33,0-2.35-1.33-2.35-4.39,0-6.2,2.81-9.67,6.1-9.67.63,0,1,.05,1.22.05s.33-.1.33-.25c0-.39-.71-.74-2.32-.74-4,0-9.77,3.24-9.77,11,0,4.15,2.53,6.22,5.84,6.22,4.7,0,8.57-5.79,8.57-11.35C58.53,11.87,57.13,10.57,55.22,10.57Z" style="fill:#3e5399"></path><path d="M92.06,17.69a1.43,1.43,0,0,0-1.53,1.45c0,.9.76,1,.76,1.74,0,1.38-.89,3-2,3a.85.85,0,0,1-.9-.95c0-1.55.82-3.41.82-4.54,0-.43-.31-.66-.87-.66-1.48,0-2.83.38-2.83.94,0,.34.18.39.18.82A8.16,8.16,0,0,1,85,22.66a1.82,1.82,0,0,1-1.5,1.18c-.49,0-.74-.44-.74-.95,0-1.63.87-3.41.87-4.54,0-.43-.31-.66-.87-.66-1.48,0-2.83.38-2.83.94,0,.34.15.39.15.82,0,1-.65,2.25-.81,3.68l-.05.05c-.33.33-.54.53-1,.53a.93.93,0,0,1-.87-1.05c0-2,.9-4,.9-4.59a.34.34,0,0,0-.39-.38c-.58,0-1.68.49-2.11.49a7,7,0,0,0-2.15-.49,4.84,4.84,0,0,0-5.17,5.1c0,.12,0,.23,0,.34l0,.05c-.33.33-.53.53-1,.53a.93.93,0,0,1-.86-1.05c0-3.08,2.14-7.49,2.14-9.76a1.91,1.91,0,0,0-2.17-2c-1.45,0-2.8.84-2.8,1.37,0,.21.13.31.38.31.53,0,1,.41,1,1.25a17.81,17.81,0,0,1-.74,4.28,4,4,0,0,0-1.86-.43,4.86,4.86,0,0,0-4.85,5.13c0,1.89,1,3,2.76,3a5,5,0,0,0,3.16-1.28,2,2,0,0,0,2,1.28,4.15,4.15,0,0,0,3.15-1.58,2.55,2.55,0,0,0,2.46,1.58,5,5,0,0,0,3.21-1.36,2.05,2.05,0,0,0,2,1.36,4.08,4.08,0,0,0,3-1.39,2.16,2.16,0,0,0,2.21,1.39,5.38,5.38,0,0,0,3.85-1.71,3.29,3.29,0,0,0,3,1.71c3.32,0,5.23-3.8,5.23-6.23C93.64,18.35,93.08,17.69,92.06,17.69Zm-28.92,5.2c-.33.8-.84,1.23-1.32,1.23S61,23.71,61,23.07c0-1.4.59-4.26,2-4.26.53,0,.81.28.81.74A10.7,10.7,0,0,1,63.14,22.89Zm10.82,0c-.34.77-.85,1.2-1.33,1.2s-.87-.53-.87-1.2c0-1.4.64-4.08,2.09-4.08a.67.67,0,0,1,.77.74A10.75,10.75,0,0,1,74,22.89Z" style="fill:#3e5399"></path><path d="M99.7,22.92c-.15,0-.25.08-.43.26-.33.33-.53.53-1,.53s-.84-.38-.84-1.05c0-1.68.82-3.29.82-4.31,0-.43-.31-.66-.87-.66-1.48,0-2.83.38-2.83.94,0,.34.15.39.15.82,0,.92-.84,2.58-.84,4.21,0,1.17.84,2.12,2.52,2.12a4.15,4.15,0,0,0,3.24-1.69c.26-.33.41-.53.41-.81A.36.36,0,0,0,99.7,22.92Z" style="fill:#3e5399"></path><path d="M96.82,16.34a2.18,2.18,0,0,0,1.89-2.12,1.31,1.31,0,0,0-1.43-1.35A2.14,2.14,0,0,0,95.4,15,1.39,1.39,0,0,0,96.82,16.34Z" style="fill:#3e5399"></path><g id="Group_2657" data-name="Group 2657"><g id="Group_2656" data-name="Group 2656"><path id="Path_137" data-name="Path 137" d="M19.14,10.23c2.57-1.74,6.62-.35,8.34.9a2.64,2.64,0,0,1,1.8,2.29c.11-6.12-6.43-9.29-10.14-3.19Z" style="fill-rule:evenodd;fill:url(#linear-gradient)"></path><path id="Path_138" data-name="Path 138" d="M28.79,16.47a14,14,0,0,1-3.18,4.44c3.5-1.77,7.13-6.12,7.8-9.81a6.28,6.28,0,0,0-1.66-5.2,6.2,6.2,0,0,1-.5,5.09c-.7,1.6-1.59,3.92-2.46,5.48Z" style="fill-rule:evenodd;fill:url(#linear-gradient-2)"></path><path id="Path_139" data-name="Path 139" d="M12.45,22.47c3.48,4.48,9.67,8.69,14.29,3.38-1.85.68-3,1.24-5.12.64a29.46,29.46,0,0,1-4.87-1.61,7.78,7.78,0,0,1-4.3-2.41Z" style="fill-rule:evenodd;fill:url(#linear-gradient-3)"></path><path id="Path_140" data-name="Path 140" d="M2.94,20.07c-.7-3.69.35-8.35,3.43-10.34a7.36,7.36,0,0,1,4.69-.54,2.19,2.19,0,0,1,2.46,1.91c.55-5-5.43-4.74-8.09-3.4-3.94,2-4.94,8.17-2.49,12.37Z" style="fill-rule:evenodd;fill:url(#linear-gradient-4)"></path><path id="Path_141" data-name="Path 141" d="M13.53,11.18a2.68,2.68,0,0,1-1,2.52c5.08-1.2,5.95-7.6,2.87-11.2C12.6-.72,7.64-.6,4.29,1.56.33,4.1-.64,9.07.37,13.78a22,22,0,0,0,2.57,6.29c-2.22-3.95-.94-9.72,3-11.7C8.63,7,13,7.69,13.53,11.18Z" style="fill-rule:evenodd;fill:url(#linear-gradient-5)"></path><path id="Path_142" data-name="Path 142" d="M26.74,25.85c-4.28,4.93-10.6.28-14.29-3.38-2.59-2.58-5.36-7.93-3.59-11.6-3.22,4.9,1.73,19.85,7.29,21.34a6.08,6.08,0,0,0,4.38-.87,25.1,25.1,0,0,0,6.21-5.49Z" style="fill-rule:evenodd;fill:url(#linear-gradient-6)"></path><path id="Path_143" data-name="Path 143" d="M31.75,5.9A5.15,5.15,0,0,1,33,10.54c-.87,4.73-6.45,9.94-9.71,12.24-2.24,1.6-4.38,2.43-6.49,2.1a14.45,14.45,0,0,0,4.36,2.54,5.45,5.45,0,0,0,5.63-1.57c3.49-4.06,6.6-9.33,7.18-13.3A7.41,7.41,0,0,0,31.75,5.9Z" style="fill-rule:evenodd;fill:url(#linear-gradient-7)"></path><path id="Path_144" data-name="Path 144" d="M16.15,32.21C10.73,30.6,6.33,15.37,9,10.67A2.88,2.88,0,0,1,11,9.2a3.74,3.74,0,0,0-4,2.64C6,14.51,6.23,18.36,7,21c1.54,5.24,5.86,10.55,9.16,11.25Z" style="fill-rule:evenodd;fill:url(#linear-gradient-8)"></path><path id="Path_145" data-name="Path 145" d="M16.15,32.21c-3.3-.7-6.61-6.09-8.14-11.34-.76-2.6-1.33-6-.24-8.67a4.44,4.44,0,0,1,3.29-3,5.36,5.36,0,0,0-4.69,0c-3.8,1.9-5,7.06-3.44,10.84,2.8,4.86,7.26,9.45,11.55,11.54a7.09,7.09,0,0,0,1.67.6Z" style="fill-rule:evenodd;fill:url(#linear-gradient-9)"></path><path id="Path_146" data-name="Path 146" d="M27.48,11.12c-1.75-2.65-6.44-4-8.34-.89a15.39,15.39,0,0,1-1.39,2c-1.48,1.75-3.53,2.83-5.83,2.13,1.6,3.91,6,4.08,8.94,1.61a48.47,48.47,0,0,0,3.69-3.79,3,3,0,0,1,2.93-1.05Z" style="fill-rule:evenodd;fill:url(#linear-gradient-10)"></path><path id="Path_147" data-name="Path 147" d="M28.79,16.47a19.78,19.78,0,0,0,3.14-4.72c.81-1.85,1.22-4.18-.18-5.85-3-2.83-8.4-2.78-11.68,2.76-.3.51-.61,1-.93,1.57,2.92-4.77,9.64-2,10.14,3.19a3.7,3.7,0,0,1,0,1.15,7.38,7.38,0,0,1-.49,1.9Z" style="fill-rule:evenodd;fill:url(#linear-gradient-11)"></path></g></g></g></g></svg>