<svg width="65" height="86" viewBox="0 0 65 86" fill="none" xmlns="http://www.w3.org/2000/svg">
<path d="M45.7983 54.5327C46.9509 54.4199 48.0396 54.0978 49.1202 53.7398C52.4224 52.6462 55.2064 50.7498 57.5049 48.1702C59.04 46.4471 60.2824 44.5295 61.0654 42.3226C61.4022 41.3744 61.7864 40.4344 61.9842 39.4552C62.2539 38.1065 62.4877 36.7448 62.4828 35.3552C62.4713 32.429 62.4795 29.5028 62.4877 26.5765C62.491 25.6087 62.5073 24.6393 62.5465 23.6716C62.5645 23.24 62.4174 23.0994 61.9825 23.1026C60.1173 23.1223 58.252 23.0994 56.3867 23.1206C55.9699 23.1255 55.8391 22.9997 55.8701 22.5926C55.9045 22.1561 55.9028 21.7131 55.8734 21.2766C55.8456 20.8794 56.0058 20.7895 56.3769 20.7911C59.0465 20.8042 61.7177 20.8058 64.3873 20.7878C64.7911 20.7845 64.8695 20.9333 64.8679 21.2979C64.8532 25.6872 64.8597 30.0766 64.845 34.4659C64.8352 37.8564 64.2581 41.1276 62.8179 44.2287C60.8431 48.484 57.8319 51.7863 53.7891 54.1485C51.2421 55.6378 48.499 56.5565 45.5662 56.926C44.4219 57.0698 43.2759 57.0911 42.1283 57.1369C41.6738 57.1548 41.5937 57.0044 41.5937 56.5843C41.6052 50.3477 41.6182 44.111 41.5872 37.8744C41.5708 34.7798 40.8564 31.8127 39.6892 28.9551C38.4615 25.9504 36.7287 23.2645 34.5021 20.9039C34.2847 20.6734 34.2013 20.5393 34.5283 20.3317C34.9288 20.0783 35.3129 19.7939 35.6677 19.4816C35.993 19.1956 36.2039 19.2593 36.4769 19.5617C38.1656 21.4483 39.6206 23.4934 40.7862 25.7444C42.2313 28.535 43.168 31.4923 43.6633 34.5869C43.8824 35.9519 43.9968 37.3382 44.0034 38.7229C44.0214 43.1498 44.0115 47.5751 44.0164 52.0021C44.0164 52.1574 43.9167 52.3813 44.0802 52.4549C44.2829 52.5464 44.3941 52.3127 44.4938 52.1802C46.8675 49.0431 48.7475 45.6412 50.0324 41.9155C50.9184 39.3441 51.5282 36.7154 51.8159 34.0065C51.9614 32.6431 52.0268 31.2798 52.0268 29.9115C52.0219 24.4056 52.0186 18.9013 52.0382 13.3954C52.0399 12.8919 51.9009 12.7431 51.3991 12.7578C49.9915 12.7971 48.5758 12.699 47.1765 12.8134C44.314 13.0456 41.5463 13.7191 38.8947 14.8553C35.5369 16.2955 32.6107 18.3504 30.1455 21.033C27.0149 24.4415 24.8701 28.3944 23.832 32.9227C23.3955 34.8272 23.1568 36.7546 23.1601 38.7147C23.1715 44.6047 23.1568 50.4932 23.1781 56.3832C23.1797 56.9309 23.0162 57.0355 22.5029 57.0355C17.2962 57.0322 12.5815 55.5397 8.46681 52.3306C4.37825 49.1428 1.76917 44.9775 0.552904 39.9408C0.185082 38.4139 0.00198525 36.8625 0.00362002 35.2898C0.00688955 30.7174 0.000352079 26.145 0.00525638 21.5725C0.00525638 20.6832 -0.115716 20.8042 0.803023 20.8025C3.27152 20.7976 5.74165 20.8156 8.21015 20.7878C8.70712 20.7829 8.85915 20.9284 8.80848 21.4041C8.77251 21.7474 8.76924 22.1022 8.80848 22.4455C8.86733 22.9572 8.7202 23.1402 8.16438 23.1272C6.42826 23.0879 4.68886 23.1288 2.95274 23.1043C2.47375 23.0977 2.2972 23.1958 2.30047 23.7255C2.32499 27.7307 2.24489 31.7375 2.3348 35.741C2.42471 39.7495 3.75051 43.3754 6.12582 46.6106C7.31103 48.2257 8.71366 49.6202 10.3991 50.8626C10.4105 50.6027 10.4269 50.4147 10.4269 50.2267C10.4269 37.2401 10.4269 24.2552 10.4285 11.2686C10.4285 10.3482 10.3419 10.4904 11.2198 10.4888C14.7492 10.4839 18.2787 10.4806 21.8081 10.497C22.1972 10.4986 22.3721 10.3694 22.5291 10.0196C24.481 5.6417 27.6116 2.37217 31.857 0.155427C32.2396 -0.044015 32.5404 -0.0554596 32.9246 0.143982C35.1805 1.31611 37.1815 2.79721 38.8751 4.71152C40.2679 6.28417 41.4057 8.00721 42.2444 9.92643C42.4291 10.3482 42.6547 10.5051 43.1369 10.5019C46.6844 10.4757 50.2335 10.497 53.7809 10.4741C54.3122 10.4708 54.4544 10.6228 54.4495 11.1492C54.425 14.0019 54.479 16.8562 54.4185 19.7072C54.3939 20.8548 54.2746 22.009 54.3482 23.1533C54.4806 25.218 54.4479 27.2811 54.4299 29.3442C54.3792 35.4141 53.2218 41.2404 50.5506 46.7316C49.3082 49.2851 47.8467 51.6996 46.0812 53.9262C45.952 54.088 45.7722 54.2417 45.7967 54.5359L45.7983 54.5327ZM37.631 12.7954C37.5591 12.7954 37.4888 12.7954 37.4169 12.7954C29.3706 12.7938 21.3226 12.7954 13.2763 12.7807C12.8251 12.7807 12.7368 12.9279 12.7385 13.3415C12.7499 18.1885 12.745 23.0356 12.745 27.8827C12.745 35.8391 12.7499 43.7955 12.7319 51.7519C12.7319 52.2293 12.8692 52.481 13.309 52.6462C13.8877 52.8636 14.437 53.1611 15.014 53.3834C16.5818 53.9883 18.2068 54.3725 19.8791 54.5441C20.6785 54.6259 20.8387 54.4624 20.8387 53.6483C20.8387 48.8012 20.8436 43.9541 20.8387 39.107C20.8387 37.9382 20.8338 36.766 20.9842 35.6102C21.3439 32.8589 22.0288 30.1943 23.129 27.6326C25.0957 23.0503 28.0693 19.2446 31.9862 16.1974C33.7125 14.8553 35.6317 13.7828 37.6294 12.7987L37.631 12.7954ZM39.9884 10.4839C39.7873 10.1112 39.6385 9.84142 39.4963 9.57005C37.9302 6.59314 35.5778 4.38294 32.7398 2.64518C32.511 2.50459 32.3442 2.50295 32.1006 2.64845C29.1172 4.42871 26.7566 6.79912 25.1529 9.89864C24.8521 10.479 24.8504 10.4806 25.5289 10.4806C30.116 10.4806 34.7015 10.4806 39.2887 10.4806C39.4881 10.4806 39.6876 10.4806 39.9884 10.4806V10.4839Z" fill="#B59B7A"/>
<path d="M11.3245 61.7338C14.1167 61.487 17.1525 64.3102 16.9498 67.668C16.7879 70.3605 14.2737 72.8535 11.5076 72.9548C8.34599 73.0709 5.68132 70.2019 5.67969 67.3231C5.67969 64.4671 8.28714 61.5098 11.3245 61.7354V61.7338ZM11.3066 63.604C9.26146 63.4977 7.58419 65.3254 7.58583 67.2446C7.58583 69.3894 9.22386 71.0667 11.3213 71.0667C13.35 71.0667 15.0207 69.3698 15.0485 67.3378C15.0763 65.3924 13.404 63.4994 11.3066 63.6024V63.604Z" fill="#B59B7A"/>
<path d="M43.2547 67.3434C43.2547 69.0451 43.2449 70.7453 43.2612 72.4471C43.2645 72.8198 43.1713 72.9473 42.7757 72.9457C41.3845 72.9392 41.3829 72.9555 41.3796 71.5463C41.378 70.5769 41.3698 69.6075 41.3829 68.6381C41.3878 68.3373 41.3012 68.2196 40.9824 68.2212C39.3918 68.2327 37.7995 68.2343 36.2089 68.218C35.8574 68.2147 35.7806 68.3471 35.7838 68.6675C35.7969 69.9296 35.774 71.1916 35.7969 72.4536C35.8034 72.8443 35.6825 72.9424 35.3032 72.9441C33.9169 72.9473 33.9169 72.962 33.9153 71.5986C33.9153 70.6292 33.9251 69.6598 33.9104 68.6904C33.9055 68.3945 33.9823 68.1754 34.2063 67.9695C34.7686 67.4496 35.2231 66.7025 35.8803 66.4246C36.5178 66.1549 37.3548 66.351 38.1036 66.3478C39.0174 66.3445 39.9329 66.3216 40.8467 66.3592C41.3012 66.3772 41.396 66.2137 41.3862 65.7985C41.3616 64.61 41.3911 63.4199 41.3715 62.2314C41.3649 61.862 41.4565 61.6756 41.8553 61.7328C41.9992 61.7525 42.148 61.7377 42.2935 61.7394C42.9343 61.7426 43.2542 62.0565 43.2531 62.681C43.2531 64.2357 43.2531 65.7903 43.2531 67.345L43.2547 67.3434Z" fill="#B59B7A"/>
<path d="M50.046 61.7223C51.666 61.8138 53.3041 61.5294 54.9029 61.8612C57.2014 62.337 58.8901 64.3722 59.1843 66.6887C59.6192 70.1152 56.7256 73.03 53.5051 72.9401C52.3543 72.9074 51.2018 72.9351 49.8809 72.9351C50.5544 72.2682 51.1282 71.6813 51.7298 71.1238C51.8246 71.0356 52.042 71.0764 52.2039 71.0666C52.9117 71.0241 53.6179 71.1009 54.3323 70.9702C56.1731 70.6334 57.373 69.0722 57.3665 67.3312C57.3583 65.4267 56.111 63.9815 54.2555 63.635C53.5836 63.5091 52.8692 63.5957 52.1744 63.6137C51.8736 63.6219 51.6644 63.5222 51.4568 63.3129C50.9713 62.8225 50.4596 62.3566 49.9577 61.8809C49.9871 61.8269 50.0165 61.7746 50.046 61.7207V61.7223Z" fill="#B59B7A"/>
<path d="M33.7379 72.4987C30.5223 73.7967 26.9127 72.0083 26.0692 68.5654C25.2159 65.0768 28.0064 61.7501 31.41 61.719C32.878 61.706 34.1221 62.1441 35.2321 63.0644C35.4675 63.259 35.5263 63.3996 35.2746 63.6235C34.9476 63.9145 34.6926 64.3379 34.3166 64.5096C33.8801 64.7107 33.6316 64.1597 33.2802 63.9766C31.0716 62.8209 28.2287 64.2774 27.8707 66.7198C27.5568 68.8564 28.9954 70.7936 31.2465 71.0552C31.5146 71.0862 31.7386 71.1631 31.9527 71.3037C32.5249 71.6829 33.0922 72.0671 33.7379 72.5003V72.4987Z" fill="#B59B7A"/>
<path d="M18.536 67.3298C19.1409 67.3298 19.6313 67.3364 20.1218 67.3298C21.2236 67.3102 22.0786 66.4389 22.0688 65.3812C22.0606 64.4249 21.0389 63.5176 20.0956 63.5895C19.0232 63.6712 17.9393 63.596 16.8604 63.6156C16.5253 63.6222 16.3062 63.5159 16.1476 63.2266C15.9351 62.844 15.7046 62.4713 15.4823 62.0937C15.3466 61.8648 15.3515 61.7291 15.6785 61.7308C17.3966 61.7389 19.1245 61.631 20.8329 61.7733C22.2224 61.8893 23.1968 62.8015 23.6905 64.111C24.2005 65.4629 23.9716 66.7282 23.0398 67.8464C22.7341 68.2126 22.3892 68.5445 21.9543 68.7521C21.6911 68.878 21.6813 68.994 21.8235 69.2376C22.5216 70.4326 23.1984 71.6391 23.934 72.9322C23.2229 72.9322 22.5952 72.9322 21.9658 72.9322C21.8203 72.9322 21.7287 72.8619 21.6601 72.7426C20.64 70.9737 19.6199 69.2066 18.5377 67.3298H18.536Z" fill="#B59B7A"/>
<path d="M49.3691 61.6875C50.0459 62.3676 50.6116 62.9283 51.1674 63.4988C51.2933 63.628 51.2409 63.8127 51.2409 63.9745C51.2442 66.1864 51.2377 68.3982 51.2491 70.6101C51.2491 70.9092 51.1625 71.125 50.9532 71.3326C50.453 71.8312 49.9724 72.3494 49.4852 72.8611L49.3691 72.7794V61.6875Z" fill="#B59B7A"/>
<path d="M45.4668 72.8691V61.7266C46.1305 62.3952 46.706 62.9592 47.2569 63.5461C47.3353 63.6294 47.3059 63.8256 47.3059 63.9695C47.3075 66.1829 47.3059 68.3948 47.3059 70.6083C47.3059 70.7685 47.3533 70.9483 47.2242 71.0807C46.67 71.6496 46.1109 72.2152 45.4701 72.8675L45.4668 72.8691Z" fill="#B59B7A"/>
<path d="M35.7349 81.0584C34.1819 81.0584 32.6288 81.0486 31.0775 81.0666C30.7342 81.0698 30.605 80.9979 30.6181 80.6252C30.6475 79.7865 30.6328 78.9446 30.6263 78.1044C30.6246 77.8363 30.5968 77.6319 31.0022 77.6368C31.424 77.6433 31.3619 77.8837 31.3619 78.1321C31.3619 78.7174 31.3668 79.301 31.3603 79.8862C31.357 80.1527 31.3325 80.3701 31.7346 80.3783C32.1662 80.3865 32.1302 80.1511 32.1548 79.8617C32.1727 79.6492 31.9422 79.2748 32.4605 79.2896C32.7335 79.2977 32.8692 79.3468 32.8332 79.6492C32.8119 79.829 32.8332 80.0138 32.8332 80.1969C32.8332 80.3489 32.9345 80.3587 33.0522 80.362C33.1798 80.3652 33.2631 80.3342 33.2615 80.187C33.2599 80.0219 33.2713 79.8585 33.2615 79.6933C33.2501 79.4596 33.2419 79.283 33.5835 79.2847C33.9007 79.2847 33.9072 79.4203 33.9399 79.6688C33.9694 79.8977 33.7176 80.3211 34.1198 80.3325C34.5906 80.3456 34.3192 79.8911 34.3437 79.659C34.3731 79.3925 34.4124 79.2863 34.7099 79.2863C35.0205 79.2863 35.1235 79.3746 35.1121 79.6884C35.1039 79.9059 34.9715 80.2524 35.2281 80.3227C35.5665 80.4143 35.9638 80.4012 36.3054 80.3162C36.5474 80.2557 36.4101 79.932 36.4215 79.7293C36.4346 79.4857 36.3888 79.2863 36.7697 79.283C37.1621 79.2797 37.0787 79.5037 37.1146 79.7309C37.149 79.9451 36.9152 80.2819 37.3108 80.3538C37.6558 80.4175 37.9533 80.3865 37.8912 79.8715C37.8683 79.6786 37.659 79.2977 38.1789 79.2879C38.5304 79.2814 38.6906 79.3664 38.6317 79.7359C38.6121 79.8601 38.6284 79.9909 38.6301 80.1184C38.6301 80.2361 38.6562 80.3342 38.8001 80.3489C38.9766 80.3685 39.0175 80.2557 39.0224 80.1168C39.0273 79.9713 39.042 79.8225 39.0224 79.6786C38.9815 79.3566 39.127 79.2961 39.4246 79.2863C39.7826 79.2748 39.7041 79.4874 39.7499 79.6983C39.7989 79.9206 39.5145 80.3522 39.969 80.3358C40.3924 80.3211 40.1292 79.901 40.1602 79.6737C40.1929 79.4269 40.1929 79.2879 40.5117 79.2814C40.8583 79.2748 40.8337 79.4547 40.8386 79.6852C40.8583 80.5985 40.4174 81.0551 39.5161 81.0551H35.7349V81.0584Z" fill="#16212B"/>
<path d="M46.0161 79.6319C46.2973 78.9682 46.8384 79.2052 47.2798 79.2395C47.6901 79.2706 47.9337 79.5305 47.8781 79.9817C47.8421 80.2678 47.9631 80.3888 48.2492 80.3659C48.3947 80.3544 48.5451 80.3414 48.6873 80.3675C49.1238 80.446 49.2055 80.24 49.1908 79.8526C49.1843 79.6646 48.975 79.3294 49.4524 79.2886C49.8856 79.2526 50.0131 79.4079 49.9428 79.8019C49.866 80.24 50.0082 80.3986 50.4856 80.3757C51.4354 80.3316 52.3868 80.3642 53.3382 80.3642C53.4657 80.3642 53.5965 80.3773 53.7208 80.3544C53.8564 80.3283 54.0265 80.307 53.9921 80.0945C53.9611 79.8983 53.796 79.9588 53.6881 79.9572C52.9017 79.949 52.1154 79.9588 51.3291 79.9474C51.164 79.9441 50.9155 80.0651 50.8436 79.8477C50.7733 79.6335 50.7112 79.3213 50.8812 79.1627C51.3912 78.6886 51.7885 77.9464 52.7236 78.2848C52.5094 78.6216 52.1448 78.8341 51.7738 79.197C52.3901 79.197 52.9083 79.1921 53.4281 79.197C54.1442 79.2052 54.4482 79.5027 54.4401 80.1746C54.4335 80.8122 54.1458 81.0574 53.4118 81.0574C51.0152 81.0574 48.6203 81.0574 46.2237 81.0541C46.0079 81.0541 45.7578 81.1538 45.7578 80.7386C45.7578 80.343 45.9524 80.343 46.2303 80.3593C46.4313 80.3708 46.6341 80.3479 46.8335 80.3642C47.0738 80.3822 47.2128 80.3332 47.1997 80.0455C47.1899 79.8019 47.1817 79.6074 46.8564 79.627C46.5866 79.6433 46.3136 79.6302 46.0145 79.6302L46.0161 79.6319Z" fill="#16212B"/>
<path d="M18.5141 79.3016C18.6989 78.7539 19.0977 78.8896 19.4116 78.9027C20.3287 78.9403 20.6361 79.0433 20.5347 79.9767C20.5085 80.2187 20.5347 80.3903 20.8666 80.3707C21.1396 80.3544 21.3112 80.3364 21.2981 79.9882C21.2736 79.331 21.303 78.6722 21.2851 78.015C21.2769 77.7355 21.3505 77.639 21.6447 77.6406C21.9308 77.6406 21.9668 77.7567 21.9651 77.997C21.9537 78.8929 21.952 79.7887 21.9668 80.6829C21.9717 80.9543 21.921 81.0638 21.6153 81.0622C19.0569 81.0491 16.4985 81.0524 13.9401 81.0589C13.7046 81.0589 13.569 81.0393 13.5853 80.7418C13.5984 80.49 13.6033 80.3135 13.9302 80.3544C14.1281 80.3789 14.3324 80.3544 14.5335 80.3609C14.7623 80.3691 14.9585 80.3903 14.9438 80.0421C14.9324 79.7511 14.88 79.5926 14.5498 79.6253C14.3161 79.6481 14.0774 79.6302 13.8142 79.6302C13.9826 78.9893 14.4795 79.2166 14.8473 79.21C15.2871 79.2035 15.6598 79.4095 15.6778 79.8917C15.7138 80.8023 16.3742 80.2677 16.7257 80.3347C17.2047 80.4279 16.9595 79.9718 17.0085 79.7544C17.0543 79.5484 16.9121 79.2918 17.3273 79.2819C17.7605 79.2705 17.6837 79.5223 17.682 79.7675C17.682 80.0863 17.5872 80.459 18.143 80.3691C18.3229 80.3396 18.4504 80.3462 18.4504 80.1075C18.4504 79.7773 18.6384 79.6302 18.9719 79.6236C19.3037 79.6154 19.4835 79.7609 19.5473 80.0781C19.5686 80.1843 19.4868 80.3674 19.7042 80.3495C19.8873 80.3347 19.8514 80.1762 19.8612 80.0536C19.9217 79.3817 19.853 79.3081 19.168 79.3032C18.9686 79.3032 18.7675 79.3032 18.5141 79.3032V79.3016Z" fill="#16212B"/>
<path d="M9.29033 81.0575C8.24899 81.0575 7.20764 81.0575 6.1663 81.0575C5.52056 81.0575 5.39305 80.9333 5.38488 80.3153C5.37343 79.3672 6.24803 78.8097 7.121 79.2086C7.35477 79.3148 7.206 79.529 7.24524 79.6908C7.29755 79.9066 7.11119 80.2548 7.36948 80.3219C7.70624 80.4101 8.08878 80.3562 8.44679 80.317C8.59719 80.3006 8.51709 80.0979 8.55796 79.9884C8.64787 79.7464 8.26697 79.2707 8.90453 79.2936C9.52901 79.3148 9.16446 79.7742 9.21023 80.0211C9.25437 80.2646 9.29524 80.3545 9.55844 80.3725C9.95078 80.3987 10.075 80.2614 10.057 79.8772C10.0489 79.6908 9.90991 79.4227 10.1976 79.3034C10.5377 79.1628 10.76 79.3296 10.7649 79.7137C10.7665 79.8592 10.7682 80.0063 10.7665 80.1518C10.7649 80.3202 10.8548 80.366 11.0085 80.3611C11.1491 80.3562 11.1997 80.2892 11.1981 80.16C11.1981 80.0685 11.1818 79.9737 11.203 79.887C11.2586 79.6598 10.9889 79.274 11.5447 79.2854C12.0596 79.2952 11.7948 79.65 11.8602 79.8592C11.87 79.8919 11.8586 79.9328 11.8618 79.9687C11.8831 80.1306 11.7784 80.3611 12.0891 80.3595C12.4176 80.3595 12.2705 80.1093 12.2934 79.9622C12.3147 79.82 12.3048 79.6696 12.2967 79.5241C12.282 79.2037 12.519 79.3181 12.6776 79.3001C12.8558 79.2805 12.9669 79.2936 12.9947 79.5388C13.1664 81.0019 13.1239 81.0608 11.6983 81.0575C10.894 81.0559 10.0914 81.0575 9.28706 81.0575H9.29033ZM6.51286 80.1747C6.38045 80.0717 6.67471 79.7595 6.31506 79.753C6.06494 79.7497 6.08946 79.9884 6.08619 80.1584C6.08292 80.3578 6.10744 80.6063 6.36083 80.5949C6.60605 80.5851 6.4344 80.3349 6.51286 80.1747Z" fill="#16212B"/>
<path d="M44.6773 79.4037C44.6773 79.6227 44.6888 79.8418 44.6741 80.0608C44.6544 80.3829 44.8212 80.8733 44.5972 80.9861C44.2768 81.1496 43.7194 81.197 43.4464 81.0172C43.0981 80.7867 42.9298 81.0074 42.6764 81.0417C42.3167 81.0891 41.9407 81.1022 41.6187 80.8929C41.4241 80.7654 41.3702 80.548 41.38 80.3142C41.3865 80.1883 41.465 80.1589 41.5598 80.1769C41.7544 80.2161 42.0127 80.0461 42.1369 80.3077C42.1892 80.4205 42.2056 80.5987 42.3363 80.5725C42.5113 80.5366 42.557 80.3502 42.557 80.1769C42.5587 79.4838 42.5603 78.7906 42.5603 78.0958C42.5603 77.867 42.4917 77.6446 42.8873 77.6332C43.3139 77.6218 43.2485 77.8637 43.2485 78.1138C43.2485 78.7154 43.26 79.3187 43.2436 79.9203C43.2355 80.2129 43.2567 80.3763 43.636 80.3731C44.0381 80.3698 44.0185 80.1622 44.0152 79.8908C44.0071 79.2516 44.0251 78.6124 44.0054 77.9749C43.9973 77.7051 44.0888 77.6414 44.3471 77.6397C44.6103 77.6397 44.6937 77.7149 44.6839 77.9781C44.6643 78.4522 44.679 78.9263 44.679 79.402L44.6773 79.4037Z" fill="#16212B"/>
<path d="M59.3672 39.0693C59.377 38.3784 59.7356 38.0323 60.4429 38.0312C61.196 38.0312 61.5736 38.416 61.5758 39.1854C61.5769 39.8099 61.2576 40.1227 60.6178 40.1237C60.5639 40.1237 60.5083 40.1254 60.4543 40.1237C60.0914 40.1107 59.6517 40.212 59.3966 40.0387C59.2397 39.9325 59.3672 39.4061 59.3672 39.0693Z" fill="#B59B7A"/>
<path d="M56.9688 25.5389C57.7012 25.5389 58.0674 25.9013 58.0674 26.626C58.0674 27.2799 57.7432 27.6069 57.0947 27.6069C56.286 27.6069 55.8823 27.2113 55.8834 26.42C55.8834 26.3105 55.8964 26.1993 55.8834 26.0914C55.8245 25.6697 55.9733 25.4702 56.4228 25.5356C56.6026 25.5618 56.7874 25.5405 56.9705 25.5405L56.9688 25.5389Z" fill="#B59B7A"/>
<path d="M60.4536 27.6092C59.7397 27.6092 59.3828 27.2604 59.3828 26.5629C59.3828 25.8654 59.731 25.5243 60.4274 25.5396C61.1969 25.5396 61.5816 25.8627 61.5816 26.509C61.5816 27.2424 61.2061 27.6086 60.4552 27.6075L60.4536 27.6092Z" fill="#B59B7A"/>
<path d="M56.9431 33.8682C56.2347 33.8682 55.88 33.514 55.8789 32.8056C55.8789 32.1212 56.2277 31.7784 56.9252 31.7773C57.6859 31.7773 58.0662 32.1593 58.0662 32.9233C58.0662 33.5543 57.6913 33.8693 56.9415 33.8682H56.9431Z" fill="#B59B7A"/>
<path d="M60.4824 33.8643C59.7467 33.8643 59.3789 33.4888 59.3789 32.7379C59.3789 32.096 59.7091 31.7745 60.3696 31.7734C61.1771 31.7723 61.5809 32.1838 61.5809 33.0077C61.5809 33.0992 61.5679 33.1924 61.5826 33.2807C61.6692 33.7826 61.4371 33.9346 60.9728 33.8692C60.8126 33.8463 60.6459 33.8659 60.4824 33.8659V33.8643Z" fill="#B59B7A"/>
<path d="M56.9268 46.376C56.2293 46.376 55.88 46.0207 55.8789 45.3102C55.8789 44.6268 56.2244 44.2852 56.9154 44.2852C57.6815 44.2852 58.0646 44.6045 58.0646 45.2431C58.0646 45.9995 57.6848 46.3771 56.9252 46.376H56.9268Z" fill="#B59B7A"/>
<path d="M57.0043 40.1238C56.2566 40.1238 55.8828 39.7527 55.8828 39.0105C55.8828 38.3577 56.2098 38.0312 56.8637 38.0312C57.6647 38.0312 58.0652 38.4307 58.0652 39.2295C58.0652 39.8268 57.711 40.1254 57.0026 40.1254L57.0043 40.1238Z" fill="#B59B7A"/>
<path d="M4.19516 27.6093C3.52599 27.6071 3.19141 27.2758 3.19141 26.6154C3.19141 25.9004 3.55759 25.543 4.28997 25.543C4.96458 25.543 5.30298 25.8775 5.30516 26.5467C5.30625 27.2573 4.93679 27.612 4.19679 27.6109L4.19516 27.6093Z" fill="#B59B7A"/>
<path d="M7.69611 27.607C7.03021 27.6038 6.69727 27.2714 6.69727 26.6098C6.69727 25.8949 7.064 25.538 7.79746 25.5391C8.46772 25.5391 8.80285 25.8742 8.80285 26.5444C8.80285 27.2561 8.43448 27.6103 7.69774 27.607H7.69611Z" fill="#B59B7A"/>
<path d="M4.27068 31.778C4.95946 31.778 5.3044 32.1207 5.30549 32.8062C5.30549 33.5135 4.95401 33.8672 4.25106 33.8672C3.54811 33.8672 3.19555 33.5146 3.19337 32.8095C3.19119 32.1044 3.55084 31.7605 4.27232 31.778H4.27068Z" fill="#B59B7A"/>
<path d="M4.22949 40.1238C3.53635 40.1238 3.19032 39.7832 3.19141 39.102C3.19141 38.3871 3.55814 38.0302 4.29161 38.0313C4.96622 38.0313 5.30353 38.3631 5.30353 39.0268C5.30353 39.7581 4.94551 40.1243 4.22949 40.1254V40.1238Z" fill="#B59B7A"/>
<path d="M7.78634 40.1254C7.0616 40.1254 6.69922 39.7663 6.69922 39.0481C6.69922 38.3713 7.02999 38.0323 7.69152 38.0312C8.43153 38.0312 8.80208 38.4007 8.80317 39.1396C8.80317 39.7957 8.46423 40.1243 7.78634 40.1254Z" fill="#B59B7A"/>
<path d="M7.71245 33.8666C7.03566 33.8666 6.69727 33.5331 6.69727 32.8661C6.69727 32.1413 7.06073 31.7784 7.78765 31.7773C8.46445 31.7773 8.8023 32.1114 8.80121 32.7795C8.80121 33.5042 8.43774 33.8666 7.71082 33.8666H7.71245Z" fill="#B59B7A"/>
<path d="M6.69922 45.2912C6.69922 44.6231 7.03544 44.2891 7.70787 44.2891C8.43916 44.2891 8.80426 44.6503 8.80317 45.3729C8.80208 46.0443 8.46531 46.3794 7.79288 46.3783C7.06486 46.3783 6.70031 46.0159 6.69922 45.2912Z" fill="#B59B7A"/>
<path d="M57.44 81.0683C57.4531 81.0716 57.4351 81.0651 57.4171 81.0634C56.4167 81.0242 56.1469 80.6433 56.4036 79.6559C56.469 79.4025 56.6455 79.3126 56.8597 79.2456C56.912 79.2292 56.9627 79.2112 57.0166 79.2031C58.0841 79.0314 58.1757 79.1099 58.1757 80.1806C58.1757 80.5452 58.1806 80.9081 58.1757 81.2727C58.1724 81.4607 58.2296 81.6585 57.9484 81.75C57.6918 81.8334 57.5839 81.6536 57.427 81.5539C57.1376 81.3708 57.6051 81.289 57.44 81.0683ZM57.5348 80.1594C57.4057 80.0548 57.6656 79.7785 57.3616 79.7491C57.0722 79.7213 57.0738 79.9518 57.0755 80.1627C57.0771 80.367 57.0657 80.6057 57.3452 80.6008C57.6673 80.5959 57.4417 80.3196 57.5332 80.1594H57.5348Z" fill="#16212B"/>
<path d="M28.8681 85.2247C27.9362 85.2247 27.9412 85.2247 27.933 84.252C27.9199 82.8902 27.982 83.1338 29.0626 83.1501C29.2817 83.1534 29.71 82.9262 29.7214 83.3333C29.7345 83.7975 29.2833 83.4951 29.0528 83.5736C28.8583 83.6389 28.5264 83.4575 28.4675 83.6864C28.3842 84.0084 28.3891 84.3909 28.4872 84.7081C28.5444 84.8912 28.8828 84.7637 29.0937 84.7735C29.2522 84.7817 29.2294 84.6394 29.231 84.5348C29.2375 84.2634 29.0332 84.3272 28.8811 84.3255C28.7209 84.3239 28.6555 84.2569 28.6474 84.0967C28.6376 83.8695 28.7831 83.8727 28.9335 83.8891C29.1967 83.9185 29.6119 83.7517 29.6953 83.9724C29.8211 84.3108 29.7492 84.7277 29.7345 85.1102C29.7296 85.2557 29.5726 85.2198 29.4713 85.223C29.2702 85.2279 29.0691 85.223 28.8681 85.2247Z" fill="#16212B"/>
<path d="M8.31337 84.246C8.31337 84.501 8.31173 84.7544 8.31337 85.0094C8.315 85.2203 8.17604 85.2252 8.0191 85.2301C7.83765 85.2367 7.81312 85.1386 7.81476 84.9914C7.81803 84.4814 7.81149 83.9697 7.81966 83.4597C7.8213 83.3501 7.74119 83.1752 7.93573 83.1523C8.10575 83.1327 8.29048 83.0837 8.41962 83.2896C8.6158 83.6019 8.83649 83.8994 9.12748 84.3179C9.12748 83.9125 9.13075 83.646 9.12748 83.3812C9.12584 83.2373 9.15036 83.1409 9.33182 83.1393C9.51001 83.1393 9.6032 83.1834 9.59993 83.3812C9.59339 83.8733 9.60319 84.367 9.59339 84.859C9.59012 84.9865 9.68493 85.1762 9.47078 85.2236C9.28605 85.2644 9.1193 85.2285 8.99996 85.0437C8.81851 84.7609 8.61906 84.4896 8.4278 84.2133C8.3902 84.2264 8.3526 84.2378 8.315 84.2509L8.31337 84.246Z" fill="#16212B"/>
<path d="M39.5296 84.3159C39.5296 83.8876 39.5361 83.6146 39.5279 83.3432C39.523 83.165 39.6227 83.1356 39.7666 83.134C39.9121 83.1323 40.0216 83.1617 40.0216 83.335C40.0216 83.899 40.0184 84.463 40.0216 85.027C40.0216 85.1594 39.9791 85.2216 39.8353 85.2265C39.662 85.233 39.5165 85.2101 39.4119 85.0515C39.2271 84.7704 39.0359 84.4941 38.7285 84.2342C38.7285 84.4745 38.722 84.7148 38.7302 84.9551C38.7351 85.1267 38.6942 85.2248 38.4948 85.233C38.2741 85.2412 38.2119 85.1529 38.2169 84.9453C38.2267 84.4549 38.2152 83.9628 38.2201 83.4707C38.2201 83.3399 38.1596 83.1552 38.3885 83.1405C38.5471 83.1307 38.7056 83.1029 38.8201 83.2795C39.0195 83.5917 39.2386 83.8909 39.5312 84.3159H39.5296Z" fill="#16212B"/>
<path d="M14.6788 84.264C14.6788 84.5011 14.669 84.7381 14.6821 84.9735C14.6919 85.1631 14.6183 85.2269 14.432 85.2334C14.2374 85.2384 14.1769 85.1582 14.1802 84.9784C14.1867 84.4847 14.1769 83.9927 14.19 83.499C14.1933 83.3747 14.0952 83.1818 14.3241 83.1475C14.5023 83.1213 14.6788 83.1082 14.8014 83.3061C14.9894 83.6101 15.2019 83.8978 15.4978 84.3294C15.4978 83.9338 15.5044 83.6755 15.4962 83.4189C15.4913 83.2537 15.5044 83.1426 15.7185 83.136C15.9539 83.1295 15.9866 83.2439 15.9817 83.4385C15.9719 83.9126 15.985 84.3883 15.9719 84.8624C15.9686 84.9866 16.0635 85.1795 15.8444 85.2236C15.6597 85.2612 15.4897 85.2318 15.372 85.0471C15.1905 84.7659 14.9943 84.4929 14.8031 84.2166C14.7622 84.2313 14.7213 84.2477 14.6804 84.2624L14.6788 84.264Z" fill="#16212B"/>
<path d="M24.3828 80.3616C24.9762 80.3616 25.5059 80.3289 26.0307 80.3714C26.5799 80.4156 26.8628 80.2701 26.75 79.6685C26.6878 79.3366 26.866 79.2859 27.1537 79.2892C27.4088 79.2908 27.4398 79.3873 27.4513 79.6096C27.5281 81.0597 27.533 81.0596 26.0977 81.058C25.8606 81.058 25.6236 81.058 25.3866 81.058C24.9484 81.058 24.6139 80.8264 24.3828 80.3632V80.3616Z" fill="#16212B"/>
<path d="M21.5567 84.1601C21.5578 83.4789 21.9142 83.1378 22.6259 83.1367C23.3893 83.1351 23.4465 83.2479 23.2684 83.9966C23.2013 84.2745 23.4482 84.5753 23.3811 84.8957C23.3501 85.0445 23.4269 85.2276 23.1572 85.2325C22.9054 85.2374 22.8825 85.1246 22.8548 84.9072C22.8286 84.6979 23.0656 84.3236 22.5605 84.3138C22.2172 84.3056 22.0079 84.3448 22.0603 84.7699C22.0799 84.9317 22.2237 85.2341 21.8216 85.2325C21.4309 85.2309 21.5845 84.9448 21.5633 84.7633C21.5404 84.5655 21.5584 84.3628 21.5584 84.1634L21.5567 84.1601ZM22.4804 83.8985C22.5817 83.8184 22.8384 83.9999 22.8433 83.7351C22.8482 83.4784 22.603 83.5847 22.4722 83.5896C22.3398 83.5945 22.1011 83.467 22.0864 83.7154C22.0717 83.9803 22.3202 83.8479 22.4804 83.8985Z" fill="#16212B"/>
<path d="M58.6966 83.1399C58.8797 83.1399 59.0611 83.1481 59.2426 83.1383C59.4273 83.1285 59.5009 83.1906 59.4944 83.3868C59.4878 83.5731 59.3848 83.5846 59.2475 83.5829C58.9925 83.5797 58.7375 83.5764 58.4824 83.5862C58.3713 83.5911 58.198 83.5143 58.1882 83.7186C58.1767 83.9671 58.3778 83.8707 58.5037 83.887C58.5756 83.8968 58.6492 83.8919 58.7227 83.8919C59.4993 83.8952 59.5074 83.9148 59.4976 84.6815C59.4927 85.0608 59.375 85.2619 58.9598 85.2341C58.6149 85.2112 58.2666 85.2226 57.9217 85.2308C57.7566 85.2341 57.6961 85.1687 57.6977 85.0068C57.6977 84.8417 57.768 84.7812 57.9283 84.7861C58.2013 84.7927 58.4759 84.7861 58.7489 84.7861C58.8846 84.7861 59.0007 84.7763 59.0007 84.59C59.0007 84.4134 58.9418 84.317 58.7505 84.3251C58.5871 84.3317 58.4219 84.317 58.2585 84.3284C57.8432 84.3562 57.6945 84.1715 57.6896 83.7562C57.6847 83.2936 57.8318 83.0696 58.3173 83.1367C58.4432 83.1546 58.5723 83.1399 58.6999 83.1399V83.1432L58.6966 83.1399Z" fill="#16212B"/>
<path d="M19.1844 84.0961C19.2531 83.8395 18.9964 83.3523 19.3512 83.2101C19.7288 83.0581 20.2062 83.148 20.6394 83.1431C20.7996 83.1431 20.7734 83.2804 20.78 83.385C20.7881 83.524 20.7211 83.5812 20.5854 83.5795C20.386 83.5763 20.1849 83.5697 19.9855 83.5828C19.8629 83.591 19.6585 83.4994 19.6699 83.7479C19.6798 83.9474 19.8514 83.8771 19.9626 83.8852C20.126 83.8951 20.2895 83.8853 20.4546 83.8885C20.6116 83.8918 20.7979 83.8378 20.7816 84.1141C20.7669 84.379 20.5821 84.3185 20.4285 84.3217C20.283 84.325 20.1375 84.3152 19.992 84.3234C19.8449 84.3332 19.6601 84.2629 19.6503 84.5392C19.6389 84.8547 19.8514 84.7746 20.0165 84.7811C20.18 84.7876 20.3451 84.786 20.5086 84.7811C20.6721 84.7746 20.793 84.7926 20.7816 85.0083C20.7734 85.1735 20.7064 85.2307 20.5478 85.2274C20.2013 85.2225 19.8563 85.2258 19.5097 85.2274C19.2678 85.2307 19.1975 85.0705 19.1877 84.8743C19.1762 84.6389 19.1844 84.4018 19.1844 84.0961Z" fill="#16212B"/>
<path d="M10.4235 84.1978C10.4268 82.9553 10.314 83.1352 11.5155 83.1531C11.733 83.1564 12.1596 82.921 12.1727 83.3379C12.1874 83.8087 11.7395 83.4997 11.5106 83.5765C11.3128 83.6419 10.9728 83.4654 10.9123 83.6746C10.8191 83.995 10.8093 84.3858 10.9123 84.698C10.9793 84.9007 11.339 84.7667 11.5678 84.7797C11.7182 84.7879 11.7231 84.6637 11.7231 84.5525C11.7231 84.2419 11.4828 84.3498 11.3259 84.3351C11.1722 84.3204 11.097 84.2664 11.0921 84.1029C11.0889 83.928 11.1771 83.8822 11.3275 83.8937C11.3455 83.8937 11.3651 83.8921 11.3815 83.8937C11.643 83.9362 12.055 83.7515 12.14 83.9803C12.2659 84.3155 12.3395 84.8811 12.1531 85.0805C11.8016 85.4549 11.2082 85.1721 10.7194 85.2244C10.4791 85.2505 10.4235 85.0593 10.4219 84.8582C10.4219 84.6391 10.4219 84.4201 10.4219 84.201L10.4235 84.1978Z" fill="#16212B"/>
<path d="M41.762 83.1362C41.945 83.1362 42.1281 83.1362 42.3096 83.1362C42.4616 83.1362 42.594 83.1264 42.5973 83.352C42.6006 83.5678 42.4911 83.5874 42.3259 83.5825C42.0709 83.5759 41.8143 83.5743 41.5576 83.5825C41.4432 83.5857 41.2748 83.5383 41.2879 83.746C41.2993 83.9536 41.4693 83.8735 41.5789 83.8833C41.7047 83.8964 41.8371 83.9029 41.9614 83.8833C42.4861 83.8048 42.594 84.0468 42.6071 84.5388C42.6218 85.111 42.424 85.299 41.8813 85.2303C41.6295 85.1993 41.3696 85.2238 41.1146 85.2254C40.9658 85.2254 40.8318 85.2418 40.8203 85.0162C40.8056 84.7464 40.9724 84.7824 41.1358 84.784C41.3925 84.7857 41.6475 84.7824 41.9042 84.784C42.0529 84.784 42.1412 84.7464 42.1379 84.5682C42.1347 84.4113 42.0873 84.3263 41.9238 84.3263C41.7963 84.3263 41.6688 84.323 41.5396 84.3214C40.8269 84.3149 40.7729 84.2446 40.822 83.5285C40.8399 83.2621 40.9217 83.1149 41.2127 83.1346C41.3941 83.1476 41.5789 83.1362 41.7603 83.1362C41.7603 83.1362 41.7603 83.1346 41.7603 83.1329L41.762 83.1362Z" fill="#16212B"/>
<path d="M5.38687 84.1969C5.36398 82.9675 5.40322 83.1457 6.45764 83.1376C6.56717 83.1376 6.67833 83.1457 6.78623 83.1376C6.97095 83.1212 7.04615 83.1882 7.04125 83.3828C7.03634 83.5691 6.93499 83.5822 6.7944 83.5806C6.53938 83.5806 6.28272 83.5806 6.0277 83.5888C5.95904 83.5904 5.8773 83.6002 5.86912 83.6934C5.86095 83.798 5.91163 83.8716 6.01952 83.8748C6.27454 83.883 6.5312 83.8846 6.78623 83.8863C6.91864 83.8863 7.03635 83.8797 7.03962 84.0743C7.04289 84.2704 6.96115 84.3293 6.77969 84.3228C6.54265 84.3146 6.30561 84.3228 6.06693 84.3244C5.90836 84.3244 5.84787 84.3996 5.84297 84.5598C5.83806 84.7315 5.91817 84.7805 6.06857 84.7805C6.32359 84.7789 6.58025 84.7854 6.83527 84.7805C6.96605 84.7789 7.03635 84.8181 7.03471 84.9652C7.03308 85.1025 7.03798 85.2235 6.84998 85.2235C6.46581 85.2219 6.08328 85.2317 5.69911 85.2235C5.47024 85.2186 5.39014 85.0584 5.38523 84.8541C5.38033 84.635 5.38523 84.4159 5.38523 84.1969H5.38687Z" fill="#16212B"/>
<path d="M53.0176 84.0195C53.0176 84.4184 53.0258 84.6505 53.0144 84.8827C53.0078 85.0265 53.0945 85.2243 52.8133 85.2342C52.4978 85.244 52.5795 85.0249 52.5762 84.8598C52.5697 84.4217 52.5632 83.9819 52.5795 83.5438C52.5844 83.4065 52.4683 83.1972 52.7168 83.1433C52.9179 83.1008 53.0618 83.1907 53.1778 83.3591C53.3789 83.6501 53.5931 83.9312 53.8906 84.3383C53.8906 83.9656 53.884 83.7383 53.8922 83.5095C53.8988 83.3476 53.8007 83.1253 54.1244 83.1367C54.4072 83.1466 54.3254 83.3411 54.3287 83.485C54.3369 83.9427 54.3385 84.3988 54.3271 84.8565C54.3238 84.9808 54.4219 85.1704 54.2143 85.2194C54.0312 85.2636 53.8677 85.2292 53.7451 85.038C53.5522 84.7339 53.3266 84.4511 53.016 84.0211L53.0176 84.0195Z" fill="#16212B"/>
<path d="M27.9937 79.3556C27.9937 78.9191 28.0101 78.4826 27.9888 78.0477C27.9741 77.7568 28.0411 77.6374 28.3664 77.6407C28.6803 77.6456 28.7621 77.742 28.7555 78.0461C28.7375 78.9174 28.7392 79.7904 28.7555 80.6617C28.7604 80.9576 28.6885 81.0688 28.3681 81.0704C28.0428 81.0737 27.9741 80.9527 27.9855 80.6634C28.0052 80.2285 27.9905 79.792 27.9905 79.3556H27.9937Z" fill="#16212B"/>
<path d="M25.8121 83.9826C25.8121 84.4093 25.804 84.697 25.8154 84.9847C25.8236 85.1809 25.7435 85.2348 25.5587 85.2316C25.374 85.2283 25.3593 85.1269 25.3593 84.9864C25.3609 84.4747 25.3544 83.9646 25.3626 83.4529C25.3642 83.3434 25.289 83.1619 25.4835 83.1505C25.6421 83.1407 25.8203 83.0492 25.9527 83.2862C26.1325 83.6099 26.3778 83.8976 26.6769 84.3161C26.6769 83.9221 26.6835 83.6589 26.6753 83.3974C26.6704 83.2241 26.7063 83.126 26.914 83.1342C27.0856 83.1407 27.1314 83.2143 27.1298 83.3663C27.1265 83.9139 27.1298 84.4616 27.1298 85.0092C27.1298 85.1253 27.1167 85.2201 26.963 85.2316C26.8044 85.243 26.6737 85.207 26.5821 85.0763C26.3516 84.7526 26.126 84.4273 25.8154 83.9826H25.8121Z" fill="#16212B"/>
<path d="M59.4943 79.3842C59.4943 79.8403 59.478 80.2981 59.5009 80.7542C59.5156 81.0599 59.3537 81.0729 59.1298 81.0582C58.9336 81.0451 58.7276 81.1056 58.7325 80.7754C58.7489 79.8256 58.7505 78.8742 58.7358 77.9244C58.7309 77.5843 58.9499 77.6661 59.1396 77.6497C59.3717 77.6285 59.5156 77.6612 59.4992 77.9603C59.4747 78.4344 59.4927 78.9101 59.4927 79.3859H59.4959L59.4943 79.3842Z" fill="#16212B"/>
<path d="M22.506 79.4081C22.506 78.952 22.511 78.4959 22.5044 78.0398C22.5011 77.8044 22.4913 77.6197 22.8346 77.6425C23.1076 77.6605 23.2662 77.6736 23.2564 78.0202C23.2319 78.9128 23.2319 79.807 23.2564 80.7012C23.2662 81.0625 23.0831 81.0543 22.8232 81.0674C22.5404 81.0821 22.4913 80.9677 22.5011 80.7208C22.5175 80.2843 22.506 79.8462 22.506 79.4081Z" fill="#16212B"/>
<path d="M17.6938 83.1396C17.8802 83.2703 18.3526 82.8993 18.3592 83.3423C18.3657 83.8213 17.8818 83.4796 17.6383 83.581C17.5107 83.6349 17.2524 83.4649 17.2655 83.7428C17.2786 83.9962 17.5238 83.8409 17.6579 83.8899C17.8965 83.9782 18.3576 83.6725 18.3592 84.1041C18.3592 84.5389 17.8982 84.2381 17.6562 84.3215C17.4993 84.3754 17.223 84.2022 17.2426 84.5684C17.2623 84.928 17.5353 84.7237 17.6889 84.7858C17.9178 84.8773 18.3723 84.5651 18.3625 85.0244C18.3543 85.4299 17.9276 85.1552 17.6987 85.2173C17.5467 85.2599 17.3718 85.2141 17.2083 85.2272C16.8977 85.2517 16.7784 85.1062 16.7898 84.807C16.7996 84.534 16.7914 84.2594 16.7914 83.9864C16.7914 83.4186 17.0928 83.1352 17.6955 83.1363L17.6938 83.1396Z" fill="#16212B"/>
<path d="M37.4364 84.1856C37.4282 85.4117 37.5671 85.2073 36.3967 85.2269C35.6757 85.24 35.6757 85.2318 35.6741 84.5125C35.6741 84.4586 35.6741 84.403 35.6741 84.3491C35.6806 82.9644 35.5319 83.172 36.8397 83.1263C37.3317 83.1083 37.5034 83.2816 37.4396 83.7507C37.42 83.893 37.4364 84.0401 37.4364 84.1856ZM36.9721 84.0793C36.9525 83.9436 37.1715 83.5497 36.5536 83.5595C36.0452 83.5676 36.1106 83.8374 36.1285 84.1382C36.1449 84.4357 35.9569 84.8166 36.5699 84.8068C37.0734 84.797 37.013 84.542 36.9737 84.081L36.9721 84.0793Z" fill="#16212B"/>
<path d="M49.6813 85.2111C49.9347 84.5621 50.1718 83.967 50.399 83.3687C50.4676 83.1856 50.5804 83.1268 50.7701 83.1333C50.9712 83.1398 51.0954 83.1758 51.1706 83.4014C51.3324 83.8935 51.5335 84.3741 51.7313 84.8563C51.7836 84.9839 51.9079 85.1343 51.7411 85.2111C51.6136 85.2699 51.4354 85.2618 51.3046 85.095C50.9679 84.6602 50.6001 84.6634 50.2568 85.0983C50.1113 85.2847 49.9396 85.2144 49.6797 85.2127L49.6813 85.2111Z" fill="#16212B"/>
<path d="M45.119 84.1284C45.1026 85.415 45.2841 85.1828 44.0188 85.2384C43.4728 85.2629 43.3027 85.0749 43.3518 84.5567C43.3877 84.1774 43.3616 83.79 43.3567 83.4075C43.3551 83.2473 43.36 83.1312 43.5806 83.1328C43.7981 83.1328 43.8095 83.2505 43.8079 83.4091C43.8046 83.7017 43.8226 83.9944 43.8013 84.2853C43.7752 84.6221 43.8112 84.8019 44.246 84.8036C44.6923 84.8068 44.7005 84.6025 44.6808 84.2804C44.6629 83.9715 44.6808 83.6609 44.6743 83.3503C44.671 83.1802 44.7462 83.1377 44.9064 83.1361C45.0781 83.1345 45.1271 83.2064 45.1239 83.3617C45.1173 83.6167 45.1239 83.8734 45.1222 84.1284H45.119Z" fill="#16212B"/>
<path d="M34.1036 85.2287C33.5424 85.2265 33.2617 84.9388 33.2617 84.3656C33.2617 83.4599 33.7129 83.0501 34.6153 83.1362C34.7641 83.1509 34.9014 83.1313 34.903 83.3553C34.9047 83.5727 34.7804 83.5841 34.6235 83.5825C34.514 83.5809 34.4028 83.5972 34.2965 83.5809C33.8519 83.5138 33.6704 83.6299 33.6819 84.1449C33.6933 84.6435 33.7669 84.8756 34.3243 84.8004C34.5041 84.7759 34.9194 84.5813 34.8883 85.0374C34.8638 85.4069 34.5139 85.1601 34.321 85.2254C34.2557 85.2483 34.1772 85.2287 34.1036 85.2287Z" fill="#16212B"/>
<path d="M42.1397 78.8203C42.1397 79.0573 42.1234 79.2943 42.1446 79.5297C42.1741 79.8551 42.1054 80.0104 41.7212 80.012C41.2831 80.0136 41.3861 79.7439 41.3845 79.5085C41.3796 78.9984 41.4074 78.4884 41.373 77.9816C41.3501 77.6383 41.5332 77.6596 41.767 77.6498C42.0351 77.6383 42.1741 77.6972 42.1463 78.0029C42.1217 78.2726 42.1414 78.5472 42.1414 78.8203H42.1397Z" fill="#16212B"/>
<path d="M30.0835 80.5031C30.0835 80.7941 30.0753 81.0851 30.0851 81.3761C30.0965 81.7047 29.8481 81.8093 29.629 81.7701C29.4099 81.7309 29.1974 81.5952 29.3184 81.2388C29.477 80.7712 29.3821 80.2645 29.3756 79.7773C29.3707 79.4683 29.4622 79.3801 29.7728 79.3751C30.1325 79.3686 30.0818 79.5779 30.0802 79.7936C30.0785 80.0307 30.0802 80.2661 30.0802 80.5031H30.0818H30.0835Z" fill="#16212B"/>
<path d="M56.008 83.1377C56.2091 83.1377 56.4101 83.1475 56.6112 83.1344C56.791 83.123 56.8793 83.1704 56.8777 83.3698C56.876 83.5447 56.7927 83.6052 56.6423 83.5791C56.3104 83.5186 56.299 83.7147 56.3071 83.9583C56.3186 84.3049 56.3055 84.6531 56.3104 84.9997C56.312 85.1517 56.2761 85.2383 56.0995 85.2285C55.9459 85.2204 55.8053 85.2285 55.8102 85.0079C55.8167 84.6793 55.7987 84.349 55.8134 84.0204C55.8249 83.7311 55.7971 83.5137 55.4162 83.5742C55.2494 83.6003 55.0892 83.5938 55.1023 83.3339C55.1138 83.0968 55.2691 83.1409 55.4064 83.1377C55.6075 83.1328 55.8085 83.1377 56.0096 83.1377H56.008Z" fill="#16212B"/>
<path d="M45.893 84.0598C45.893 83.8603 45.893 83.6593 45.893 83.4598C45.893 83.2963 45.8717 83.1361 46.13 83.1329C46.4047 83.1296 46.4112 83.2784 46.4047 83.4811C46.3949 83.7721 46.4308 84.0663 46.3998 84.3524C46.3573 84.7268 46.5158 84.7905 46.8542 84.8036C47.0733 84.8118 47.5 84.5682 47.5082 84.9883C47.518 85.4559 47.07 85.1404 46.8412 85.2205C46.7284 85.2597 46.5878 85.2139 46.4619 85.2303C46.014 85.2924 45.8799 85.057 45.8963 84.6597C45.9044 84.4603 45.8963 84.2592 45.8963 84.0598H45.893Z" fill="#16212B"/>
<path d="M55.7671 80.5562C55.7671 80.8472 55.7622 81.1382 55.7704 81.4292C55.7753 81.5943 55.7197 81.6728 55.5578 81.7479C55.2963 81.8673 55.2015 81.64 55.038 81.5583C54.8451 81.4619 55.0233 81.3769 55.0462 81.2739C55.159 80.7736 55.0903 80.2619 55.0903 79.7568C55.0903 79.4854 55.1459 79.3726 55.4499 79.3792C55.7295 79.3857 55.7851 79.4952 55.7704 79.7372C55.754 80.0086 55.7671 80.2832 55.7671 80.5562Z" fill="#16212B"/>
<path d="M49.3918 83.3722C49.4196 83.6109 49.2496 83.5962 49.1074 83.5782C48.7935 83.5373 48.7412 83.6992 48.7575 83.9624C48.7755 84.2354 48.7788 84.5116 48.7543 84.783C48.7396 84.9449 48.9014 85.213 48.5401 85.2277C48.1756 85.2424 48.3145 84.9792 48.3031 84.8092C48.2884 84.5901 48.2884 84.3711 48.2998 84.152C48.3178 83.8103 48.357 83.4719 47.8257 83.5782C47.6426 83.6142 47.6328 83.4719 47.6328 83.333C47.6328 83.1957 47.6868 83.1352 47.8225 83.1368C48.2786 83.1384 48.7363 83.1433 49.1924 83.1368C49.3706 83.1335 49.4114 83.2234 49.3902 83.3738L49.3918 83.3722Z" fill="#16212B"/>
<path d="M24.5949 84.1324C24.5949 84.4038 24.5949 84.6768 24.5949 84.9481C24.5949 85.0936 24.6129 85.2342 24.384 85.2342C24.178 85.2342 24.147 85.1394 24.1486 84.9694C24.1551 84.4446 24.1551 83.9182 24.1486 83.3935C24.1453 83.2153 24.1911 83.1335 24.3889 83.1368C24.6178 83.1401 24.5933 83.2807 24.5916 83.4278C24.59 83.6632 24.5916 83.8986 24.5916 84.134H24.5949V84.1324Z" fill="#16212B"/>
<path d="M13.4051 84.1892C13.4051 84.4605 13.4002 84.7336 13.4067 85.0049C13.41 85.1635 13.3544 85.2289 13.1876 85.2289C13.0323 85.2289 12.9539 85.1945 12.9571 85.0196C12.9637 84.4573 12.9637 83.8949 12.9571 83.3326C12.9555 83.1478 13.0601 83.138 13.1991 83.1331C13.3789 83.1266 13.4067 83.2279 13.4051 83.3718C13.4018 83.6432 13.4051 83.9162 13.4051 84.1875V84.1892Z" fill="#16212B"/>
<path d="M25.4185 78.5468C25.6016 78.7888 25.7961 78.7267 26.0185 78.5566C26.0953 78.4994 26.1983 78.6351 26.2702 78.7169C26.3454 78.8051 26.3029 78.8738 26.2604 78.9588C26.1983 79.0814 26.0495 79.1255 25.9939 79.0683C25.7929 78.8656 25.6376 78.9866 25.4414 79.0683C25.2926 79.1288 25.1668 79.0258 25.1406 78.8509C25.1128 78.6629 25.2371 78.6024 25.4185 78.5452V78.5468Z" fill="#16212B"/>
<path d="M35.7439 79.0842C35.6082 79.0744 35.5101 79.0711 35.4791 78.9632C35.448 78.8586 35.4218 78.7409 35.5052 78.6558C35.5771 78.5839 35.685 78.4907 35.7864 78.6019C35.9482 78.7817 36.0757 78.8161 36.2278 78.5872C36.2801 78.5087 36.3815 78.5349 36.4648 78.6035C36.5842 78.7016 36.5874 78.8161 36.5466 78.9452C36.5139 79.0466 36.4043 79.112 36.3389 79.0711C36.115 78.9289 35.9123 78.8602 35.7472 79.0842H35.7439Z" fill="#16212B"/>
<path d="M49.4132 81.6183C49.4132 81.7801 49.2137 81.9027 49.2121 81.8978C49.0176 81.3567 48.4503 82.2624 48.2934 81.6591C48.2721 81.5758 48.2688 81.4319 48.3686 81.4237C48.6808 81.3959 48.9947 81.5284 49.3167 81.409C49.387 81.3829 49.3968 81.548 49.4148 81.6183H49.4132Z" fill="#16212B"/>
<path d="M6.92984 78.738C6.95109 78.9734 6.71078 79.0388 6.66664 78.9652C6.44268 78.5908 5.93263 79.3477 5.81656 78.7347C5.77733 78.5271 6.03399 78.4486 6.08303 78.5222C6.3119 78.8655 6.80887 78.1315 6.92984 78.738Z" fill="#16212B"/>
<path d="M16.8098 78.765C16.7886 79.0085 16.6921 79.0821 16.5188 79.0805C16.3603 79.0788 16.2687 78.9709 16.2736 78.8516C16.2802 78.6767 16.4158 78.5541 16.5957 78.5721C16.7166 78.5851 16.8343 78.6685 16.8098 78.7666V78.765Z" fill="#16212B"/>
<path d="M33.3648 78.5234C33.4465 78.7098 33.6231 78.9142 33.3288 79.0613C33.1849 79.1332 33.0117 79.0874 32.9806 78.9174C32.9267 78.6199 33.1571 78.5709 33.3811 78.5382L33.3648 78.5234Z" fill="#16212B"/>
<path d="M33.7166 78.5098C33.5989 78.5147 33.4812 78.518 33.3635 78.5229L33.3799 78.5376C33.2965 78.3594 33.1886 78.1796 33.424 78.0292C33.5286 77.9622 33.6186 77.9703 33.715 78.0537C33.9079 78.2188 33.7886 78.3692 33.7036 78.5245L33.7183 78.5098H33.7166Z" fill="#16212B"/>
<path d="M8.78636 81.597C8.77492 81.7801 8.62615 81.8831 8.51008 81.9011C8.38911 81.919 8.2289 81.8226 8.23871 81.6379C8.24688 81.4646 8.34661 81.3812 8.52153 81.3828C8.67193 81.3845 8.74385 81.476 8.78636 81.5986V81.597Z" fill="#16212B"/>
<path d="M8.13354 81.6282C8.10738 81.8048 7.95862 81.9078 7.84091 81.9045C7.71994 81.9012 7.56137 81.7966 7.58425 81.6086C7.60714 81.4288 7.72975 81.3667 7.89486 81.3863C8.03545 81.4026 8.12046 81.4876 8.1319 81.6282H8.13354Z" fill="#16212B"/>
<path d="M33.7048 78.5248C33.9386 78.5722 34.2557 78.5559 34.1004 78.9482C34.0399 79.1002 33.8797 79.1329 33.7375 79.0512C33.4547 78.8893 33.6606 78.6948 33.7179 78.5117L33.7048 78.5264V78.5248Z" fill="#16212B"/>
</svg>
