<svg width="146" height="72" viewBox="0 0 146 72" fill="none" xmlns="http://www.w3.org/2000/svg">
<g clip-path="url(#clip0_56616_7364)">
<path d="M81.8538 43.8521L68.9776 31.0399L72.6945 27.3414L81.8538 36.4553L96.4554 21.9261L81.8538 7.39684L63.5353 25.6245L59.8184 21.9261L81.8538 0L103.889 21.9261L81.8538 43.8521Z" fill="#D62027"/>
<path d="M63.5352 43.8521L41.4999 21.9261L63.5352 0L67.2521 3.69842L48.9336 21.9261L63.5352 36.4553L81.8538 18.2276L85.5706 21.9261L63.5352 43.8521Z" fill="#D62027"/>
<path d="M1.6776 72H0.357307C0.11765 72 0 71.8829 0 71.6445V58.9233C0 58.6848 0.11765 58.5677 0.357307 58.5677H5.35524C6.37487 58.5677 7.17664 58.8496 7.74746 59.4132C8.32263 59.9769 8.61022 60.7747 8.61022 61.8066V63.9788C8.61022 64.9977 8.32263 65.7912 7.74746 66.3592C7.17228 66.9271 6.37487 67.2176 5.35524 67.2176H2.29199C2.12205 67.2176 2.03926 67.287 2.03926 67.4257V71.6445C2.03926 71.8829 1.92161 72 1.68196 72H1.6776ZM2.26585 65.4226H5.05894C6.05243 65.4226 6.54917 64.9067 6.54917 63.8747V61.889C6.54917 60.857 6.05243 60.3411 5.05894 60.3411H2.26585C2.11334 60.3411 2.03491 60.4105 2.03491 60.5492V65.2058C2.03491 65.3446 2.11334 65.4139 2.26585 65.4139V65.4226Z" fill="#333333"/>
<path d="M17.4034 72H14.9677C13.9306 72 13.1288 71.7138 12.5624 71.1415C11.9959 70.5692 11.7127 69.7757 11.7127 68.7612V61.8066C11.7127 60.7747 11.9959 59.9769 12.5624 59.4132C13.1288 58.8496 13.9306 58.5677 14.9677 58.5677H17.4034C18.4405 58.5677 19.2423 58.8496 19.8174 59.4132C20.3926 59.9769 20.6802 60.7747 20.6802 61.8066V68.7612C20.6802 69.7801 20.3926 70.5735 19.8174 71.1415C19.2423 71.7138 18.4405 72 17.4034 72ZM15.264 70.2267H17.0897C18.1093 70.2267 18.6235 69.7107 18.6235 68.6788V61.889C18.6235 60.857 18.1137 60.3411 17.0897 60.3411H15.264C14.2574 60.3411 13.7519 60.857 13.7519 61.889V68.6788C13.7519 69.7107 14.2574 70.2267 15.264 70.2267Z" fill="#333333"/>
<path d="M28.4277 72H26.201C25.9483 72 25.8002 71.8829 25.7609 71.6445L23.2642 58.9233C23.238 58.6848 23.3557 58.5677 23.6215 58.5677H25.2381C25.5039 58.5677 25.6433 58.6848 25.6564 58.9233L27.3557 69.8711H27.4821L29.9615 58.8843C29.9876 58.6761 30.114 58.5721 30.3406 58.5721H32.1053C32.3275 58.5721 32.4626 58.6761 32.5062 58.8843L35.003 69.8711H35.1294L36.8287 58.945C36.8418 58.6935 36.9812 58.5677 37.247 58.5677H38.8636C39.1425 58.5677 39.2645 58.6935 39.2209 58.945L36.7242 71.6445C36.6806 71.8829 36.5411 72 36.3058 72H34.0792C33.8396 72 33.7001 71.8829 33.6609 71.6445L31.2905 61.0738H31.2077L28.8373 71.6445C28.7937 71.8829 28.663 72 28.4364 72H28.4277Z" fill="#333333"/>
<path d="M49.1035 72H42.3844C42.1447 72 42.0271 71.8829 42.0271 71.6445V58.9233C42.0271 58.6848 42.1447 58.5677 42.3844 58.5677H49.1035C49.3257 58.5677 49.439 58.6848 49.439 58.9233V59.9899C49.439 60.2284 49.3257 60.3454 49.1035 60.3454H44.3147C44.1448 60.3454 44.062 60.4148 44.062 60.5535V64.0829C44.062 64.2216 44.1448 64.291 44.3147 64.291H48.3671C48.6198 64.291 48.7462 64.4081 48.7462 64.6465V65.7131C48.7462 65.9516 48.6198 66.0687 48.3671 66.0687H44.3147C44.1448 66.0687 44.062 66.138 44.062 66.2768V69.9969C44.062 70.1486 44.1448 70.2267 44.3147 70.2267H49.1035C49.3257 70.2267 49.439 70.3437 49.439 70.5822V71.6488C49.439 71.8873 49.3257 72.0043 49.1035 72.0043V72Z" fill="#333333"/>
<path d="M54.6287 72H53.3041C53.0644 72 52.9467 71.8829 52.9467 71.6445V58.9233C52.9467 58.6848 53.0644 58.5677 53.3041 58.5677H58.2148C59.2388 58.5677 60.0362 58.8582 60.6201 59.4349C61.1997 60.0116 61.4916 60.8094 61.4916 61.8283V63.5842C61.4916 65.1841 60.8249 66.1944 59.4959 66.615V66.6973L61.8271 71.5838C61.9796 71.8613 61.8925 72 61.5526 72H60.2497C59.9142 72 59.6964 71.8829 59.6005 71.6445L57.3564 66.8404H55.2344C55.0644 66.8404 54.9817 66.9098 54.9817 67.0485V71.6445C54.9817 71.8829 54.864 72 54.6243 72H54.6287ZM55.217 65.1711H57.8837C58.9207 65.1711 59.4393 64.6639 59.4393 63.6449V61.889C59.4393 60.857 58.9207 60.3411 57.8837 60.3411H55.217C55.0644 60.3411 54.986 60.4105 54.986 60.5492V64.9587C54.986 65.0974 55.0644 65.1668 55.217 65.1668V65.1711Z" fill="#333333"/>
<path d="M75.2436 72H73.7969C72.7729 72 71.9755 71.7225 71.4047 71.1632C70.8295 70.6039 70.5419 69.8191 70.5419 68.8045V67.365C70.5419 66.667 70.7249 66.0556 71.0866 65.5267C71.4526 64.9977 71.9842 64.7029 72.6814 64.6509C72.1062 63.9138 71.8187 63.0986 71.8187 62.2055V61.7676C71.8187 60.766 72.1237 59.9812 72.7337 59.4176C73.3437 58.8539 74.1629 58.5721 75.2 58.5721H75.8318C76.8514 58.5721 77.6532 58.8496 78.224 59.4089C78.7992 59.9682 79.0868 60.753 79.0868 61.7676V62.5827C79.0868 62.8342 78.9691 62.9599 78.7295 62.9599H77.4048C77.1652 62.9599 77.0475 62.8342 77.0475 62.5827V61.8109C77.0475 60.8093 76.5769 60.3064 75.6401 60.3064H75.3874C74.4069 60.3064 73.9189 60.8093 73.9189 61.8109V62.2488C73.9189 62.8775 74.2283 63.5322 74.8427 64.2129L75.9538 65.4877H80.76C80.9997 65.4877 81.1173 65.6134 81.1173 65.8649V66.9315C81.1173 67.1699 80.9997 67.287 80.76 67.287H77.4658L81.2219 71.7138C81.2786 71.7702 81.296 71.8309 81.2742 71.9003C81.2524 71.9697 81.2001 72.0043 81.1173 72.0043H79.4354C79.1565 72.0043 78.9517 71.922 78.8253 71.7529L77.797 70.5388C77.4746 71.5144 76.6205 72 75.2349 72H75.2436ZM74.0889 70.205H75.2436C76.0279 70.205 76.468 69.8495 76.5682 69.1384L73.7359 65.8605C72.9254 65.9039 72.5202 66.4459 72.5202 67.4908V68.6831C72.5202 69.702 73.0431 70.2093 74.0932 70.2093L74.0889 70.205Z" fill="#333333"/>
<path d="M90.233 68.7438V68.2019C90.233 67.9634 90.3507 67.8463 90.5903 67.8463H91.9324C92.1721 67.8463 92.2897 67.9634 92.2897 68.2019V68.5791C92.2897 69.1644 92.4204 69.585 92.6775 69.8451C92.9346 70.1009 93.366 70.231 93.9673 70.231H95.414C96.0153 70.231 96.451 70.0966 96.7168 69.8234C96.9826 69.5503 97.1177 69.1124 97.1177 68.4967V68.0154C97.1177 67.5688 96.9478 67.2176 96.6035 66.9618C96.2593 66.706 95.8366 66.5369 95.3312 66.4589C94.8257 66.3808 94.2723 66.2724 93.671 66.1337C93.0697 65.9949 92.5163 65.8345 92.0108 65.6524C91.5054 65.4703 91.0827 65.1321 90.7428 64.6292C90.3986 64.1262 90.2287 63.4889 90.2287 62.7084V61.8326C90.2287 60.8137 90.5206 60.0202 91.1001 59.4392C91.6797 58.8626 92.4814 58.5721 93.5054 58.5721H95.7321C96.7691 58.5721 97.5752 58.8626 98.1548 59.4392C98.7343 60.0159 99.0263 60.8137 99.0263 61.8326V62.2922C99.0263 62.5307 98.9086 62.6477 98.6689 62.6477H97.3269C97.0872 62.6477 96.9696 62.5307 96.9696 62.2922V62.019C96.9696 61.4207 96.8388 60.9915 96.5818 60.7356C96.3247 60.4798 95.8933 60.3498 95.292 60.3498H93.9717C93.3704 60.3498 92.939 60.4842 92.6819 60.7573C92.4248 61.0305 92.2941 61.4901 92.2941 62.1448V62.7908C92.2941 63.4195 92.7472 63.8444 93.6579 64.0655C94.0632 64.1652 94.5076 64.2476 94.9913 64.317C95.475 64.3864 95.9586 64.4904 96.451 64.6292C96.9391 64.7679 97.3879 64.9544 97.7931 65.1842C98.1983 65.4139 98.5295 65.7608 98.7779 66.2291C99.0306 66.6973 99.157 67.2653 99.157 67.933V68.7482C99.157 69.7671 98.865 70.5605 98.2855 71.1415C97.706 71.7182 96.9042 72.0087 95.8802 72.0087H93.5272C92.5032 72.0087 91.7015 71.7182 91.1132 71.1415C90.525 70.5649 90.233 69.7671 90.233 68.7482V68.7438Z" fill="#333333"/>
<path d="M104.508 72H103.183C102.944 72 102.826 71.8829 102.826 71.6445V58.9233C102.826 58.6848 102.944 58.5677 103.183 58.5677H108.181C109.201 58.5677 110.003 58.8496 110.573 59.4132C111.149 59.9769 111.436 60.7747 111.436 61.8066V63.9788C111.436 64.9977 111.149 65.7912 110.573 66.3592C109.998 66.9271 109.201 67.2176 108.181 67.2176H105.118C104.948 67.2176 104.865 67.287 104.865 67.4257V71.6445C104.865 71.8829 104.748 72 104.508 72ZM105.096 65.4226H107.889C108.883 65.4226 109.379 64.9067 109.379 63.8747V61.889C109.379 60.857 108.883 60.3411 107.889 60.3411H105.096C104.944 60.3411 104.865 60.4105 104.865 60.5492V65.2058C104.865 65.3446 104.944 65.4139 105.096 65.4139V65.4226Z" fill="#333333"/>
<path d="M121.828 72H115.109C114.87 72 114.752 71.8829 114.752 71.6445V58.9233C114.752 58.6848 114.87 58.5677 115.109 58.5677H121.828C122.051 58.5677 122.164 58.6848 122.164 58.9233V59.9899C122.164 60.2284 122.051 60.3454 121.828 60.3454H117.04C116.87 60.3454 116.787 60.4148 116.787 60.5535V64.0829C116.787 64.2216 116.87 64.291 117.04 64.291H121.092C121.345 64.291 121.471 64.4081 121.471 64.6465V65.7131C121.471 65.9516 121.345 66.0687 121.092 66.0687H117.04C116.87 66.0687 116.787 66.138 116.787 66.2768V69.9969C116.787 70.1486 116.87 70.2267 117.04 70.2267H121.828C122.051 70.2267 122.164 70.3437 122.164 70.5822V71.6488C122.164 71.8873 122.051 72.0043 121.828 72.0043V72Z" fill="#333333"/>
<path d="M132.748 72H126.029C125.789 72 125.672 71.8829 125.672 71.6445V58.9233C125.672 58.6848 125.789 58.5677 126.029 58.5677H132.748C132.97 58.5677 133.084 58.6848 133.084 58.9233V59.9899C133.084 60.2284 132.97 60.3454 132.748 60.3454H127.959C127.789 60.3454 127.707 60.4148 127.707 60.5535V64.0829C127.707 64.2216 127.789 64.291 127.959 64.291H132.012C132.264 64.291 132.391 64.4081 132.391 64.6465V65.7131C132.391 65.9516 132.264 66.0687 132.012 66.0687H127.959C127.789 66.0687 127.707 66.138 127.707 66.2768V69.9969C127.707 70.1486 127.789 70.2267 127.959 70.2267H132.748C132.97 70.2267 133.084 70.3437 133.084 70.5822V71.6488C133.084 71.8873 132.97 72.0043 132.748 72.0043V72Z" fill="#333333"/>
<path d="M136.591 71.6445V58.9233C136.591 58.6848 136.709 58.5677 136.949 58.5677H142.112C143.132 58.5677 143.934 58.8496 144.517 59.4132C145.097 59.9769 145.389 60.7747 145.389 61.8066V68.7612C145.389 69.7801 145.097 70.5735 144.517 71.1415C143.938 71.7138 143.136 72 142.112 72H136.949C136.709 72 136.591 71.8829 136.591 71.6445ZM138.857 70.2267H141.816C142.822 70.2267 143.328 69.7107 143.328 68.6788V61.889C143.328 60.857 142.822 60.3411 141.816 60.3411H138.857C138.705 60.3411 138.626 60.4105 138.626 60.5492V69.9925C138.626 70.1443 138.705 70.2223 138.857 70.2223V70.2267Z" fill="#333333"/>
</g>
<defs>
<clipPath id="clip0_56616_7364">
<rect width="145.385" height="72" fill="white"/>
</clipPath>
</defs>
</svg>
