<svg width="251" height="64" viewBox="0 0 251 64" fill="none" xmlns="http://www.w3.org/2000/svg">
<g clip-path="url(#clip0_255_40669)">
<path fill-rule="evenodd" clip-rule="evenodd" d="M231.101 3.00485C225.551 5.78683 219.224 11.9187 217.122 20.0059C215.963 24.4484 221.009 27.8846 224.716 25.1673C232.231 19.6536 241.228 21.0554 247.419 24.9085C248.319 25.4692 249.276 24.2615 248.535 23.5067C240.689 15.4771 225.011 15.9946 232.864 5.07516C233.721 3.88186 232.411 2.3435 231.101 3.00485Z" fill="#26A9E0"/>
<path fill-rule="evenodd" clip-rule="evenodd" d="M234.26 7.18158C232.497 9.20158 233.224 12.307 235.7 13.335C237.205 13.9604 238.982 13.5435 240.055 12.3214C241.826 10.3014 241.099 7.18877 238.615 6.1608C237.111 5.54259 235.333 5.95952 234.26 7.18158Z" fill="#26A9E0"/>
<path fill-rule="evenodd" clip-rule="evenodd" d="M249.442 29.265C244.252 25.8576 235.772 23.4566 227.71 25.6779C223.283 26.9 222.823 32.9815 227.026 34.829C235.563 38.5742 238.853 47.0496 238.601 54.3316C238.565 55.3883 240.091 55.6184 240.379 54.5976C243.417 43.7931 235.124 30.4943 248.527 31.8241C249.996 31.9751 250.672 30.0701 249.442 29.265Z" fill="#1B75BB"/>
<path fill-rule="evenodd" clip-rule="evenodd" d="M247.397 34.0883C244.763 33.5708 242.438 35.7489 242.783 38.4087C242.992 40.0189 244.244 41.356 245.842 41.6723C248.484 42.1971 250.816 40.0117 250.464 37.3448C250.248 35.7345 248.995 34.4046 247.397 34.0883Z" fill="#1B75BB"/>
<path fill-rule="evenodd" clip-rule="evenodd" d="M235.844 58.2637C236.204 52.0672 234.045 43.5343 228.092 37.6756C224.817 34.4551 219.31 37.1005 219.814 41.6653C220.836 50.9242 215.128 58.0049 208.686 61.4267C207.75 61.9227 208.319 63.3604 209.341 63.0945C220.232 60.3197 227.617 46.496 233.16 58.7526C233.764 60.0896 235.758 59.7302 235.844 58.2637Z" fill="#26A9E0"/>
<path fill-rule="evenodd" clip-rule="evenodd" d="M230.633 58.9034C229.762 56.3658 226.71 55.4457 224.579 57.0703C223.291 58.0552 222.758 59.8092 223.276 61.3475C224.14 63.8923 227.207 64.8196 229.337 63.1806C230.633 62.1886 231.166 60.4418 230.633 58.9034Z" fill="#26A9E0"/>
<path fill-rule="evenodd" clip-rule="evenodd" d="M203.892 60.9954C209.442 58.2134 215.769 52.0744 217.871 43.9944C219.03 39.5519 213.984 36.1157 210.277 38.833C202.762 44.3466 193.764 42.9521 187.574 39.0918C186.674 38.5311 185.716 39.7388 186.458 40.4936C194.311 48.5232 209.989 48.0056 202.128 58.9251C201.272 60.1184 202.582 61.6568 203.892 60.9954Z" fill="#1B75BB"/>
<path fill-rule="evenodd" clip-rule="evenodd" d="M200.739 56.8191C202.503 54.7991 201.776 51.6936 199.3 50.6656C197.795 50.0402 196.017 50.4572 194.945 51.6792C193.174 53.6992 193.901 56.8119 196.384 57.8398C197.882 58.4581 199.667 58.0411 200.739 56.8191Z" fill="#1B75BB"/>
<path fill-rule="evenodd" clip-rule="evenodd" d="M185.551 34.7283C190.741 38.1357 199.22 40.5366 207.282 38.3154C211.709 37.0933 212.17 31.0118 207.966 29.1643C199.429 25.419 196.139 16.9437 196.391 9.65447C196.427 8.59775 194.901 8.3749 194.613 9.38849C191.576 20.1929 199.868 33.4918 186.465 32.1619C185.004 32.0254 184.327 33.9231 185.551 34.7283Z" fill="#26A9E0"/>
<path fill-rule="evenodd" clip-rule="evenodd" d="M187.595 29.9121C190.229 30.4297 192.554 28.2444 192.209 25.5918C192 23.9815 190.748 22.6445 189.15 22.3282C186.515 21.8034 184.176 23.9959 184.529 26.6557C184.752 28.2659 186.004 29.5958 187.595 29.9121Z" fill="#26A9E0"/>
<path fill-rule="evenodd" clip-rule="evenodd" d="M199.155 5.7368C198.795 11.9334 200.955 20.4662 206.908 26.3249C210.183 29.5454 215.682 26.9 215.186 22.3352C214.163 13.0835 219.872 5.99559 226.314 2.57382C227.25 2.07781 226.681 0.640089 225.659 0.906067C214.768 3.68805 207.376 17.5045 201.833 5.24797C201.228 3.9109 199.242 4.27033 199.155 5.7368Z" fill="#1B75BB"/>
<path fill-rule="evenodd" clip-rule="evenodd" d="M204.359 5.09677C205.23 7.63435 208.282 8.55449 210.413 6.92986C211.709 5.94503 212.241 4.19101 211.716 2.65265C210.852 0.107894 207.786 -0.819434 205.655 0.819564C204.359 1.81159 203.834 3.55842 204.359 5.09677Z" fill="#1B75BB"/>
</g>
<path d="M7.28563 38.34C6.48563 38.34 5.73229 38.2467 5.02563 38.06C4.33229 37.8733 3.72563 37.6 3.20563 37.24C2.69896 36.8667 2.29896 36.4067 2.00563 35.86C1.71229 35.3 1.56563 34.6467 1.56563 33.9C1.56563 33.0733 1.75229 32.34 2.12563 31.7C2.49896 31.06 3.02563 30.52 3.70562 30.08C4.38563 29.6267 5.17229 29.2667 6.06563 29C6.97229 28.7333 7.95229 28.5467 9.00563 28.44L9.20563 30.92C8.56563 30.9867 7.93229 31.0933 7.30563 31.24C6.67896 31.3733 6.09896 31.5667 5.56563 31.82C5.04563 32.06 4.62563 32.3533 4.30563 32.7C3.99896 33.0467 3.84563 33.4467 3.84563 33.9C3.84563 34.34 3.99896 34.7067 4.30563 35C4.61229 35.2933 5.02563 35.5067 5.54563 35.64C6.06563 35.7733 6.64563 35.84 7.28563 35.84C7.79229 35.84 8.25896 35.8067 8.68563 35.74C9.11229 35.66 9.51229 35.5533 9.88563 35.42L10.6856 37.78C10.1656 37.9667 9.61229 38.1067 9.02563 38.2C8.45229 38.2933 7.87229 38.34 7.28563 38.34ZM13.0856 39C12.1123 39 11.3123 38.84 10.6856 38.52C10.0723 38.2 9.61229 37.7267 9.30563 37.1C8.99896 36.46 8.84563 35.6667 8.84563 34.72V27.88H11.1256V34.72C11.1256 35.1733 11.1723 35.52 11.2656 35.76C11.359 36 11.5456 36.1667 11.8256 36.26C12.119 36.34 12.539 36.38 13.0856 36.38H13.8856V39H13.0856ZM13.8856 39V36.38C14.019 36.38 14.119 36.5 14.1856 36.74C14.2523 36.98 14.2856 37.2933 14.2856 37.68C14.2856 38.08 14.2523 38.4 14.1856 38.64C14.119 38.88 14.019 39 13.8856 39ZM8.10563 25.78C7.73229 25.78 7.42563 25.66 7.18563 25.42C6.94563 25.18 6.82563 24.88 6.82563 24.52C6.82563 24.1333 6.94563 23.8267 7.18563 23.6C7.42563 23.36 7.73229 23.24 8.10563 23.24C8.46563 23.24 8.76563 23.36 9.00563 23.6C9.24563 23.8267 9.36563 24.1333 9.36563 24.52C9.36563 24.88 9.24563 25.18 9.00563 25.42C8.76563 25.66 8.46563 25.78 8.10563 25.78ZM5.14563 25.78C4.77229 25.78 4.46563 25.66 4.22563 25.42C3.98563 25.18 3.86563 24.88 3.86563 24.52C3.86563 24.1333 3.98563 23.8267 4.22563 23.6C4.46563 23.36 4.77229 23.24 5.14563 23.24C5.50563 23.24 5.80563 23.36 6.04562 23.6C6.29896 23.8267 6.42563 24.1333 6.42563 24.52C6.42563 24.88 6.29896 25.18 6.04562 25.42C5.80563 25.66 5.50563 25.78 5.14563 25.78ZM16.7506 29.2H19.0306V39H13.8906V36.38H16.7506V29.2ZM13.8906 39C13.744 39 13.644 38.88 13.5906 38.64C13.524 38.4 13.4906 38.0733 13.4906 37.66C13.4906 37.2733 13.524 36.9667 13.5906 36.74C13.644 36.5 13.744 36.38 13.8906 36.38V39ZM18.5106 43.86C18.1506 43.86 17.8506 43.7333 17.6106 43.48C17.3706 43.24 17.2506 42.94 17.2506 42.58C17.2506 42.2067 17.3706 41.9 17.6106 41.66C17.8506 41.4333 18.1506 41.32 18.5106 41.32C18.884 41.32 19.1906 41.4333 19.4306 41.66C19.6706 41.9 19.7906 42.2067 19.7906 42.58C19.7906 42.94 19.6706 43.24 19.4306 43.48C19.1906 43.7333 18.884 43.86 18.5106 43.86ZM15.5706 43.86C15.1973 43.86 14.8906 43.7333 14.6506 43.48C14.4106 43.24 14.2906 42.94 14.2906 42.58C14.2906 42.2067 14.4106 41.9 14.6506 41.66C14.8906 41.4333 15.1973 41.32 15.5706 41.32C15.9306 41.32 16.2306 41.4333 16.4706 41.66C16.724 41.9 16.8506 42.2067 16.8506 42.58C16.8506 42.94 16.724 43.24 16.4706 43.48C16.2306 43.7333 15.9306 43.86 15.5706 43.86ZM28.9545 39C28.9412 37.5733 28.6879 36.3067 28.1945 35.2C27.7145 34.08 27.0145 33.1467 26.0945 32.4C25.1879 31.6533 24.0945 31.1333 22.8145 30.84L23.3345 28.32C24.9479 28.6933 26.3412 29.3733 27.5145 30.36C28.6879 31.3467 29.5945 32.58 30.2345 34.06C30.8879 35.5267 31.2212 37.1733 31.2345 39H28.9545ZM21.1745 39V36.38H30.6545V39H21.1745ZM41.7109 39V36.38H44.6509V39H41.7109ZM44.6509 39V36.38C44.7843 36.38 44.8843 36.5 44.9509 36.74C45.0176 36.98 45.0509 37.2933 45.0509 37.68C45.0509 38.08 45.0176 38.4 44.9509 38.64C44.8843 38.88 44.7843 39 44.6509 39ZM33.8309 44.4V41.8H37.6509C38.4909 41.8 39.0909 41.6333 39.4509 41.3C39.8109 40.98 39.9909 40.48 39.9909 39.8V29.66H42.2709V39.8C42.2709 40.7733 42.0843 41.6 41.7109 42.28C41.3376 42.9733 40.8043 43.5 40.1109 43.86C39.4176 44.22 38.5976 44.4 37.6509 44.4H33.8309ZM38.2909 39C37.2243 39 36.2976 38.7733 35.5109 38.32C34.7243 37.8533 34.1109 37.2333 33.6709 36.46C33.2309 35.6733 33.0109 34.82 33.0109 33.9C33.0109 33.14 33.1443 32.44 33.4109 31.8C33.6909 31.16 34.0776 30.6 34.5709 30.12C35.0643 29.64 35.6309 29.2667 36.2709 29C36.9109 28.7333 37.5976 28.6 38.3309 28.6C39.0643 28.6 39.7709 28.7133 40.4509 28.94C41.1309 29.1533 41.7376 29.3933 42.2709 29.66L41.2909 32C40.1843 31.4267 39.1976 31.14 38.3309 31.14C37.7576 31.14 37.2376 31.2667 36.7709 31.52C36.3176 31.76 35.9576 32.0867 35.6909 32.5C35.4243 32.9133 35.2909 33.38 35.2909 33.9C35.2909 34.38 35.4109 34.8133 35.6509 35.2C35.9043 35.5867 36.2509 35.8933 36.6909 36.12C37.1443 36.3467 37.6776 36.46 38.2909 36.46H41.2509V39H38.2909ZM44.6523 39V36.38H48.2923C48.8523 36.38 49.459 36.2867 50.1123 36.1C50.7657 35.9133 51.4057 35.6733 52.0323 35.38C52.6723 35.0867 53.2523 34.7667 53.7723 34.42C54.3057 34.0733 54.7257 33.74 55.0323 33.42C55.3523 33.0867 55.5123 32.7933 55.5123 32.54C55.5123 32.3 55.359 32.08 55.0523 31.88C54.7457 31.68 54.319 31.5133 53.7723 31.38C53.2257 31.2467 52.5923 31.18 51.8723 31.18C51.2723 31.18 50.699 31.2333 50.1523 31.34C49.619 31.4333 49.0457 31.58 48.4323 31.78L47.6723 32.74L46.2523 32.22L48.0723 29.28C48.6057 29.1067 49.1857 28.9533 49.8123 28.82C50.4523 28.6867 51.1657 28.62 51.9523 28.62C53.1123 28.62 54.1323 28.7733 55.0123 29.08C55.8923 29.3867 56.5723 29.8133 57.0523 30.36C57.5457 30.8933 57.7923 31.5267 57.7923 32.26C57.7923 32.86 57.6257 33.4467 57.2923 34.02C56.9723 34.5933 56.5323 35.1333 55.9723 35.64C55.4257 36.1333 54.799 36.5867 54.0923 37C53.399 37.4 52.679 37.7533 51.9323 38.06C51.199 38.3667 50.479 38.6 49.7723 38.76C49.0657 38.92 48.4323 39 47.8723 39H44.6523ZM55.4923 39C53.9323 39 52.5257 38.72 51.2723 38.16C50.019 37.5867 48.9657 36.7933 48.1123 35.78C47.259 34.7667 46.639 33.58 46.2523 32.22L48.1723 31.04C48.3723 32.12 48.779 33.0667 49.3923 33.88C50.019 34.68 50.8123 35.3 51.7723 35.74C52.7323 36.1667 53.8123 36.38 55.0123 36.38H59.5923V39H55.4923ZM59.5923 39V36.38C59.739 36.38 59.839 36.5 59.8923 36.74C59.959 36.98 59.9923 37.2933 59.9923 37.68C59.9923 38.08 59.959 38.4 59.8923 38.64C59.839 38.88 59.739 39 59.5923 39ZM44.6523 39C44.5057 39 44.4057 38.88 44.3523 38.64C44.2857 38.4 44.2523 38.0733 44.2523 37.66C44.2523 37.2733 44.2857 36.9667 44.3523 36.74C44.4057 36.5 44.5057 36.38 44.6523 36.38V39ZM77.9138 39C76.9538 39 76.1604 38.84 75.5338 38.52C74.9071 38.2 74.4404 37.7267 74.1338 37.1C73.8271 36.46 73.6738 35.6667 73.6738 34.72H75.9538C75.9538 35.1733 76.0004 35.52 76.0938 35.76C76.1871 36 76.3738 36.1667 76.6538 36.26C76.9471 36.34 77.3671 36.38 77.9138 36.38H78.7138V39H77.9138ZM59.5938 39C59.4471 39 59.3471 38.88 59.2937 38.64C59.2271 38.4 59.1937 38.0733 59.1937 37.66C59.1937 37.2733 59.2271 36.9667 59.2937 36.74C59.3471 36.5 59.4471 36.38 59.5938 36.38V39ZM72.3538 39C71.8738 39 71.4004 38.9067 70.9338 38.72C70.4804 38.52 70.0671 38.2133 69.6937 37.8C69.3338 37.3867 69.0671 36.86 68.8938 36.22L70.3538 35.3C70.4604 35.6867 70.6671 35.9867 70.9738 36.2C71.2938 36.4 71.6338 36.5 71.9938 36.5C72.4204 36.5 72.8071 36.3533 73.1538 36.06C73.5004 35.7667 73.6738 35.32 73.6738 34.72V29.2H75.9538V34.86C75.9538 35.7933 75.7804 36.5667 75.4338 37.18C75.0871 37.7933 74.6404 38.2533 74.0938 38.56C73.5471 38.8533 72.9671 39 72.3538 39ZM59.5938 39V36.38H60.6138C61.1738 36.38 61.5938 36.34 61.8738 36.26C62.1538 36.1667 62.3404 36 62.4338 35.76C62.5271 35.52 62.5738 35.1733 62.5738 34.72V31.18H64.8538V34.72C64.8538 35.6667 64.7004 36.46 64.3938 37.1C64.0871 37.7267 63.6204 38.2 62.9938 38.52C62.3804 38.84 61.5871 39 60.6138 39H59.5938ZM66.8138 39C66.3338 39 65.8604 38.9067 65.3938 38.72C64.9271 38.52 64.5138 38.2133 64.1538 37.8C63.7938 37.3867 63.5271 36.86 63.3538 36.22L64.8138 35.3C64.9071 35.6867 65.1138 35.9867 65.4338 36.2C65.7538 36.4 66.0938 36.5 66.4538 36.5C66.8804 36.5 67.2671 36.3533 67.6138 36.06C67.9604 35.7667 68.1338 35.32 68.1338 34.72V30.18H70.4138V34.86C70.4138 35.7933 70.2338 36.5667 69.8737 37.18C69.5271 37.7933 69.0804 38.2533 68.5338 38.56C67.9871 38.8533 67.4138 39 66.8138 39ZM78.7138 39V36.38C78.8604 36.38 78.9604 36.5 79.0138 36.74C79.0804 36.98 79.1138 37.2933 79.1138 37.68C79.1138 38.08 79.0804 38.4 79.0138 38.64C78.9604 38.88 78.8604 39 78.7138 39ZM78.7148 39V36.38H81.3748V22.36H83.6548V39H78.7148ZM78.7148 39C78.5682 39 78.4682 38.88 78.4148 38.64C78.3482 38.4 78.3148 38.0733 78.3148 37.66C78.3148 37.2733 78.3482 36.9667 78.4148 36.74C78.4682 36.5 78.5682 36.38 78.7148 36.38V39ZM86.4081 39V22.36H88.6881V39H86.4081ZM102.668 39C101.642 39 100.748 38.8533 99.9884 38.56C99.2284 38.2667 98.6018 37.8667 98.1084 37.36C97.6151 36.8533 97.2484 36.28 97.0084 35.64C96.7684 35 96.6484 34.3267 96.6484 33.62C96.6484 32.9667 96.7418 32.3133 96.9284 31.66C97.1284 30.9933 97.4218 30.3667 97.8084 29.78L99.6484 30.62C99.3951 31.1267 99.2084 31.6133 99.0884 32.08C98.9684 32.5467 98.9084 32.98 98.9084 33.38C98.9084 34.0333 99.0484 34.5867 99.3284 35.04C99.6084 35.48 100.028 35.8133 100.588 36.04C101.148 36.2667 101.835 36.38 102.648 36.38H110.468V29.2H112.748V39H102.668ZM106.188 28.66C105.815 28.66 105.508 28.54 105.268 28.3C105.028 28.06 104.908 27.76 104.908 27.4C104.908 27.0133 105.028 26.7067 105.268 26.48C105.508 26.24 105.815 26.12 106.188 26.12C106.548 26.12 106.848 26.24 107.088 26.48C107.328 26.7067 107.448 27.0133 107.448 27.4C107.448 27.76 107.328 28.06 107.088 28.3C106.848 28.54 106.548 28.66 106.188 28.66ZM103.228 28.66C102.855 28.66 102.548 28.54 102.308 28.3C102.068 28.06 101.948 27.76 101.948 27.4C101.948 27.0133 102.068 26.7067 102.308 26.48C102.548 26.24 102.855 26.12 103.228 26.12C103.588 26.12 103.888 26.24 104.128 26.48C104.382 26.7067 104.508 27.0133 104.508 27.4C104.508 27.76 104.382 28.06 104.128 28.3C103.888 28.54 103.588 28.66 103.228 28.66ZM117.945 39V36.38H120.325V39H117.945ZM115.705 39V22.36H117.985V39H115.705ZM120.325 39V36.38C120.458 36.38 120.558 36.5 120.625 36.74C120.692 36.98 120.725 37.2933 120.725 37.68C120.725 38.08 120.692 38.4 120.625 38.64C120.558 38.88 120.458 39 120.325 39ZM120.316 39V36.38H121.356C121.916 36.38 122.336 36.34 122.616 36.26C122.896 36.1667 123.083 36 123.176 35.76C123.27 35.52 123.316 35.1733 123.316 34.72V29.2H125.596V34.72C125.596 35.6667 125.443 36.46 125.136 37.1C124.83 37.7267 124.363 38.2 123.736 38.52C123.123 38.84 122.33 39 121.356 39H120.316ZM127.556 39C126.596 39 125.803 38.84 125.176 38.52C124.55 38.2 124.083 37.7267 123.776 37.1C123.47 36.46 123.316 35.6667 123.316 34.72H125.596C125.596 35.1733 125.643 35.52 125.736 35.76C125.843 36 126.036 36.1667 126.316 36.26C126.596 36.34 127.01 36.38 127.556 36.38H128.356V39H127.556ZM128.356 39V36.38C128.503 36.38 128.603 36.5 128.656 36.74C128.723 36.98 128.756 37.2933 128.756 37.68C128.756 38.08 128.723 38.4 128.656 38.64C128.603 38.88 128.503 39 128.356 39ZM120.316 39C120.17 39 120.07 38.88 120.016 38.64C119.95 38.4 119.916 38.0733 119.916 37.66C119.916 37.2733 119.95 36.9667 120.016 36.74C120.07 36.5 120.17 36.38 120.316 36.38V39ZM125.896 43.86C125.536 43.86 125.236 43.7333 124.996 43.48C124.756 43.24 124.636 42.94 124.636 42.58C124.636 42.2067 124.756 41.9 124.996 41.66C125.236 41.4333 125.536 41.32 125.896 41.32C126.27 41.32 126.576 41.4333 126.816 41.66C127.056 41.9 127.176 42.2067 127.176 42.58C127.176 42.94 127.056 43.24 126.816 43.48C126.576 43.7333 126.27 43.86 125.896 43.86ZM122.956 43.86C122.583 43.86 122.276 43.7333 122.036 43.48C121.796 43.24 121.676 42.94 121.676 42.58C121.676 42.2067 121.796 41.9 122.036 41.66C122.276 41.4333 122.583 41.32 122.956 41.32C123.316 41.32 123.616 41.4333 123.856 41.66C124.11 41.9 124.236 42.2067 124.236 42.58C124.236 42.94 124.11 43.24 123.856 43.48C123.616 43.7333 123.316 43.86 122.956 43.86ZM128.363 39V36.38H131.023V22.36H133.303V39H128.363ZM128.363 39C128.217 39 128.117 38.88 128.063 38.64C127.997 38.4 127.963 38.0733 127.963 37.66C127.963 37.2733 127.997 36.9667 128.063 36.74C128.117 36.5 128.217 36.38 128.363 36.38V39ZM138.297 39V36.38H140.677V39H138.297ZM136.057 39V22.36H138.337V39H136.057ZM140.677 39V36.38C140.81 36.38 140.91 36.5 140.977 36.74C141.043 36.98 141.077 37.2933 141.077 37.68C141.077 38.08 141.043 38.4 140.977 38.64C140.91 38.88 140.81 39 140.677 39ZM140.668 39V36.38H144.308C144.868 36.38 145.475 36.2867 146.128 36.1C146.781 35.9133 147.421 35.6733 148.048 35.38C148.688 35.0867 149.268 34.7667 149.788 34.42C150.321 34.0733 150.741 33.74 151.048 33.42C151.368 33.0867 151.528 32.7933 151.528 32.54C151.528 32.3 151.375 32.08 151.068 31.88C150.761 31.68 150.335 31.5133 149.788 31.38C149.241 31.2467 148.608 31.18 147.888 31.18C147.288 31.18 146.715 31.2333 146.168 31.34C145.635 31.4333 145.061 31.58 144.448 31.78L143.688 32.74L142.268 32.22L144.088 29.28C144.621 29.1067 145.201 28.9533 145.828 28.82C146.468 28.6867 147.181 28.62 147.968 28.62C149.128 28.62 150.148 28.7733 151.028 29.08C151.908 29.3867 152.588 29.8133 153.068 30.36C153.561 30.8933 153.808 31.5267 153.808 32.26C153.808 32.86 153.641 33.4467 153.308 34.02C152.988 34.5933 152.548 35.1333 151.988 35.64C151.441 36.1333 150.815 36.5867 150.108 37C149.415 37.4 148.695 37.7533 147.948 38.06C147.215 38.3667 146.495 38.6 145.788 38.76C145.081 38.92 144.448 39 143.888 39H140.668ZM151.508 39C149.948 39 148.541 38.72 147.288 38.16C146.035 37.5867 144.981 36.7933 144.128 35.78C143.275 34.7667 142.655 33.58 142.268 32.22L144.188 31.04C144.388 32.12 144.795 33.0667 145.408 33.88C146.035 34.68 146.828 35.3 147.788 35.74C148.748 36.1667 149.828 36.38 151.028 36.38H155.608V39H151.508ZM155.608 39V36.38C155.755 36.38 155.855 36.5 155.908 36.74C155.975 36.98 156.008 37.2933 156.008 37.68C156.008 38.08 155.975 38.4 155.908 38.64C155.855 38.88 155.755 39 155.608 39ZM140.668 39C140.521 39 140.421 38.88 140.368 38.64C140.301 38.4 140.268 38.0733 140.268 37.66C140.268 37.2733 140.301 36.9667 140.368 36.74C140.421 36.5 140.521 36.38 140.668 36.38V39ZM155.609 39V36.38H165.069V29.66H167.349V39H155.609ZM161.629 38.94C160.949 38.7 160.336 38.3467 159.789 37.88C159.256 37.4 158.836 36.8267 158.529 36.16C158.223 35.4933 158.069 34.76 158.069 33.96C158.069 32.92 158.309 32 158.789 31.2C159.269 30.3867 159.909 29.7533 160.709 29.3C161.523 28.8333 162.423 28.6 163.409 28.6C164.129 28.6 164.829 28.7133 165.509 28.94C166.203 29.1533 166.816 29.3933 167.349 29.66L166.349 31.98C165.803 31.7133 165.276 31.5133 164.769 31.38C164.263 31.2333 163.789 31.16 163.349 31.16C162.749 31.16 162.216 31.2867 161.749 31.54C161.296 31.78 160.936 32.1133 160.669 32.54C160.416 32.9533 160.289 33.4267 160.289 33.96C160.289 34.68 160.456 35.32 160.789 35.88C161.136 36.44 161.643 36.8867 162.309 37.22L161.629 38.94ZM155.609 39C155.463 39 155.363 38.88 155.309 38.64C155.243 38.4 155.209 38.0733 155.209 37.66C155.209 37.2733 155.243 36.9667 155.309 36.74C155.363 36.5 155.463 36.38 155.609 36.38V39ZM163.409 26C163.009 26 162.669 25.8667 162.389 25.6C162.109 25.32 161.969 24.9733 161.969 24.56C161.969 24.1467 162.109 23.8067 162.389 23.54C162.669 23.26 163.009 23.12 163.409 23.12C163.836 23.12 164.183 23.26 164.449 23.54C164.729 23.8067 164.869 24.1467 164.869 24.56C164.869 24.9733 164.729 25.32 164.449 25.6C164.183 25.8667 163.836 26 163.409 26Z" fill="#1B75BB"/>
<defs>
<clipPath id="clip0_255_40669">
<rect width="66" height="64" fill="white" transform="translate(184.5)"/>
</clipPath>
</defs>
</svg>
