<svg width="76" height="61" viewBox="0 0 76 61" fill="none" xmlns="http://www.w3.org/2000/svg">
<path d="M75.6556 0.162109H69.8789V43.3008H75.6556V0.162109Z" fill="black"/>
<path d="M62.0206 21.3037H55.5211C55.5211 21.3037 64.9261 50.5395 46.1816 47.2755V55.0725C46.1816 55.0725 58.6475 59.2056 62.5455 45.5764C66.4435 31.9473 62.0206 21.3037 62.0206 21.3037Z" fill="black"/>
<path d="M46.8892 8.96063L43.4702 13.218L39.9336 8.96063L43.4702 4.56152L46.8892 8.96063Z" fill="black"/>
<path d="M39.5684 9.1108C39.5684 9.1108 36.9489 12.286 36.0757 13.3445L32.4121 9.1108L36.0757 4.81836L39.5684 9.1108Z" fill="black"/>
<path d="M43.4117 17.9236C43.4117 17.9236 49.356 43.2482 34.7555 43.2482C34.7555 43.2482 21.0621 46.414 21.969 28.8395C21.969 28.8395 4.37607 33.0962 6.18972 43.6846C6.18972 43.6846 6.73382 55.4736 29.8585 49.2519V57.6568C29.8585 57.6568 2.01826 68.6814 0.295165 44.558C0.295165 44.558 -1.60912 28.8389 16.6185 23.0535C16.6185 23.0535 12.0161 21.2531 8.18476 20.8708C4.35339 20.4885 1.29277 21.5256 1.29277 21.5256V13.8849C1.29277 13.8849 4.59921 12.2001 9.09174 12.5749C11.3651 12.7642 16.6186 15.1947 16.6186 15.1947C16.6186 15.1947 20.8887 17.3542 22.8757 17.9236C26.4773 18.9543 29.3144 18.7968 29.3144 18.7968V27.3111L26.4125 27.8571C26.4125 27.8571 25.1429 34.7342 32.5791 34.0791C34.8619 33.8783 37.8084 33.8779 38.5642 31.6776C39.1083 27.0928 37.2039 17.9237 37.2039 17.9237L43.4117 17.9236Z" fill="black"/>
</svg>
