<svg width="500" height="208" viewBox="0 0 500 208" fill="none" xmlns="http://www.w3.org/2000/svg">
<path d="M214.878 97.7734C216.943 97.7734 218.623 99.4499 218.623 101.51C218.623 103.581 216.943 105.257 214.878 105.257C212.803 105.257 211.122 103.581 211.122 101.51C211.122 99.4499 212.803 97.7734 214.878 97.7734Z" fill="url(#paint0_linear_435_70334)"/>
<path d="M285.527 105.257C283.462 105.257 281.781 103.581 281.781 101.51C281.781 99.4499 283.462 97.7734 285.527 97.7734C287.602 97.7734 289.272 99.4499 289.272 101.51C289.272 103.581 287.602 105.257 285.527 105.257Z" fill="url(#paint1_linear_435_70334)"/>
<path d="M361.555 132.031L361.747 135.303H279.222C279.252 134.838 279.283 134.141 279.252 133.253C279.161 130.374 278.483 125.537 275.456 120.204C275.942 121.063 286.318 110.105 286.318 110.105C286.318 110.105 291.866 113.438 289.77 121.305C290.023 122.305 288.171 123.78 288.171 123.78L292.24 127.728L309.399 110.105L307.051 107.651L308.782 105.924L312.487 107.651V105.56L310.634 103.944L312.365 101.985L315.443 103.581L315.949 102.349L313.843 100.511L314.329 99.3895L316.81 99.0259L319.027 99.8944L321.507 97.7938L288.039 63.8093L285.822 65.1525L286.804 67.2633L286.187 69.7174L283.362 69.8386L281.742 68.6065L280.143 69.465L282.36 71.6767L281.996 73.6562L279.779 73.2926L278.544 72.1817L277.187 73.7875L279.161 75.868V77.4839L276.802 77.6051L275.203 76.1205L257.922 93.3601L261.385 96.9353L263.237 95.2083C263.237 95.2083 271.508 92.6229 274.585 98.8946C275.699 98.7734 264.098 110.105 264.098 110.105C264.098 110.105 259.653 105.187 249.156 105.803C248.791 105.439 238.253 106.318 233.313 110.256C233.06 109.539 223.453 99.955 223.453 99.955L223.635 97.6423C223.635 97.6423 229.749 92.2896 237.159 96.8141C237.534 96.8141 240.581 94.4105 240.581 94.4105L222.764 76.6355H221.317L219.383 77.0395L220.122 74.3632L220.77 73.7168L219.758 72.6968L218.624 73.7168L216.336 73.8077L216.7 70.5759L217.257 69.7477L216.235 69.1014L214.382 70.1214L212.074 70.2022L213.177 65.9605L210.495 64.0315L176.987 97.4605L178.556 100.511L179.669 100.41L182.251 98.7532L183.091 99.3895L182.818 101.147L181.795 103.086L183.192 103.46L184.751 102.631H186.513L186.432 105.217L185.591 107.237L186.887 107.711L188.932 105.863L189.479 107.711L189.114 110.014L206.79 127.749L210.404 124.8C210.404 124.8 203.935 115.478 212.246 110.206C212.246 110.256 222.997 120.184 222.997 120.184C222.997 120.184 219.272 125.204 218.695 133.253C218.644 133.909 218.614 134.606 218.614 135.303H134.246V124.941L113.463 112.206L119.699 87.9065H145.533L155.343 69.2327L142.871 47.9028L160.394 30.1177L181.785 42.2673L199.885 32.5012L200.776 7.01029L224.242 0.789062L237.321 21.8261H258.985L272.358 0.789062L295.53 6.41443V32.5012L313.631 41.9643L336.803 29.5219L354.327 48.1956L340.67 69.8184L350.773 85.8361L378.683 88.7851L383.441 112.498L361.15 124.941L361.555 132.031Z" fill="url(#paint2_linear_435_70334)"/>
<path d="M218.615 135.302C218.615 135.524 218.625 135.746 218.625 135.968H154.23V135.302H218.615Z" fill="url(#paint3_linear_435_70334)"/>
<path d="M343.342 135.968H279.16C279.16 135.968 279.191 135.736 279.221 135.302H343.301L343.342 135.968Z" fill="url(#paint4_linear_435_70334)"/>
<path d="M289.272 101.51C289.272 103.581 287.602 105.257 285.527 105.257C283.462 105.257 281.781 103.581 281.781 101.51C281.781 99.4499 283.462 97.7734 285.527 97.7734C287.602 97.7734 289.272 99.4499 289.272 101.51Z" fill="url(#paint5_linear_435_70334)"/>
<path d="M218.623 101.51C218.623 103.581 216.943 105.257 214.878 105.257C212.803 105.257 211.122 103.581 211.122 101.51C211.122 99.4499 212.803 97.7734 214.878 97.7734C216.943 97.7734 218.623 99.4499 218.623 101.51Z" fill="url(#paint6_linear_435_70334)"/>
<path d="M36.4743 146.664C35.057 145.371 33.3968 144.391 31.4733 143.715C29.5499 143.038 27.505 142.695 25.3083 142.654H24.8021C22.4839 142.654 20.1859 142.836 17.9081 143.21C15.6405 143.583 13.221 143.967 10.6598 144.371C10.0828 144.472 9.3033 144.573 8.31122 144.674C7.31914 144.775 6.2967 144.876 5.254 144.977C4.2113 145.078 3.20909 145.169 2.24737 145.25C1.28566 145.331 0.536535 145.391 0 145.422C0.435302 145.725 0.840231 146.199 1.21479 146.835C1.51849 147.411 1.79183 148.189 2.04491 149.178C2.29799 150.168 2.41947 151.471 2.41947 153.087V186.587C2.41947 187.597 2.39922 188.546 2.36885 189.435C2.33848 190.323 2.23724 191.162 2.06515 191.949C1.89305 192.737 1.65009 193.474 1.33627 194.161C1.01232 194.848 0.566905 195.484 0 196.05C1.41726 195.979 2.79403 195.919 4.14043 195.848C5.48683 195.777 6.86359 195.747 8.28085 195.747C9.65762 195.747 11.0344 195.777 12.401 195.848C13.7677 195.919 15.1546 195.979 16.5718 196.05C15.4583 194.909 14.7901 193.596 14.5472 192.121C14.3143 190.647 14.1929 189 14.1929 187.183V174.185L14.0916 173.427C14.365 173.498 14.6585 173.548 14.9724 173.579C15.2963 173.609 15.6709 173.629 16.1062 173.629C16.5415 173.629 16.997 173.609 17.4728 173.579C17.9486 173.548 18.4649 173.528 19.0419 173.528C21.5019 173.528 24.0226 173.195 26.6142 172.518C29.2057 171.842 31.5746 170.852 33.7106 169.519C35.8466 168.196 37.5979 166.56 38.9646 164.631C40.3312 162.702 41.0095 160.47 41.0095 157.955C41.0095 155.501 40.6046 153.329 39.7947 151.431C39.0051 149.552 37.8915 147.956 36.4743 146.664ZM29.7119 157.066C29.7119 159.046 29.479 160.884 29.0033 162.56C28.5275 164.237 27.7885 165.701 26.7862 166.943C25.784 168.186 24.4781 169.175 22.8989 169.913C21.3197 170.65 19.4165 171.094 17.1894 171.225H16.6326C16.0252 171.225 15.5494 171.185 15.1951 171.104C14.8408 171.024 14.4763 170.933 14.1119 170.832L14.2131 169.115V146.997C14.3447 146.896 14.4864 146.745 14.6383 146.543C14.7901 146.341 15.0128 146.139 15.3165 145.937C15.6202 145.735 16.0353 145.553 16.582 145.381C17.1185 145.209 17.8575 145.129 18.799 145.129C21.1172 145.129 22.99 145.442 24.4073 146.058C25.8245 146.684 26.9178 147.502 27.6872 148.522C28.4566 149.542 28.983 150.744 29.2563 152.097C29.5297 153.461 29.6815 154.875 29.7119 156.349V157.066Z" fill="white"/>
<path d="M68.6252 163.619C67.7647 163.215 66.9143 162.862 66.0741 162.559C65.2339 162.256 64.3228 162.104 63.3509 162.104C62.207 162.104 60.9011 162.377 59.4332 162.933C57.9653 163.488 56.457 164.145 54.9182 164.902C53.3694 165.659 51.8407 166.417 50.3222 167.195C48.8037 167.972 47.4472 168.558 46.2324 168.962V188.615C46.2324 189.757 46.4653 190.696 46.941 191.433C47.4168 192.17 48.0344 192.786 48.8139 193.271C49.5832 193.756 50.4741 194.15 51.4662 194.453C52.4583 194.756 53.4605 195.039 54.4728 195.311C55.4851 195.584 56.4671 195.887 57.4288 196.22C58.3905 196.554 59.2409 196.978 59.9799 197.483C61.0934 197.008 62.1361 196.463 63.108 195.847C64.0798 195.22 65.082 194.625 66.0842 194.059C66.6208 193.756 67.3496 193.332 68.281 192.776C69.2022 192.221 70.1234 191.605 71.0345 190.938C71.9456 190.272 72.7251 189.565 73.3831 188.817C74.0411 188.08 74.3651 187.343 74.3651 186.606V165.498C73.2515 165.397 72.2392 165.165 71.3078 164.791C70.3664 164.407 69.4755 164.023 68.6252 163.619ZM64.5556 192.736C64.5556 192.908 64.4037 193.14 64.1 193.443C63.7963 193.746 63.4319 194.049 63.0169 194.352C62.5917 194.655 62.1361 194.928 61.6502 195.16C61.1643 195.392 60.7492 195.513 60.4152 195.513C59.5749 195.513 58.8764 195.291 58.3196 194.857C57.7629 194.423 57.3174 193.877 56.9834 193.221C56.6493 192.564 56.4063 191.857 56.2747 191.1C56.1431 190.342 56.0723 189.646 56.0723 189.009V168.81C56.0723 167.467 56.4671 166.356 57.2567 165.488C58.0463 164.619 59.0283 164.175 60.2127 164.175C61.8932 164.175 63.0371 164.559 63.6445 165.336C64.2519 166.114 64.5556 167.265 64.5556 168.81V192.736Z" fill="white"/>
<path d="M113.898 162.911C114.1 163.183 114.333 163.648 114.607 164.325C114.88 165.001 115.012 165.799 115.012 166.738C115.012 167.213 114.981 167.688 114.91 168.173C114.839 168.657 114.708 169.193 114.505 169.758C113.999 171.303 113.513 172.798 113.037 174.242C112.633 175.484 112.207 176.767 111.752 178.1C111.296 179.423 110.881 180.544 110.517 181.453V180.494C110.112 179.383 109.626 178.09 109.049 176.616C108.472 175.141 107.875 173.626 107.257 172.081C106.629 170.536 106.032 169.021 105.435 167.526C104.848 166.031 104.311 164.729 103.846 163.618C103.846 163.547 103.825 163.416 103.765 163.214C103.714 163.012 103.643 162.81 103.542 162.608C103.441 162.406 103.319 162.224 103.188 162.052C103.056 161.881 102.904 161.8 102.732 161.8L98.4903 162.81C98.7636 163.082 98.9965 163.385 99.199 163.719C99.4014 164.052 99.5026 164.405 99.5026 164.779C99.5026 165.355 99.4014 166.112 99.199 167.072C98.9965 168.031 98.713 169.041 98.3385 170.122C97.6298 172.071 96.9718 173.848 96.3644 175.464C96.0911 176.141 95.838 176.808 95.6052 177.484C95.3723 178.161 95.1395 178.767 94.9269 179.322C94.7042 179.878 94.522 180.352 94.3701 180.756C94.2183 181.16 94.1272 181.413 94.0968 181.514V180.655L90.3107 170.223C89.8754 168.95 89.4806 167.799 89.1263 166.769C88.7719 165.739 88.3974 164.87 88.0127 164.153C87.628 163.436 87.1927 162.88 86.727 162.487C86.2512 162.103 85.6641 161.911 84.9555 161.911C84.7226 161.911 84.4797 161.921 84.2468 161.941C84.014 161.961 83.7609 162.012 83.4876 162.113L75.7129 164.527C76.4215 164.729 77.0897 165.294 77.7072 166.213C78.3247 167.142 78.9017 168.173 79.4282 169.314C79.9546 170.455 80.4 171.586 80.7644 172.687C81.139 173.798 81.4224 174.616 81.6249 175.151C83.0725 179.05 84.3683 182.554 85.5122 185.685C86.0184 187.028 86.5043 188.351 86.9801 189.644C87.4559 190.937 87.8811 192.108 88.2658 193.169C88.6505 194.229 88.9744 195.108 89.2275 195.815C89.4806 196.522 89.6426 196.936 89.7033 197.077C89.7742 196.946 89.9462 196.542 90.2297 195.865C90.5131 195.188 90.8675 194.35 91.2927 193.35C91.7178 192.34 92.1835 191.219 92.7099 189.977C93.2363 188.735 93.7627 187.472 94.2993 186.2C95.5444 183.211 96.9212 179.868 98.4397 176.171L106.214 197.077C106.548 196.239 106.974 195.209 107.48 194.007C107.986 192.795 108.533 191.482 109.12 190.048C109.707 188.624 110.324 187.139 110.962 185.584C111.6 184.039 112.228 182.514 112.835 180.999C114.252 177.504 115.761 173.798 117.38 169.869C117.482 169.637 117.603 169.283 117.755 168.809C117.907 168.334 118.069 167.799 118.231 167.193C118.403 166.587 118.545 165.971 118.656 165.355C118.777 164.739 118.828 164.153 118.828 163.618C118.828 162.779 118.646 162.224 118.271 161.951L113.898 162.911Z" fill="white"/>
<path d="M137.455 181.979C139.186 181.05 140.776 179.979 142.223 178.757C143.671 177.535 144.865 176.141 145.807 174.576C146.748 173.011 147.224 171.243 147.224 169.264C147.224 168.223 146.991 167.264 146.515 166.395C146.04 165.517 145.432 164.769 144.673 164.123C143.914 163.487 143.053 162.992 142.102 162.638C141.15 162.285 140.158 162.113 139.146 162.113C138.467 162.113 137.678 162.255 136.777 162.537C135.866 162.82 134.904 163.194 133.902 163.648C132.889 164.103 131.847 164.598 130.774 165.133C129.701 165.668 128.658 166.193 127.666 166.698C126.674 167.203 125.742 167.668 124.892 168.082C124.042 168.496 123.303 168.799 122.695 168.961V188.564C122.695 190.038 122.928 191.21 123.404 192.068C123.88 192.927 124.497 193.593 125.277 194.088C126.046 194.573 126.917 194.926 127.878 195.148C128.84 195.371 129.802 195.573 130.784 195.754C131.756 195.936 132.687 196.138 133.558 196.36C134.428 196.582 135.177 196.956 135.785 197.491C136.19 197.057 136.817 196.461 137.678 195.704C138.538 194.946 139.51 194.118 140.603 193.209C141.697 192.3 142.82 191.371 143.964 190.412C145.108 189.452 146.151 188.553 147.092 187.715L145.776 186.705L138.812 192.351C138.579 192.553 138.204 192.826 137.698 193.179C137.192 193.532 136.655 193.704 136.078 193.704C135.876 193.704 135.704 193.684 135.572 193.654C134.793 193.421 134.206 193.169 133.801 192.896C133.396 192.624 133.102 192.321 132.92 191.987C132.738 191.654 132.626 191.27 132.596 190.826C132.566 190.392 132.545 189.866 132.545 189.26V184.372C134.074 183.706 135.724 182.908 137.455 181.979ZM132.525 167.799C132.525 167.062 132.727 166.426 133.132 165.88C133.537 165.335 134.003 165.072 134.55 165.072C135.39 165.072 136.129 165.335 136.767 165.85C137.404 166.375 137.941 167.011 138.386 167.769C138.822 168.526 139.156 169.344 139.399 170.233C139.632 171.122 139.753 171.94 139.753 172.677V172.778C139.753 173.788 139.53 174.828 139.095 175.899C138.66 176.969 138.093 177.979 137.404 178.919C136.716 179.858 135.937 180.686 135.086 181.383C134.226 182.09 133.375 182.565 132.535 182.797V167.799H132.525Z" fill="white"/>
<path d="M171.567 164.246C171.061 163.62 170.504 163.065 169.897 162.56C169.289 162.055 168.702 161.651 168.125 161.348C167.285 163.024 166.526 164.519 165.847 165.812C165.169 167.104 164.572 168.286 164.025 169.367C163.489 170.447 162.992 171.417 162.537 172.285C162.081 173.164 161.656 174.002 161.251 174.8C161.282 174.628 161.383 174.335 161.525 173.921C161.676 173.497 161.747 173.154 161.747 172.891L162.102 165.993C162.102 165.822 162.112 165.63 162.122 165.418C162.142 165.196 162.142 164.973 162.142 164.741C162.142 164.135 162.061 163.549 161.889 162.974C161.717 162.398 161.353 162.055 160.775 161.913L149.468 166.599C150.409 166.832 151.108 167.175 151.563 167.609C152.019 168.044 152.242 168.7 152.242 169.579V196.079C152.95 196.009 153.709 195.948 154.54 195.908C155.36 195.857 156.2 195.837 157.04 195.837C157.911 195.837 158.771 195.857 159.611 195.908C160.452 195.958 161.282 196.019 162.081 196.079V183.486C162.081 181.809 162.142 180.425 162.253 179.355C162.375 178.284 162.557 177.335 162.81 176.507C163.063 175.689 163.387 174.921 163.772 174.214C164.157 173.507 164.622 172.699 165.159 171.801C165.331 171.528 165.513 171.397 165.716 171.397C166.019 171.397 166.353 171.568 166.728 171.902C167.103 172.235 167.457 172.619 167.811 173.063C168.166 173.497 168.51 173.901 168.844 174.275C169.178 174.649 169.482 174.851 169.755 174.881C169.988 174.75 170.291 174.447 170.666 173.972C171.041 173.497 171.405 172.952 171.78 172.306C172.154 171.669 172.468 170.993 172.741 170.286C173.015 169.579 173.177 168.942 173.247 168.367V168.114C173.247 167.508 173.085 166.872 172.772 166.195C172.478 165.519 172.063 164.872 171.567 164.246Z" fill="white"/>
<path d="M214.392 170.699C213.552 169.679 212.661 168.831 211.719 168.154C210.778 167.488 209.988 166.962 209.35 166.589L204.096 163.67C203.418 163.296 202.77 162.943 202.153 162.589C201.525 162.236 200.968 161.913 200.462 161.63C199.956 161.347 199.389 161.014 198.741 160.65C198.033 160.246 197.324 159.822 196.615 159.368C195.907 158.913 195.289 158.398 194.743 157.802C194.206 157.217 193.771 156.55 193.426 155.813C193.092 155.075 192.92 154.217 192.92 153.248C192.92 152.339 193.092 151.48 193.447 150.652C193.801 149.834 194.317 149.107 194.985 148.491C195.664 147.865 196.463 147.38 197.405 147.026C198.346 146.673 199.409 146.501 200.584 146.501H201.039C202.456 146.572 203.712 146.875 204.805 147.43C205.898 147.986 206.83 148.662 207.579 149.47C208.328 150.278 208.905 151.147 209.3 152.086C209.685 153.025 209.877 153.914 209.877 154.752V154.853L210.282 155.863C210.383 156.136 210.484 156.388 210.585 156.621C210.687 156.853 210.768 157.025 210.839 157.126C211.041 156.792 211.355 156.197 211.8 155.338C212.236 154.48 212.701 153.571 213.187 152.591C213.673 151.621 214.129 150.702 214.554 149.844C214.979 148.986 215.273 148.41 215.435 148.107C215.262 147.804 214.858 147.4 214.2 146.895C213.542 146.39 212.61 145.885 211.395 145.38C210.181 144.875 208.662 144.451 206.83 144.097C204.997 143.744 202.811 143.572 200.29 143.572C198.306 143.572 196.413 143.976 194.611 144.784C192.809 145.592 191.22 146.653 189.843 147.986C188.466 149.309 187.332 150.824 186.462 152.52C185.591 154.217 185.085 155.974 184.943 157.782C184.943 157.984 184.933 158.176 184.923 158.358C184.903 158.54 184.903 158.721 184.903 158.883C184.903 160.559 185.136 162.064 185.611 163.387C186.087 164.71 186.735 165.912 187.585 166.993C188.426 168.063 189.408 169.013 190.541 169.841C191.665 170.669 192.87 171.406 194.155 172.083C194.155 172.113 194.327 172.224 194.662 172.406C194.996 172.588 195.431 172.83 195.947 173.113C196.474 173.396 197.061 173.719 197.719 174.072C198.377 174.426 199.055 174.769 199.764 175.103C201.383 175.941 203.216 176.88 205.271 177.92C206.789 178.698 207.842 179.657 208.449 180.819C209.057 181.98 209.361 183.182 209.361 184.424C209.361 185.535 209.148 186.616 208.733 187.676C208.308 188.737 207.751 189.676 207.042 190.494C206.334 191.322 205.514 191.989 204.572 192.514C203.631 193.039 202.639 193.292 201.596 193.292C200.32 193.292 198.984 193.069 197.607 192.615C196.231 192.16 194.965 191.494 193.821 190.625C192.677 189.757 191.706 188.656 190.916 187.353C190.126 186.04 189.661 184.535 189.529 182.819L188.82 180.708C188.517 181.415 188.172 182.344 187.788 183.505C187.403 184.667 187.008 185.828 186.603 187.01C186.198 188.191 185.824 189.282 185.47 190.312C185.115 191.332 184.822 192.07 184.589 192.504C185.632 193.382 186.765 194.069 187.97 194.594C189.175 195.12 190.379 195.513 191.554 195.776C192.728 196.049 193.872 196.23 194.965 196.331C196.059 196.432 197.03 196.483 197.871 196.483H199.288C201.606 196.412 203.854 195.978 206.03 195.17C208.207 194.362 210.13 193.221 211.81 191.746C213.491 190.272 214.847 188.484 215.88 186.404C216.902 184.323 217.449 181.97 217.52 179.354V179.102C217.52 177.284 217.216 175.688 216.609 174.315C216.001 172.941 215.232 171.719 214.392 170.699Z" fill="white"/>
<path d="M245.854 163.993C245.277 163.741 244.771 163.498 244.315 163.266C243.859 163.034 243.353 162.832 242.797 162.66C242.24 162.488 241.572 162.357 240.802 162.256C240.023 162.155 239.051 162.104 237.877 162.104C236.358 162.104 234.597 162.337 232.572 162.811C230.547 163.286 228.604 163.801 226.711 164.377C224.524 165.013 222.266 165.75 219.948 166.599C220.424 166.7 220.829 166.821 221.183 166.952C221.538 167.083 221.821 167.255 222.044 167.457C222.266 167.659 222.428 167.932 222.55 168.265C222.671 168.598 222.722 169.033 222.722 169.578V207.208C223.431 207.138 224.2 207.077 225.04 207.037C225.88 206.996 226.741 206.966 227.612 206.966C228.492 206.966 229.343 206.986 230.183 207.037C231.023 207.087 231.813 207.148 232.552 207.208V193.756L232.248 193.352C233.22 194.059 234.242 194.776 235.305 195.493C236.368 196.21 237.219 196.857 237.856 197.432C238.535 196.927 239.324 196.554 240.225 196.321C241.136 196.089 242.068 195.887 243.029 195.715C243.991 195.544 244.933 195.352 245.854 195.14C246.775 194.917 247.605 194.564 248.324 194.079C249.043 193.594 249.64 192.918 250.095 192.059C250.551 191.201 250.774 190.039 250.774 188.555V165.478C249.599 165.245 248.617 165.003 247.848 164.751C247.099 164.498 246.421 164.246 245.854 163.993ZM241.005 188.908C241.005 189.514 240.984 190.151 240.934 190.827C240.883 191.504 240.762 192.14 240.559 192.746C240.357 193.352 240.043 193.907 239.628 194.412C239.213 194.917 238.626 195.301 237.887 195.574C237.583 195.342 237.198 195.049 236.723 194.695C236.247 194.342 235.751 193.978 235.204 193.584C234.668 193.201 234.141 192.817 233.635 192.423C233.129 192.039 232.704 191.676 232.37 191.342C232.471 191.14 232.532 190.918 232.542 190.666C232.562 190.413 232.572 190.05 232.572 189.585V168.477C232.572 167.801 232.633 167.164 232.744 166.538C232.866 165.922 233.068 165.367 233.372 164.902C233.675 164.437 234.09 164.064 234.607 163.791C235.133 163.518 235.791 163.387 236.601 163.387C238.018 163.387 239.102 163.801 239.861 164.619C240.62 165.447 240.995 166.629 240.995 168.174V188.908H241.005Z" fill="white"/>
<path d="M277.458 162.104C276.851 162.104 276.193 162.145 275.484 162.226C274.776 162.306 274.067 162.428 273.358 162.579C272.65 162.731 271.951 162.923 271.263 163.155C270.574 163.387 269.957 163.64 269.42 163.912C267.598 164.882 265.796 165.821 263.994 166.71C262.192 167.599 260.37 168.346 258.518 168.952V188.555C258.518 190.029 258.75 191.201 259.226 192.059C259.702 192.918 260.32 193.584 261.099 194.079C261.868 194.564 262.739 194.917 263.701 195.14C264.662 195.362 265.624 195.564 266.606 195.746C267.578 195.927 268.509 196.129 269.38 196.352C270.25 196.574 271 196.947 271.597 197.483C272.002 197.048 272.478 196.634 273.034 196.251C273.591 195.867 274.158 195.483 274.755 195.089C275.342 194.705 275.909 194.311 276.446 193.907C276.982 193.503 277.438 193.1 277.813 192.696C278.248 193.574 278.876 194.281 279.685 194.837C280.495 195.392 281.356 195.847 282.287 196.2C283.208 196.554 284.16 196.816 285.142 197.008C286.114 197.19 286.994 197.351 287.764 197.483C287.288 196.543 286.984 195.685 286.853 194.917C286.721 194.15 286.65 193.322 286.65 192.453V189.484V166.589C286.65 165.952 286.792 165.367 287.075 164.852C287.359 164.326 287.895 164.054 288.665 164.023L289.07 163.922V163.72C287.146 163.387 285.233 163.034 283.31 162.66C281.386 162.286 279.453 162.104 277.458 162.104ZM285.091 167.043L275.646 168.659C275.92 168.73 276.132 168.911 276.304 169.214C276.476 169.517 276.598 169.871 276.679 170.275C276.76 170.679 276.81 171.093 276.831 171.507C276.851 171.931 276.861 172.254 276.861 172.487V189.11C276.861 189.413 276.881 189.777 276.932 190.191C276.982 190.615 277.094 190.958 277.266 191.221L271.506 195.554C270.797 195.321 270.23 194.988 269.815 194.544C269.39 194.109 269.086 193.604 268.884 193.029C268.681 192.453 268.55 191.807 268.479 191.09C268.408 190.373 268.378 189.585 268.378 188.747V168.104C268.378 167.063 268.59 166.276 269.005 165.74C269.43 165.205 270.119 164.932 271.101 164.932C272.144 164.932 273.267 165.023 274.462 165.205C275.656 165.387 276.861 165.599 278.076 165.831C279.291 166.063 280.495 166.296 281.69 166.508C282.884 166.73 284.018 166.851 285.101 166.882V167.043H285.091Z" fill="white"/>
<path d="M315.39 164.246C314.884 163.62 314.327 163.065 313.72 162.56C313.113 162.055 312.526 161.651 311.949 161.348C311.108 163.024 310.349 164.519 309.681 165.812C309.003 167.104 308.405 168.286 307.859 169.367C307.322 170.447 306.826 171.417 306.371 172.285C305.915 173.164 305.49 174.002 305.085 174.8C305.115 174.628 305.217 174.335 305.358 173.921C305.51 173.497 305.581 173.154 305.581 172.891L305.935 165.993C305.935 165.822 305.945 165.63 305.956 165.418C305.976 165.196 305.986 164.973 305.986 164.741C305.986 164.135 305.905 163.549 305.733 162.974C305.561 162.398 305.196 162.055 304.619 161.913L293.312 166.599C294.253 166.832 294.951 167.175 295.407 167.609C295.863 168.044 296.085 168.7 296.085 169.579V196.079C296.794 196.009 297.553 195.948 298.383 195.908C299.203 195.857 300.043 195.837 300.884 195.837C301.754 195.837 302.615 195.857 303.455 195.908C304.295 195.958 305.125 196.019 305.925 196.079V183.486C305.925 181.809 305.986 180.425 306.097 179.355C306.209 178.284 306.401 177.335 306.654 176.507C306.907 175.689 307.231 174.921 307.616 174.214C308 173.507 308.466 172.699 309.003 171.801C309.175 171.528 309.357 171.397 309.559 171.397C309.863 171.397 310.197 171.568 310.572 171.902C310.946 172.235 311.301 172.619 311.655 173.063C312.009 173.497 312.353 173.901 312.688 174.275C313.022 174.649 313.325 174.851 313.599 174.881C313.831 174.75 314.135 174.447 314.51 173.972C314.884 173.497 315.249 172.952 315.623 172.306C315.998 171.669 316.312 170.993 316.585 170.286C316.858 169.579 317.02 168.942 317.091 168.367V168.114C317.091 167.508 316.929 166.872 316.615 166.195C316.302 165.519 315.897 164.872 315.39 164.246Z" fill="white"/>
<path d="M334.907 181.979C336.638 181.05 338.227 179.979 339.675 178.757C341.122 177.535 342.317 176.141 343.258 174.576C344.2 173.011 344.676 171.243 344.676 169.264C344.676 168.223 344.443 167.264 343.967 166.395C343.491 165.517 342.884 164.769 342.125 164.123C341.365 163.487 340.505 162.992 339.553 162.638C338.592 162.285 337.61 162.113 336.597 162.113C335.919 162.113 335.129 162.255 334.229 162.537C333.317 162.82 332.356 163.194 331.353 163.648C330.341 164.103 329.298 164.598 328.225 165.133C327.152 165.668 326.11 166.193 325.118 166.698C324.125 167.203 323.194 167.668 322.344 168.082C321.483 168.506 320.754 168.799 320.147 168.961V188.564C320.147 190.038 320.38 191.21 320.856 192.068C321.331 192.927 321.949 193.593 322.728 194.088C323.498 194.573 324.368 194.926 325.33 195.148C326.292 195.371 327.254 195.573 328.236 195.754C329.207 195.936 330.139 196.138 331.009 196.36C331.88 196.582 332.629 196.956 333.226 197.491C333.631 197.057 334.259 196.461 335.119 195.704C335.98 194.946 336.952 194.118 338.045 193.209C339.138 192.3 340.262 191.371 341.406 190.412C342.55 189.452 343.593 188.553 344.534 187.715L343.218 186.705L336.253 192.351C336.02 192.553 335.646 192.826 335.14 193.179C334.633 193.532 334.097 193.704 333.52 193.704C333.317 193.704 333.145 193.684 333.014 193.654C332.234 193.421 331.647 193.169 331.242 192.896C330.837 192.624 330.544 192.321 330.361 191.987C330.179 191.654 330.068 191.27 330.037 190.826C330.007 190.392 329.987 189.866 329.987 189.26V184.372C331.526 183.706 333.176 182.908 334.907 181.979ZM329.977 167.799C329.977 167.062 330.179 166.426 330.584 165.88C330.989 165.335 331.455 165.072 332.001 165.072C332.842 165.072 333.581 165.335 334.229 165.85C334.866 166.375 335.403 167.011 335.848 167.769C336.284 168.526 336.618 169.344 336.861 170.233C337.093 171.122 337.215 171.94 337.215 172.677V172.778C337.215 173.788 336.992 174.828 336.557 175.899C336.122 176.969 335.555 177.979 334.866 178.919C334.178 179.858 333.398 180.686 332.548 181.383C331.688 182.09 330.837 182.565 329.997 182.797V167.799H329.977Z" fill="white"/>
<path d="M384.219 163.993C383.642 163.741 383.136 163.498 382.68 163.266C382.225 163.034 381.719 162.832 381.162 162.66C380.605 162.488 379.937 162.357 379.167 162.256C378.388 162.155 377.416 162.104 376.242 162.104C374.723 162.104 372.962 162.337 370.937 162.811C368.913 163.286 366.969 163.801 365.076 164.377C362.889 165.013 360.632 165.75 358.313 166.599C358.789 166.7 359.194 166.821 359.548 166.952C359.903 167.083 360.186 167.255 360.409 167.457C360.632 167.659 360.794 167.932 360.915 168.265C361.037 168.598 361.087 169.033 361.087 169.578V207.208C361.796 207.138 362.565 207.077 363.406 207.037C364.246 206.996 365.106 206.966 365.977 206.966C366.858 206.966 367.708 206.986 368.548 207.037C369.388 207.087 370.178 207.148 370.917 207.208V193.756L370.613 193.352C371.585 194.059 372.608 194.776 373.671 195.493C374.733 196.21 375.584 196.857 376.222 197.432C376.9 196.927 377.69 196.554 378.59 196.321C379.502 196.089 380.433 195.887 381.395 195.715C382.356 195.544 383.298 195.352 384.219 195.14C385.14 194.917 385.97 194.564 386.689 194.079C387.408 193.594 388.005 192.918 388.461 192.059C388.916 191.201 389.139 190.039 389.139 188.555V165.478C387.965 165.245 386.983 165.003 386.213 164.751C385.464 164.498 384.796 164.246 384.219 163.993ZM379.37 188.908C379.37 189.514 379.35 190.151 379.299 190.827C379.248 191.504 379.127 192.14 378.924 192.746C378.722 193.352 378.408 193.907 377.993 194.412C377.578 194.917 376.991 195.301 376.252 195.574C375.948 195.342 375.564 195.049 375.088 194.695C374.612 194.342 374.116 193.978 373.569 193.584C373.033 193.201 372.506 192.817 372 192.423C371.494 192.039 371.069 191.676 370.735 191.342C370.836 191.14 370.897 190.918 370.907 190.666C370.927 190.413 370.937 190.05 370.937 189.585V168.477C370.937 167.801 370.998 167.164 371.109 166.538C371.231 165.922 371.433 165.367 371.737 164.902C372.041 164.437 372.456 164.064 372.972 163.791C373.498 163.518 374.156 163.387 374.966 163.387C376.384 163.387 377.467 163.801 378.226 164.619C378.985 165.447 379.36 166.629 379.36 168.174V188.908H379.37Z" fill="white"/>
<path d="M415.838 162.104C415.23 162.104 414.572 162.145 413.864 162.226C413.155 162.306 412.446 162.428 411.738 162.579C411.029 162.731 410.331 162.923 409.642 163.155C408.954 163.387 408.336 163.64 407.8 163.912C405.978 164.882 404.176 165.821 402.374 166.71C400.572 167.599 398.75 168.346 396.897 168.952V188.555C396.897 190.029 397.13 191.201 397.606 192.059C398.081 192.918 398.699 193.584 399.478 194.079C400.248 194.564 401.118 194.917 402.08 195.14C403.042 195.362 404.004 195.564 404.985 195.746C405.957 195.927 406.889 196.129 407.759 196.352C408.63 196.574 409.379 196.947 409.976 197.483C410.381 197.048 410.857 196.634 411.414 196.251C411.971 195.867 412.538 195.483 413.135 195.089C413.722 194.705 414.289 194.311 414.825 193.907C415.362 193.503 415.817 193.1 416.192 192.696C416.627 193.574 417.255 194.281 418.065 194.837C418.875 195.392 419.735 195.847 420.667 196.2C421.588 196.554 422.539 196.816 423.521 197.008C424.493 197.19 425.374 197.351 426.143 197.483C425.667 196.543 425.364 195.685 425.232 194.917C425.1 194.15 425.03 193.322 425.03 192.453V189.484V166.589C425.03 165.952 425.171 165.367 425.455 164.852C425.738 164.326 426.275 164.054 427.044 164.023L427.449 163.922V163.72C425.526 163.387 423.612 163.034 421.689 162.66C419.765 162.286 417.822 162.104 415.838 162.104ZM423.46 167.043L414.016 168.659C414.289 168.73 414.501 168.911 414.673 169.214C414.846 169.517 414.967 169.871 415.048 170.275C415.129 170.679 415.18 171.093 415.2 171.507C415.22 171.931 415.23 172.254 415.23 172.487V189.11C415.23 189.413 415.251 189.777 415.301 190.191C415.352 190.615 415.463 190.958 415.635 191.221L409.875 195.554C409.166 195.321 408.6 194.988 408.184 194.544C407.759 194.109 407.456 193.604 407.253 193.029C407.051 192.453 406.919 191.807 406.848 191.09C406.777 190.373 406.747 189.585 406.747 188.747V168.104C406.747 167.063 406.96 166.276 407.375 165.74C407.8 165.205 408.488 164.932 409.47 164.932C410.513 164.932 411.636 165.023 412.831 165.205C414.026 165.387 415.23 165.599 416.445 165.831C417.66 166.063 418.865 166.296 420.059 166.508C421.254 166.73 422.387 166.851 423.471 166.882V167.043H423.46Z" fill="white"/>
<path d="M453.758 164.246C453.252 163.62 452.695 163.065 452.088 162.56C451.48 162.055 450.893 161.651 450.316 161.348C449.476 163.024 448.717 164.519 448.049 165.812C447.37 167.104 446.773 168.286 446.226 169.367C445.69 170.447 445.194 171.417 444.738 172.285C444.283 173.164 443.858 174.002 443.453 174.8C443.483 174.628 443.584 174.335 443.726 173.921C443.878 173.497 443.949 173.154 443.949 172.891L444.303 165.993C444.303 165.822 444.313 165.63 444.323 165.418C444.343 165.196 444.354 164.973 444.354 164.741C444.354 164.135 444.273 163.549 444.101 162.974C443.928 162.398 443.564 162.055 442.987 161.913L431.679 166.599C432.621 166.832 433.319 167.175 433.775 167.609C434.23 168.044 434.453 168.7 434.453 169.579V196.079C435.162 196.009 435.921 195.948 436.751 195.908C437.571 195.857 438.411 195.837 439.251 195.837C440.122 195.837 440.983 195.857 441.823 195.908C442.663 195.958 443.493 196.019 444.293 196.079V183.486C444.293 181.809 444.354 180.425 444.465 179.355C444.576 178.284 444.769 177.335 445.022 176.507C445.275 175.689 445.599 174.921 445.983 174.214C446.368 173.507 446.834 172.699 447.37 171.801C447.542 171.528 447.725 171.397 447.927 171.397C448.231 171.397 448.565 171.568 448.939 171.902C449.314 172.235 449.668 172.619 450.023 173.063C450.377 173.497 450.721 173.901 451.055 174.275C451.389 174.649 451.693 174.851 451.966 174.881C452.199 174.75 452.503 174.447 452.877 173.972C453.252 173.497 453.616 172.952 453.991 172.306C454.366 171.669 454.679 170.993 454.953 170.286C455.226 169.579 455.388 168.942 455.459 168.367V168.114C455.459 167.508 455.297 166.872 454.983 166.195C454.679 165.519 454.264 164.872 453.758 164.246Z" fill="white"/>
<path d="M473.862 164.127L474.318 162.511H470.076V153.139H469.519C469.145 153.139 468.963 153.109 468.963 153.038C468.386 154.351 467.707 155.452 466.918 156.361C466.128 157.27 465.298 158.057 464.417 158.724C463.537 159.401 462.636 160.007 461.694 160.562C460.753 161.118 459.862 161.683 459.022 162.249C458.849 162.38 458.586 162.461 458.212 162.471C457.837 162.491 457.351 162.491 456.744 162.491L456.187 164.107H460.176V188.386C460.176 190.305 460.408 191.789 460.884 192.84C461.35 193.9 462.069 194.688 463.03 195.203C463.992 195.728 465.166 196.041 466.563 196.163C467.96 196.284 469.6 196.334 471.483 196.334H474.004V195.577C473.032 195.577 472.273 195.385 471.736 195.001C471.2 194.617 470.805 194.122 470.552 193.516C470.299 192.911 470.137 192.254 470.076 191.547C470.005 190.84 469.975 190.174 469.975 189.527V164.087H473.862V164.127Z" fill="white"/>
<path d="M498.278 179.538C497.155 178.064 495.657 176.832 493.814 175.862L486.596 171.984C485.179 171.247 484.268 170.53 483.843 169.843C483.417 169.156 483.215 168.409 483.215 167.601C483.215 166.359 483.64 165.328 484.501 164.531C485.361 163.723 486.576 163.319 488.165 163.319C489.542 163.319 490.635 163.632 491.445 164.248C492.255 164.874 492.863 165.601 493.267 166.439C493.672 167.278 493.936 168.106 494.047 168.904C494.168 169.712 494.219 170.277 494.219 170.62L495.079 172.64L498.461 164.43C498.025 164.096 497.509 163.753 496.922 163.399C496.335 163.046 495.606 162.723 494.756 162.42C493.895 162.117 492.903 161.874 491.779 161.693C490.646 161.511 489.35 161.42 487.862 161.42C486.586 161.42 485.3 161.693 484.025 162.228C482.749 162.763 481.585 163.5 480.542 164.419C479.5 165.349 478.649 166.439 477.991 167.722C477.333 169.005 477.009 170.378 477.009 171.853C477.009 173.771 477.384 175.488 478.143 177.013C478.902 178.538 480.057 179.71 481.605 180.518L489.076 184.194C490.797 185.073 491.972 186.022 492.609 187.062C493.247 188.103 493.571 189.244 493.571 190.486C493.571 192.001 493.095 193.152 492.154 193.94C491.212 194.728 490.089 195.122 488.773 195.122C487.963 195.122 487.133 194.95 486.272 194.617C485.412 194.283 484.622 193.768 483.903 193.082C483.175 192.395 482.557 191.516 482.031 190.466C481.504 189.405 481.18 188.143 481.049 186.658C480.978 186.658 480.907 186.557 480.826 186.355C480.745 186.153 480.654 185.931 480.573 185.699C480.492 185.467 480.38 185.143 480.249 184.739C480.117 185.113 479.884 185.749 479.571 186.658C479.247 187.567 478.913 188.507 478.558 189.476C478.204 190.446 477.87 191.355 477.546 192.193C477.222 193.031 476.999 193.566 476.868 193.809C477.202 194.182 477.678 194.546 478.285 194.92C478.892 195.293 479.611 195.637 480.461 195.95C481.302 196.273 482.263 196.525 483.336 196.727C484.41 196.929 485.574 197.03 486.819 197.03C488.803 197.03 490.615 196.707 492.245 196.071C493.875 195.435 495.262 194.586 496.416 193.526C497.56 192.465 498.44 191.243 499.068 189.85C499.686 188.456 499.999 187.002 499.999 185.497C499.969 183.002 499.402 181.023 498.278 179.538Z" fill="white"/>
<path d="M218.694 133.183C218.633 134.102 218.593 135.061 218.613 136.041H53.1982V133.183H218.694Z" fill="url(#paint7_linear_435_70334)"/>
<path d="M448.514 134.607V137.324H280.144C280.144 137.324 280.295 136.314 280.245 134.607H448.514Z" fill="url(#paint8_linear_435_70334)"/>
<path d="M172.965 103.177C172.904 104.469 172.499 105.601 171.75 106.57C171.001 107.53 170.059 108.327 168.926 108.964C167.792 109.6 166.557 110.054 165.2 110.337C163.844 110.62 162.538 110.731 161.272 110.681C160.979 110.67 160.706 110.66 160.463 110.67C160.22 110.681 159.987 110.67 159.764 110.66C159.541 110.65 159.339 110.63 159.177 110.61C159.015 110.58 158.863 110.549 158.721 110.509L158.752 110.903L158.448 117.599C158.408 118.528 158.428 119.386 158.509 120.154C158.59 120.921 158.914 121.608 159.46 122.224C158.731 122.153 158.023 122.093 157.324 122.022C156.626 121.951 155.917 121.901 155.209 121.871C154.48 121.84 153.771 121.82 153.073 121.83C152.374 121.83 151.665 121.83 150.937 121.84C151.24 121.558 151.493 121.245 151.676 120.901C151.858 120.558 151.999 120.184 152.101 119.78C152.202 119.376 152.273 118.942 152.313 118.487C152.354 118.033 152.384 117.538 152.404 117.023L153.194 99.7732C153.235 98.9451 153.194 98.2684 153.093 97.7533C152.992 97.2383 152.86 96.8242 152.718 96.5313C152.546 96.198 152.344 95.9456 152.131 95.7739C152.404 95.7739 152.799 95.7537 153.295 95.7335C153.791 95.7133 154.308 95.6931 154.844 95.6628C155.381 95.6325 155.907 95.6123 156.423 95.582C156.94 95.5517 157.345 95.5214 157.638 95.481C158.964 95.3396 160.22 95.1881 161.394 95.0568C162.568 94.9255 163.763 94.875 164.957 94.9356L165.221 94.9457C166.344 95.0164 167.397 95.2487 168.369 95.6325C169.341 96.0263 170.181 96.5717 170.869 97.2686C171.568 97.9654 172.104 98.8138 172.469 99.8136C172.864 100.783 173.026 101.914 172.965 103.177ZM167.174 102.076C167.195 101.318 167.144 100.581 167.043 99.8742C166.931 99.1673 166.699 98.5411 166.324 97.9957C165.949 97.4503 165.403 97.006 164.694 96.6525C163.985 96.299 163.024 96.097 161.829 96.0364C161.343 96.0162 160.959 96.0364 160.675 96.1172C160.392 96.1879 160.169 96.2788 160.007 96.3697C159.845 96.4606 159.724 96.5616 159.643 96.6626C159.562 96.7636 159.481 96.8343 159.41 96.8848L158.883 108.277L158.792 109.156C158.985 109.216 159.167 109.277 159.349 109.327C159.531 109.378 159.774 109.408 160.088 109.428L160.371 109.438C161.515 109.418 162.507 109.236 163.338 108.893C164.168 108.55 164.856 108.075 165.413 107.459C165.96 106.843 166.375 106.106 166.658 105.257C166.941 104.409 167.103 103.47 167.154 102.45L167.174 102.076Z" fill="white"/>
<path d="M353.092 102.187C353.102 103.49 352.758 104.631 352.069 105.641C351.371 106.641 350.48 107.489 349.386 108.186C348.293 108.883 347.078 109.408 345.742 109.762C344.406 110.115 343.11 110.307 341.845 110.317C341.551 110.317 341.278 110.327 341.035 110.348C340.792 110.368 340.559 110.378 340.336 110.378C340.114 110.378 339.911 110.378 339.749 110.358C339.587 110.338 339.435 110.317 339.294 110.287L339.344 110.681L339.405 117.387C339.415 118.326 339.476 119.174 339.607 119.932C339.739 120.689 340.083 121.366 340.66 121.952C339.931 121.922 339.213 121.891 338.514 121.871C337.805 121.841 337.107 121.831 336.388 121.841C335.659 121.851 334.951 121.871 334.252 121.911C333.554 121.952 332.845 121.992 332.116 122.033C332.41 121.74 332.632 121.406 332.794 121.053C332.956 120.7 333.078 120.316 333.159 119.912C333.24 119.508 333.29 119.074 333.301 118.609C333.311 118.154 333.321 117.66 333.311 117.145L333.169 99.8746C333.159 99.0464 333.088 98.3697 332.956 97.8648C332.825 97.3598 332.673 96.9558 332.511 96.6629C332.319 96.3398 332.106 96.0974 331.883 95.9459C332.157 95.9257 332.551 95.8954 333.037 95.8449C333.533 95.7944 334.05 95.7439 334.586 95.6934C335.123 95.6328 335.649 95.5823 336.155 95.5217C336.672 95.4611 337.066 95.4106 337.37 95.3601C338.686 95.1379 339.931 94.936 341.106 94.734C342.28 94.532 343.454 94.431 344.659 94.4209H344.922C346.056 94.431 347.109 94.6027 348.101 94.9359C349.093 95.2692 349.953 95.7742 350.692 96.4307C351.421 97.0871 352.008 97.9052 352.434 98.8848C352.869 99.8039 353.082 100.925 353.092 102.187ZM347.25 101.4C347.23 100.642 347.139 99.9049 346.997 99.208C346.856 98.5111 346.582 97.8951 346.177 97.3699C345.772 96.8447 345.206 96.4206 344.477 96.1075C343.748 95.7944 342.786 95.6429 341.581 95.653C341.095 95.653 340.711 95.7035 340.438 95.7944C340.164 95.8853 339.941 95.9762 339.79 96.0873C339.638 96.1883 339.516 96.2994 339.435 96.4004C339.354 96.5014 339.283 96.5821 339.213 96.6326L339.304 108.035L339.263 108.924C339.456 108.974 339.638 109.025 339.82 109.065C340.002 109.105 340.255 109.126 340.559 109.126H340.842C341.986 109.045 342.968 108.813 343.778 108.429C344.588 108.045 345.256 107.53 345.772 106.884C346.289 106.237 346.663 105.48 346.896 104.611C347.129 103.743 347.25 102.803 347.24 101.783L347.25 101.4Z" fill="white"/>
<path d="M260.813 67.2333C260.176 68.6573 259.305 69.8793 258.201 70.9095C257.108 71.9396 255.843 72.7475 254.395 73.3434C252.958 73.9292 251.459 74.2726 249.9 74.3736L248.949 74.4039C248.382 74.4241 247.734 74.414 246.995 74.3635C246.256 74.3231 245.497 74.2221 244.697 74.0706C243.897 73.9191 243.087 73.6767 242.267 73.3535C241.447 73.0303 240.668 72.586 239.949 72.0305C240.101 71.7275 240.283 71.2327 240.496 70.5358C240.708 69.8389 240.941 69.0916 241.184 68.2937C241.427 67.4959 241.67 66.7081 241.903 65.9204C242.136 65.1326 242.348 64.4963 242.531 64.0217L243.057 65.4255C243.189 66.5667 243.533 67.5767 244.09 68.4351C244.646 69.2936 245.325 70.0106 246.114 70.5661C246.904 71.1216 247.764 71.5457 248.706 71.8184C249.637 72.0911 250.538 72.2123 251.399 72.182C252.097 72.1618 252.755 71.9598 253.383 71.5861C254 71.2124 254.537 70.7479 254.992 70.1823C255.448 69.6167 255.802 68.9704 256.065 68.2533C256.319 67.5363 256.44 66.799 256.42 66.0618C256.389 65.2235 256.157 64.4257 255.731 63.6682C255.306 62.9108 254.567 62.2846 253.535 61.7998C252.138 61.1434 250.882 60.5576 249.779 60.0324C249.293 59.8203 248.827 59.6082 248.382 59.3861C247.936 59.1639 247.532 58.9619 247.177 58.7801C246.823 58.5983 246.529 58.4569 246.296 58.3357C246.064 58.2246 245.952 58.1539 245.952 58.1236C245.082 57.6995 244.252 57.2248 243.482 56.6996C242.703 56.1744 242.024 55.5584 241.437 54.8514C240.85 54.1445 240.384 53.3567 240.03 52.4781C239.686 51.5994 239.494 50.5996 239.453 49.4685C239.453 49.3574 239.453 49.2362 239.453 49.115C239.463 48.9938 239.463 48.8625 239.453 48.7312C239.504 47.5092 239.797 46.3174 240.354 45.1661C240.901 44.0047 241.62 42.9644 242.52 42.0454C243.421 41.1264 244.464 40.3689 245.649 39.7932C246.843 39.2075 248.098 38.8944 249.435 38.854C251.125 38.7934 252.593 38.8641 253.838 39.0661C255.073 39.258 256.106 39.5105 256.936 39.8235C257.756 40.1366 258.404 40.4497 258.849 40.7729C259.305 41.0961 259.588 41.3586 259.71 41.5505C259.609 41.7626 259.416 42.1565 259.153 42.7423C258.89 43.328 258.606 43.9542 258.303 44.6207C257.999 45.2873 257.705 45.9135 257.432 46.4891C257.159 47.0749 256.956 47.4789 256.825 47.7112C256.774 47.6506 256.713 47.5294 256.642 47.3779C256.572 47.2264 256.491 47.0547 256.42 46.8729L256.126 46.2063V46.1357C256.106 45.5701 255.954 44.9742 255.671 44.3582C255.387 43.732 254.982 43.1664 254.456 42.6413C253.929 42.1161 253.292 41.6818 252.543 41.3384C251.793 40.9951 250.943 40.8133 250.002 40.7931L249.698 40.8032C248.908 40.8335 248.2 40.9749 247.572 41.2273C246.944 41.4899 246.418 41.8333 245.983 42.2575C245.547 42.6918 245.213 43.1866 245.001 43.7421C244.778 44.3077 244.687 44.8833 244.707 45.4994C244.727 46.1558 244.859 46.7214 245.102 47.2163C245.345 47.7011 245.649 48.1353 246.033 48.5191C246.408 48.9029 246.833 49.2362 247.319 49.5291C247.805 49.8219 248.291 50.0946 248.767 50.3471C249.202 50.5794 249.597 50.7915 249.941 50.9632C250.285 51.145 250.67 51.3469 251.095 51.5691C251.52 51.7913 251.966 52.0236 252.421 52.2559L256.015 54.094C256.45 54.3263 256.997 54.6595 257.645 55.0837C258.293 55.5079 258.91 56.0634 259.497 56.7299C260.084 57.3965 260.601 58.1842 261.036 59.0932C261.471 60.0021 261.714 61.0727 261.755 62.2846L261.765 62.4563C261.765 64.2237 261.451 65.8093 260.813 67.2333Z" fill="white"/>
<defs>
<linearGradient id="paint0_linear_435_70334" x1="214.873" y1="97.7734" x2="214.873" y2="105.257" gradientUnits="userSpaceOnUse">
<stop stop-color="#1C71B4"/>
<stop offset="1" stop-color="#008C39"/>
</linearGradient>
<linearGradient id="paint1_linear_435_70334" x1="285.527" y1="97.7734" x2="285.527" y2="105.257" gradientUnits="userSpaceOnUse">
<stop stop-color="#1C71B4"/>
<stop offset="1" stop-color="#008C39"/>
</linearGradient>
<linearGradient id="paint2_linear_435_70334" x1="248.452" y1="0.789062" x2="248.452" y2="135.303" gradientUnits="userSpaceOnUse">
<stop stop-color="#1C71B4"/>
<stop offset="1" stop-color="#008C39"/>
</linearGradient>
<linearGradient id="paint3_linear_435_70334" x1="186.428" y1="135.302" x2="186.428" y2="135.968" gradientUnits="userSpaceOnUse">
<stop stop-color="#1C71B4"/>
<stop offset="1" stop-color="#008C39"/>
</linearGradient>
<linearGradient id="paint4_linear_435_70334" x1="311.251" y1="135.302" x2="311.251" y2="135.968" gradientUnits="userSpaceOnUse">
<stop stop-color="#1C71B4"/>
<stop offset="1" stop-color="#008C39"/>
</linearGradient>
<linearGradient id="paint5_linear_435_70334" x1="285.527" y1="97.7734" x2="285.527" y2="105.257" gradientUnits="userSpaceOnUse">
<stop stop-color="#1C71B4"/>
<stop offset="1" stop-color="#008C39"/>
</linearGradient>
<linearGradient id="paint6_linear_435_70334" x1="214.873" y1="97.7734" x2="214.873" y2="105.257" gradientUnits="userSpaceOnUse">
<stop stop-color="#1C71B4"/>
<stop offset="1" stop-color="#008C39"/>
</linearGradient>
<linearGradient id="paint7_linear_435_70334" x1="135.946" y1="133.183" x2="135.946" y2="136.041" gradientUnits="userSpaceOnUse">
<stop stop-color="#1C71B4"/>
<stop offset="1" stop-color="#008C39"/>
</linearGradient>
<linearGradient id="paint8_linear_435_70334" x1="364.329" y1="134.607" x2="364.329" y2="137.324" gradientUnits="userSpaceOnUse">
<stop stop-color="#1C71B4"/>
<stop offset="1" stop-color="#008C39"/>
</linearGradient>
</defs>
</svg>
